<svg width="24" height="24" viewBox="0 0 24 24" fill="none" xmlns="http://www.w3.org/2000/svg">
<g id="arrow_l">
<path id="shape" d="M4.61719 12.3516C4.61719 12.5859 4.71875 12.8125 4.89844 12.9844L10.0469 18.1328C10.2344 18.3125 10.4453 18.3984 10.6562 18.3984C11.1484 18.3984 11.5 18.0469 11.5 17.5781C11.5 17.3359 11.4062 17.125 11.25 16.9766L9.5 15.2031L7.1875 13.0938L9.01562 13.2031H18.5156C19.0234 13.2031 19.3828 12.8516 19.3828 12.3516C19.3828 11.8438 19.0234 11.5 18.5156 11.5H9.01562L7.19531 11.6094L9.5 9.5L11.25 7.72656C11.4062 7.57031 11.5 7.35938 11.5 7.11719C11.5 6.64844 11.1484 6.30469 10.6562 6.30469C10.4453 6.30469 10.2344 6.38281 10.0312 6.57812L4.89844 11.7188C4.71875 11.8828 4.61719 12.1172 4.61719 12.3516Z" fill="#141029" fill-opacity="0.8"/>
</g>
</svg>
