<svg width="70" height="70" viewBox="-2 -8 60 70" fill="none" xmlns="http://www.w3.org/2000/svg">
<path fill-rule="evenodd" clip-rule="evenodd" d="M25.6489 15.763L21.2769 13.2625C20.8997 13.0441 20.6135 12.7891 20.4184 12.4976C20.2233 12.2062 20.1258 11.7838 20.1258 11.2306V5.42762C20.1258 4.88911 20.2233 4.48232 20.4184 4.20727C20.6135 3.93221 20.8833 3.69351 21.2277 3.49118L26.4007 0.54068C27.36 -0.00660607 28.3222 -0.00745501 29.2871 0.538133L34.4844 3.49415C34.8471 3.71431 35.117 3.95655 35.294 4.22085C35.4711 4.48515 35.5596 4.88741 35.5596 5.42762V11.2306C35.5596 11.7855 35.4706 12.2046 35.2928 12.4879C35.1149 12.7711 34.8292 13.0293 34.4356 13.2625L30.1798 15.6965V8.49697H25.6489V15.763ZM14.8116 35.7007L25.6489 30.2622V15.763L26.45 16.2211C27.3875 16.752 28.325 16.752 29.2625 16.2211L30.1798 15.6965V30.2622L40.958 35.6639C40.2062 36.2151 39.832 36.9678 39.8352 37.9218L39.8371 40.1424L27.9131 34.1673L15.8481 40.2211L15.85 37.8946C15.8529 36.977 15.5068 36.2457 14.8116 35.7007ZM14.8116 35.7007L7.26295 39.4889L9.52963 43.3915L15.8481 40.2211L15.845 43.8555C15.843 44.3105 15.7658 44.6825 15.6134 44.9714C15.461 45.2603 15.1444 45.5402 14.6636 45.811L9.64851 48.7127C9.16943 48.9821 8.77247 49.1082 8.45766 49.0909C8.14284 49.0737 7.79598 48.9558 7.41706 48.7373L2.29836 45.7376C1.32632 45.1903 0.840299 44.3538 0.840299 43.2281L0.788513 37.2944C0.788513 36.8886 0.856995 36.5322 0.993958 36.2252C1.13092 35.9181 1.42989 35.6383 1.89087 35.3856L6.96288 32.4567C7.42216 32.1893 7.8305 32.0683 8.1879 32.0936C8.54531 32.1189 8.90456 32.24 9.26564 32.4567L14.4192 35.4344C14.5604 35.5176 14.6913 35.6064 14.8116 35.7007ZM39.8371 40.1424L46.3211 43.3915L48.5904 39.4889L40.958 35.6639C41.0545 35.5931 41.1572 35.5257 41.2661 35.4616L46.4196 32.4839C46.7807 32.2671 47.14 32.1461 47.4974 32.1208C47.8548 32.0954 48.2631 32.2165 48.7224 32.4839L53.7944 35.4128C54.2571 35.6655 54.5565 35.9453 54.6926 36.2524C54.8287 36.5594 54.8968 36.9158 54.8968 37.3216L54.845 43.2553C54.845 44.381 54.359 45.2175 53.3869 45.7648L48.2682 48.7645C47.889 48.983 47.5421 49.1013 47.2274 49.1194C46.9127 49.1375 46.5159 49.011 46.0368 48.7399L41.0216 45.8382C40.5409 45.5674 40.2242 45.2875 40.0717 44.9986C39.9191 44.7097 39.842 44.3377 39.8403 43.8827L39.8371 40.1424Z" fill="white"/>
</svg>
