<svg width="74" height="86" viewBox="0 -2 74 86" fill="none" xmlns="http://www.w3.org/2000/svg">
<path fill-rule="evenodd" clip-rule="evenodd" d="M36.517 7.57391C37.5676 7.57391 38.4417 7.21997 39.1391 6.51208C39.8366 5.8042 40.1853 4.93536 40.1853 3.90558C40.1853 2.88055 39.8302 2.01291 39.1199 1.30264C38.4096 0.592377 37.542 0.237244 36.517 0.237244C35.5154 0.237244 34.6536 0.598236 33.9316 1.32022C33.2096 2.04221 32.8486 2.90399 32.8486 3.90558C32.8486 4.9306 33.2038 5.79825 33.914 6.50851C34.6243 7.21878 35.4919 7.57391 36.517 7.57391ZM20.5379 16.7689C21.5889 16.7689 22.4636 16.4196 23.162 15.7211C23.8604 15.0226 24.2095 14.149 24.2095 13.1006C24.2095 12.0734 23.8545 11.2046 23.1444 10.4944C22.4343 9.78409 21.5655 9.42896 20.5379 9.42896C19.5363 9.42896 18.6745 9.78995 17.9525 10.5119C17.2306 11.2339 16.8696 12.0968 16.8696 13.1006C16.8696 14.1256 17.23 14.9933 17.9509 15.7035C18.6718 16.4138 19.5341 16.7689 20.5379 16.7689ZM55.0987 15.7211C54.3908 16.4196 53.522 16.7689 52.4922 16.7689C51.465 16.7689 50.5968 16.4144 49.8876 15.7054C49.1784 14.9965 48.8239 14.1282 48.8239 13.1006C48.8239 12.0968 49.1848 11.2339 49.9068 10.5119C50.6288 9.78995 51.4906 9.42896 52.4922 9.42896C53.4963 9.42896 54.3588 9.78409 55.0795 10.4944C55.8002 11.2046 56.1605 12.0734 56.1605 13.1006C56.1605 14.149 55.8066 15.0226 55.0987 15.7211ZM4.59454 26.1013C5.62396 26.1013 6.49271 25.752 7.20078 25.0534C7.90884 24.3549 8.26288 23.4814 8.26288 22.4329C8.26288 21.4266 7.90244 20.563 7.18155 19.8423C6.46066 19.1216 5.59833 18.7613 4.59454 18.7613C3.59515 18.7613 2.73447 19.1222 2.01248 19.844C1.2905 20.5658 0.929504 21.4288 0.929504 22.4329C0.929504 23.4579 1.284 24.3256 1.99298 25.0359C2.70197 25.7461 3.56915 26.1013 4.59454 26.1013ZM40.0175 25.9301C39.0695 26.8781 37.9027 27.3521 36.517 27.3521C35.1569 27.3521 33.9964 26.8722 33.0357 25.9126C32.0749 24.9529 31.5945 23.793 31.5945 22.4329C31.5945 21.0941 32.0808 19.9389 33.0533 18.9676C34.0257 17.9962 35.1803 17.5105 36.517 17.5105C37.8771 17.5105 39.0375 17.9956 39.9983 18.9659C40.959 19.9362 41.4394 21.0919 41.4394 22.4329C41.4394 23.8165 40.9654 24.9822 40.0175 25.9301ZM68.3306 26.1013C69.3578 26.1013 70.2255 25.752 70.9336 25.0534C71.6416 24.3549 71.9957 23.4814 71.9957 22.4329C71.9957 21.4053 71.6405 20.5365 70.9303 19.8264C70.22 19.1163 69.3535 18.7613 68.3306 18.7613C67.329 18.7613 66.4673 19.1275 65.7453 19.8599C65.0233 20.5923 64.6623 21.45 64.6623 22.4329C64.6623 23.4601 65.0169 24.3283 65.726 25.0375C66.4352 25.7467 67.3034 26.1013 68.3306 26.1013ZM24.0387 35.1955C23.0906 36.1412 21.9236 36.6141 20.5379 36.6141C19.1782 36.6141 18.0184 36.1336 17.0585 35.1727C16.0987 34.2117 15.6188 33.0512 15.6188 31.6911C15.6188 30.3548 16.1098 29.2003 17.0918 28.2277C18.0738 27.255 19.2225 26.7687 20.5379 26.7687C21.9002 26.7687 23.0613 27.2491 24.0211 28.2101C24.981 29.171 25.4609 30.3314 25.4609 31.6911C25.4609 33.0816 24.9868 34.2497 24.0387 35.1955ZM52.4922 36.6141C53.8571 36.6141 55.0188 36.14 55.9773 35.1919C56.9359 34.2438 57.4152 33.0768 57.4152 31.6911C57.4152 30.3314 56.9294 29.171 55.9578 28.2101C54.9863 27.2491 53.8311 26.7687 52.4922 26.7687C51.1559 26.7687 50.0014 27.255 49.0287 28.2277C48.0561 29.2003 47.5698 30.3548 47.5698 31.6911C47.5698 33.0534 48.0496 34.2145 49.0092 35.1743C49.9689 36.1342 51.1299 36.6141 52.4922 36.6141ZM7.20078 43.5948C6.49271 44.3027 5.62396 44.6566 4.59454 44.6566C3.56915 44.6566 2.70197 44.3015 1.99298 43.5912C1.284 42.881 0.929504 42.0133 0.929504 40.9883C0.929504 39.9867 1.2905 39.1249 2.01248 38.4029C2.73447 37.6809 3.59515 37.3199 4.59454 37.3199C5.59833 37.3199 6.46066 37.6751 7.18155 38.3853C7.90244 39.0956 8.26288 39.9633 8.26288 40.9883C8.26288 42.0181 7.90884 42.8869 7.20078 43.5948ZM36.517 46.7396C38.1202 46.7396 39.4796 46.1819 40.5951 45.0664C41.7106 43.9509 42.2683 42.5916 42.2683 40.9883C42.2683 39.4084 41.7042 38.0543 40.5759 36.9258C39.4476 35.7973 38.0946 35.2331 36.517 35.2331C35.4729 35.2331 34.5137 35.4941 33.6394 36.0161C32.765 36.5382 32.0669 37.2364 31.5448 38.1107C31.0228 38.985 30.7618 39.9442 30.7618 40.9883C30.7618 42.5681 31.3259 43.9216 32.4542 45.0488C33.5825 46.176 34.9368 46.7396 36.517 46.7396ZM70.9336 43.6088C70.2255 44.3073 69.3578 44.6566 68.3306 44.6566C67.3034 44.6566 66.4352 44.302 65.726 43.5929C65.0169 42.8837 64.6623 42.0155 64.6623 40.9883C64.6623 39.9867 65.0233 39.1249 65.7453 38.4029C66.4673 37.6809 67.329 37.3199 68.3306 37.3199C69.3535 37.3199 70.22 37.6751 70.9303 38.3853C71.6405 39.0956 71.9957 39.9633 71.9957 40.9883C71.9957 42.0367 71.6416 42.9102 70.9336 43.6088ZM20.5379 55.2079C21.9236 55.2079 23.0906 54.7286 24.0387 53.7701C24.9868 52.8115 25.4609 51.65 25.4609 50.2855C25.4609 48.9232 24.981 47.7621 24.0211 46.8022C23.0613 45.8424 21.9002 45.3625 20.5379 45.3625C19.2016 45.3625 18.0477 45.8483 17.0761 46.8198C16.1046 47.7914 15.6188 48.9466 15.6188 50.2855C15.6188 51.6452 16.1039 52.8055 17.0742 53.7665C18.0445 54.7274 19.199 55.2079 20.5379 55.2079ZM55.9773 53.7701C55.0188 54.7286 53.8571 55.2079 52.4922 55.2079C51.1299 55.2079 49.9689 54.7281 49.0092 53.7684C48.0496 52.8087 47.5698 51.6478 47.5698 50.2855C47.5698 48.9466 48.0555 47.7914 49.0268 46.8198C49.9982 45.8483 51.1533 45.3625 52.4922 45.3625C53.8336 45.3625 54.9895 45.8424 55.9597 46.8022C56.93 47.7621 57.4152 48.9232 57.4152 50.2855C57.4152 51.65 56.9359 52.8115 55.9773 53.7701ZM4.59454 63.1801C5.62872 63.1801 6.49866 62.8315 7.20435 62.1342C7.91003 61.437 8.26288 60.5628 8.26288 59.5118C8.26288 58.5058 7.90298 57.6429 7.1832 56.9231C6.46341 56.2033 5.60052 55.8434 4.59454 55.8434C3.59259 55.8434 2.73126 56.2097 2.01056 56.9424C1.28986 57.675 0.929504 58.5314 0.929504 59.5118C0.929504 60.5372 1.284 61.4049 1.99298 62.115C2.70197 62.8251 3.56915 63.1801 4.59454 63.1801ZM40.0175 63.0126C39.0695 63.9607 37.9027 64.4348 36.517 64.4348C35.1569 64.4348 33.9964 63.9543 33.0357 62.9933C32.0749 62.0324 31.5945 60.8719 31.5945 59.5118C31.5945 58.1964 32.0808 57.0524 33.0533 56.0799C34.0257 55.1075 35.1803 54.6212 36.517 54.6212C37.8793 54.6212 39.0403 55.101 39.9999 56.0607C40.9596 57.0204 41.4394 58.1707 41.4394 59.5118C41.4394 60.8975 40.9654 62.0645 40.0175 63.0126ZM68.3306 63.1801C69.3791 63.1801 70.252 62.8309 70.9495 62.1326C71.6469 61.4342 71.9957 60.5606 71.9957 59.5118C71.9957 58.508 71.6358 57.6457 70.916 56.9248C70.1962 56.2039 69.3344 55.8434 68.3306 55.8434C67.3268 55.8434 66.4645 56.2092 65.7436 56.9407C65.0227 57.6722 64.6623 58.5292 64.6623 59.5118C64.6623 60.5394 65.0169 61.4077 65.726 62.1166C66.4352 62.8256 67.3034 63.1801 68.3306 63.1801ZM23.162 71.4822C22.4636 72.1903 21.5889 72.5443 20.5379 72.5443C19.5341 72.5443 18.6718 72.1839 17.9509 71.463C17.23 70.7421 16.8696 69.8798 16.8696 68.876C16.8696 67.8744 17.2306 67.0073 17.9525 66.2747C18.6745 65.5421 19.5363 65.1758 20.5379 65.1758C21.5655 65.1758 22.4343 65.5356 23.1444 66.2552C23.8545 66.9748 24.2095 67.8484 24.2095 68.876C24.2095 69.9054 23.8604 70.7741 23.162 71.4822ZM52.4922 72.5443C53.522 72.5443 54.3908 72.1903 55.0987 71.4822C55.8066 70.7741 56.1605 69.9054 56.1605 68.876C56.1605 67.8484 55.8007 66.9748 55.0811 66.2552C54.3615 65.5356 53.4985 65.1758 52.4922 65.1758C51.4884 65.1758 50.6261 65.5414 49.9052 66.2728C49.1843 67.0041 48.8239 67.8718 48.8239 68.876C48.8239 69.882 49.1784 70.7448 49.8876 71.4646C50.5968 72.1844 51.465 72.5443 52.4922 72.5443ZM39.1375 80.6915C38.4389 81.39 37.5654 81.7393 36.517 81.7393C35.4919 81.7393 34.6243 81.3842 33.914 80.6739C33.2038 79.9637 32.8486 79.096 32.8486 78.071C32.8486 77.0668 33.2096 76.2039 33.9316 75.4821C34.6536 74.7603 35.5154 74.3994 36.517 74.3994C37.5442 74.3994 38.4124 74.7544 39.1216 75.4645C39.8307 76.1746 40.1853 77.0434 40.1853 78.071C40.1853 79.1194 39.836 79.993 39.1375 80.6915Z" fill="white"/>
</svg>
