<svg width="85" height="68" viewBox="-3 -2 85 68" fill="none" xmlns="http://www.w3.org/2000/svg">
<path fill-rule="evenodd" clip-rule="evenodd" d="M43.1166 57.6038C43.1166 60.0896 41.8737 61.3325 39.3879 61.3325C36.9039 61.3325 35.6619 60.0896 35.6619 57.6038V4.40796C35.6619 1.92212 36.9039 0.679199 39.3879 0.679199C41.8737 0.679199 43.1166 1.92212 43.1166 4.40796V57.6038ZM4.20197 48.0078C6.68817 48.0078 7.93127 46.7657 7.93127 44.2817V17.73C7.93127 15.246 6.68817 14.004 4.20197 14.004C1.71576 14.004 0.472656 15.246 0.472656 17.73V44.2817C0.472656 46.7657 1.71576 48.0078 4.20197 48.0078ZM21.8284 39.5609C24.2908 39.5609 25.522 38.3178 25.522 35.8316V26.1801C25.522 23.6939 24.2908 22.4508 21.8284 22.4508C19.3422 22.4508 18.0991 23.6939 18.0991 26.1801V35.8316C18.0991 38.3178 19.3422 39.5609 21.8284 39.5609ZM56.9786 39.5609C59.4648 39.5609 60.7079 38.3178 60.7079 35.8316V26.1801C60.7079 23.6939 59.4648 22.4508 56.9786 22.4508C54.5162 22.4508 53.285 23.6939 53.285 26.1801V35.8316C53.285 38.3178 54.5162 39.5609 56.9786 39.5609ZM78.3026 44.2817C78.3026 46.7657 77.0594 48.0078 74.5732 48.0078C72.0874 48.0078 70.8445 46.7657 70.8445 44.2817V17.73C70.8445 15.246 72.0874 14.004 74.5732 14.004C77.0594 14.004 78.3026 15.246 78.3026 17.73V44.2817Z" fill="white"/>
</svg>
