<svg width="74" height="85" viewBox="-3 -5 74 85" fill="none" xmlns="http://www.w3.org/2000/svg">
<path fill-rule="evenodd" clip-rule="evenodd" d="M36.5386 42.7866C35.8479 43.0241 35.1537 43.1428 34.4561 43.1428C33.7559 43.1428 33.0605 43.0241 32.3698 42.7866C31.6791 42.5491 30.9161 42.1859 30.0808 41.697L4.12506 26.6408C2.75323 25.8256 1.76154 25.0545 1.14996 24.3274C0.538391 23.6003 0.232605 22.7412 0.232605 21.7502C0.232605 20.7615 0.538391 19.9034 1.14996 19.1761C1.76154 18.4489 2.75323 17.6767 4.12506 16.8597L30.0808 1.80676C30.9161 1.31787 31.6791 0.959991 32.3698 0.733124C33.0605 0.506256 33.7559 0.392822 34.4561 0.392822C35.1537 0.392822 35.8479 0.506256 36.5386 0.733124C37.2292 0.959991 37.9922 1.31787 38.8276 1.80676L64.7548 16.8597C66.1456 17.6767 67.1422 18.4489 67.7444 19.1761C68.3466 19.9034 68.6478 20.7615 68.6478 21.7502C68.6478 22.7412 68.3466 23.6003 67.7444 24.3274C67.1422 25.0545 66.1456 25.8256 64.7548 26.6408L38.8276 41.697C37.9922 42.1859 37.2292 42.5491 36.5386 42.7866ZM33.0405 36.2626C33.5825 36.556 34.0544 36.7026 34.4561 36.7026C34.8553 36.7026 35.3259 36.556 35.8679 36.2626L60.736 22.0634C60.8953 21.993 60.9749 21.8887 60.9749 21.7502C60.9749 21.6118 60.8953 21.5074 60.736 21.4371L35.8679 7.23785C35.3259 6.94452 34.8553 6.79785 34.4561 6.79785C34.0544 6.79785 33.5825 6.94452 33.0405 7.23785L8.17242 21.4371C8.01312 21.5074 7.93347 21.6118 7.93347 21.7502C7.93347 21.8887 8.01312 21.993 8.17242 22.0634L33.0405 36.2626ZM34.4561 59.5443C35.0904 59.5443 35.6993 59.4098 36.2829 59.1408C36.8664 58.8719 37.5323 58.5244 38.2805 58.0985L66.5505 41.4306C67.2595 40.9992 67.7916 40.4951 68.1468 39.9183C68.502 39.3416 68.6796 38.7399 68.6796 38.1133C68.6796 37.3702 68.4643 36.7108 68.0336 36.1349C67.603 35.5591 67.124 35.1266 66.5966 34.8377L36.0475 52.54C35.745 52.7213 35.4635 52.8637 35.2029 52.9673C34.9424 53.071 34.6934 53.1228 34.4561 53.1228C34.2162 53.1228 33.9666 53.071 33.7071 52.9673C33.4477 52.8637 33.1656 52.7213 32.8609 52.54L2.27991 34.8377C1.7738 35.1266 1.30606 35.5591 0.876678 36.1349C0.447296 36.7108 0.232605 37.3702 0.232605 38.1133C0.232605 38.7399 0.410126 39.3474 0.765167 39.9359C1.12021 40.5244 1.65112 41.0226 2.35791 41.4306L30.6279 58.0985C31.3549 58.5244 32.0154 58.8719 32.6096 59.1408C33.2038 59.4098 33.8193 59.5443 34.4561 59.5443ZM36.2829 74.5742C35.6993 74.8433 35.0904 74.9779 34.4561 74.9779C33.8193 74.9779 33.2038 74.8433 32.6096 74.5742C32.0154 74.305 31.3549 73.947 30.6279 73.5002L2.35791 56.8642C1.65112 56.435 1.12021 55.9261 0.765167 55.3376C0.410126 54.7491 0.232605 54.1416 0.232605 53.515C0.232605 52.772 0.447296 52.1177 0.876678 51.5523C1.30606 50.9869 1.7738 50.5599 2.27991 50.2713L32.8609 67.9736C33.1656 68.1336 33.4477 68.2707 33.7071 68.3847C33.9666 68.4988 34.2162 68.5558 34.4561 68.5558C34.6934 68.5558 34.9424 68.4988 35.2029 68.3847C35.4635 68.2707 35.745 68.1336 36.0475 67.9736L66.5966 50.2713C67.124 50.5599 67.603 50.9869 68.0336 51.5523C68.4643 52.1177 68.6796 52.772 68.6796 53.515C68.6796 54.1416 68.5015 54.7491 68.1451 55.3376C67.7888 55.9261 67.2573 56.435 66.5505 56.8642L38.2805 73.5002C37.5323 73.947 36.8664 74.305 36.2829 74.5742Z" fill="white"/>
</svg>
