<svg width="24" height="24" viewBox="0 0 0.024 0.025" fill="none" xmlns="http://www.w3.org/2000/svg">
<g id="instagram">
<path id="shape" fill-rule="evenodd" clip-rule="evenodd" d="M0.0117188 0.00244141C0.00906657 0.00244141 0.008734 0.00245265 0.0076924 0.00250017C0.00665296 0.00254758 0.00594306 0.00271268 0.00532189 0.00295411C0.00467972 0.00320364 0.00413511 0.00353756 0.00359217 0.00408046C0.00304927 0.00462339 0.00271536 0.005168 0.00246583 0.00581018C0.0022244 0.00643134 0.0020593 0.00714124 0.00201189 0.00818068C0.00196437 0.00922228 0.00195312 0.00955485 0.00195312 0.0122071C0.00195312 0.0148592 0.00196437 0.0151918 0.00201189 0.0162334C0.0020593 0.0172728 0.0022244 0.0179827 0.00246583 0.0186039C0.00271536 0.0192461 0.00304927 0.0197907 0.00359217 0.0203336C0.00413511 0.0208765 0.00467972 0.0212104 0.00532189 0.02146C0.00594306 0.0217014 0.00665296 0.0218665 0.0076924 0.0219139C0.008734 0.0219614 0.00906657 0.0219727 0.0117188 0.0219727C0.0143709 0.0219727 0.0147035 0.0219614 0.0157451 0.0219139C0.0167845 0.0218665 0.0174944 0.0217014 0.0181156 0.02146C0.0187578 0.0212104 0.0193024 0.0208765 0.0198453 0.0203336C0.0203882 0.0197907 0.0207221 0.0192461 0.0209717 0.0186039C0.0212131 0.0179827 0.0213782 0.0172728 0.0214256 0.0162334C0.0214731 0.0151918 0.0214844 0.0148592 0.0214844 0.0122071C0.0214844 0.00955485 0.0214731 0.00922228 0.0214256 0.00818068C0.0213782 0.00714124 0.0212131 0.00643134 0.0209717 0.00581018C0.0207221 0.005168 0.0203882 0.00462339 0.0198453 0.00408046C0.0193024 0.00353756 0.0187578 0.00320364 0.0181156 0.00295411C0.0174944 0.00271268 0.0167845 0.00254758 0.0157451 0.00250017C0.0147035 0.00245265 0.0143709 0.00244141 0.0117188 0.00244141ZM0.0117188 0.00420098C0.0143263 0.00420098 0.0146352 0.00421094 0.0156649 0.00425792C0.016617 0.00430134 0.0171341 0.00446043 0.0174782 0.00459417C0.0179341 0.00477132 0.0182594 0.00498294 0.0186011 0.00532469C0.0189428 0.0056664 0.0191545 0.00599171 0.0193316 0.00644755C0.0194654 0.00679166 0.0196244 0.00730874 0.0196679 0.00826088C0.0197148 0.00929063 0.0197248 0.0095995 0.0197248 0.0122071C0.0197248 0.0148146 0.0197148 0.0151234 0.0196679 0.0161532C0.0196244 0.0171053 0.0194654 0.0176224 0.0193316 0.0179665C0.0191545 0.0184224 0.0189428 0.0187477 0.0186011 0.0190894C0.0182594 0.0194311 0.0179341 0.0196427 0.0174782 0.0198199C0.0171341 0.0199536 0.016617 0.0201127 0.0156649 0.0201561C0.0146353 0.0202031 0.0143265 0.0202131 0.0117188 0.0202131C0.00911103 0.0202131 0.00880223 0.0202031 0.0077726 0.0201561C0.00682046 0.0201127 0.00630338 0.0199536 0.00595926 0.0198199C0.00550343 0.0196427 0.00517812 0.0194311 0.00483641 0.0190894C0.00449469 0.0187477 0.00428304 0.0184224 0.00410588 0.0179665C0.00397215 0.0176224 0.00381306 0.0171053 0.00376964 0.0161532C0.00372266 0.0151234 0.00371269 0.0148146 0.00371269 0.0122071C0.00371269 0.0095995 0.00372266 0.00929063 0.00376964 0.00826088C0.00381306 0.00730874 0.00397215 0.00679166 0.00410588 0.00644755C0.00428304 0.00599171 0.00449466 0.0056664 0.00483641 0.00532469C0.00517812 0.00498294 0.00550343 0.00477132 0.00595926 0.00459417C0.00630338 0.00446043 0.00682046 0.00430134 0.0077726 0.00425792C0.00880235 0.00421094 0.00911122 0.00420098 0.0117188 0.00420098ZM0.0117188 0.0154622C0.00992094 0.0154622 0.00846354 0.0140048 0.00846354 0.0122071C0.00846354 0.0104092 0.00992094 0.00895182 0.0117188 0.00895182C0.0135166 0.00895182 0.014974 0.0104092 0.014974 0.0122071C0.014974 0.0140048 0.0135166 0.0154622 0.0117188 0.0154622ZM0.0117188 0.00719225C0.00894915 0.00719225 0.00670397 0.00943743 0.00670397 0.0122071C0.00670397 0.0149766 0.00894915 0.0172218 0.0117188 0.0172218C0.0144884 0.0172218 0.0167335 0.0149766 0.0167335 0.0122071C0.0167335 0.00943743 0.0144884 0.00719225 0.0117188 0.00719225ZM0.0169317 0.00816598C0.0175789 0.00816598 0.0181035 0.00764134 0.0181035 0.00699413C0.0181035 0.00634691 0.0175789 0.00582223 0.0169317 0.00582223C0.0162845 0.00582223 0.0157598 0.00634691 0.0157598 0.00699413C0.0157598 0.00764134 0.0162845 0.00816598 0.0169317 0.00816598Z" fill="white"/>
</g>
</svg>
