<svg width="24" height="25" viewBox="0 0 24 25" fill="none" xmlns="http://www.w3.org/2000/svg">
<path d="M20.5201 2.50011H3.4762C2.67064 2.49093 2.00995 3.13611 2 3.94166V21.0562C2.00951 21.8621 2.6702 22.508 3.4762 22.4993H20.5198C21.3267 22.5086 21.9889 21.863 22 21.0562V3.94166C21.9884 3.13522 21.3263 2.49033 20.5198 2.50011" fill="white"/>
<path fill-rule="evenodd" clip-rule="evenodd" d="M6.39795 8.62967C5.44122 8.62997 4.6654 7.85463 4.6651 6.89789C4.6648 5.94116 5.44015 5.16534 6.39688 5.16504C7.35361 5.16474 8.12944 5.94009 8.12973 6.89682C8.12988 7.35626 7.9475 7.79694 7.62273 8.12191C7.29796 8.44688 6.85739 8.62953 6.39795 8.62967ZM19.3232 20.0896H16.2488V15.285C16.2488 14.1395 16.2283 12.6641 14.6498 12.6641C13.0492 12.6641 12.8037 13.9125 12.8037 15.2023V20.0896H9.7288V10.2092H12.6799V11.5594H12.7213C13.323 10.5328 14.442 9.91987 15.6329 9.96451C18.7487 9.96451 19.3232 12.0113 19.3232 14.6703V20.0896ZM4.93161 19.8231H7.86322L7.8627 9.96222H4.93161V19.8231Z" fill="#0A0D13"/>
</svg>
