<svg width="24" height="25" viewBox="0 0 24 25" fill="none" xmlns="http://www.w3.org/2000/svg">
<circle cx="12" cy="12.5" r="10" fill="url(#paint0_linear_668_100)"/>
<path d="M6.52657 12.394C9.44177 11.1239 11.3857 10.2865 12.3583 9.88197C15.1354 8.72688 15.7125 8.52623 16.0886 8.5196C16.1714 8.51814 16.3563 8.53865 16.4761 8.63587C16.5773 8.71796 16.6051 8.82885 16.6185 8.90668C16.6318 8.98451 16.6484 9.16181 16.6352 9.30034C16.4847 10.8816 15.8335 14.7188 15.5022 16.4898C15.362 17.2392 15.086 17.4905 14.8188 17.5151C14.2381 17.5685 13.7971 17.1313 13.2347 16.7626C12.3545 16.1857 11.8573 15.8265 11.003 15.2635C10.0157 14.6129 10.6557 14.2553 11.2184 13.6709C11.3656 13.518 13.9243 11.1907 13.9738 10.9795C13.98 10.9531 13.9858 10.8547 13.9273 10.8027C13.8688 10.7508 13.7825 10.7685 13.7202 10.7827C13.632 10.8027 12.226 11.732 9.50219 13.5707C9.1031 13.8447 8.74161 13.9782 8.41773 13.9712C8.06068 13.9635 7.37385 13.7693 6.86327 13.6034C6.23702 13.3998 5.73929 13.2922 5.78263 12.9465C5.8052 12.7664 6.05318 12.5822 6.52657 12.394Z" fill="white"/>
<defs>
<linearGradient id="paint0_linear_668_100" x1="2.07417" y1="2.5" x2="2.07417" y2="22.3517" gradientUnits="userSpaceOnUse">
<stop stop-color="#2AABEE"/>
<stop offset="1" stop-color="#229ED9"/>
</linearGradient>
</defs>
</svg>
