<svg width="33" height="27" viewBox="0 0 33 27" fill="none" xmlns="http://www.w3.org/2000/svg">
<path fill-rule="evenodd" clip-rule="evenodd" d="M7.06394 0H25.7462C26.192 0 26.6038 0.235273 26.8261 0.616966L32.269 9.96199C32.5513 10.4466 32.4674 11.0583 32.0648 11.4513L17.0831 26.075C16.5978 26.5487 15.8171 26.5487 15.3317 26.075L0.370227 11.471C-0.0417348 11.0689 -0.118877 10.4394 0.184062 9.95179L6.0021 0.586986C6.22868 0.22227 6.63077 0 7.06394 0ZM23.334 4.17222V6.79428H18.0122V8.61225C21.7499 8.80652 24.5541 9.60439 24.575 10.5608L24.5748 12.5546C24.554 13.511 21.7499 14.3089 18.0122 14.5032V18.9646H14.4784V14.5032C10.7408 14.3089 7.93646 13.511 7.91566 12.5546L7.91578 10.5608C7.93658 9.60439 10.7408 8.80652 14.4784 8.61225V6.79428H9.15658V4.17222H23.334ZM16.2453 13.1334C20.2341 13.1334 23.5681 12.4587 24.384 11.5577C23.6921 10.7936 21.1894 10.1923 18.0122 10.0272V11.9306C17.4427 11.9602 16.8516 11.9758 16.2453 11.9758C15.6391 11.9758 15.0479 11.9602 14.4784 11.9306V10.0272C11.3012 10.1923 8.79854 10.7936 8.10665 11.5577C8.92257 12.4587 12.2566 13.1334 16.2453 13.1334Z" fill="#00FFAA"/>
</svg>
