<svg width="24" height="24" viewBox="0 0 24 24" fill="none" xmlns="http://www.w3.org/2000/svg">
<rect width="24" height="24" rx="12" fill="white" fill-opacity="0.12"/>
<path fill-rule="evenodd" clip-rule="evenodd" d="M12.3594 16.2191C12.3594 16.6462 12.0365 16.9639 11.6094 16.9639C11.3177 16.9639 11.0938 16.8441 10.8021 16.5837L8.57292 14.5889C8.54167 14.5628 8.50521 14.5472 8.46875 14.5472H7C6.1875 14.5472 5.76562 14.1149 5.76562 13.2555V11.2451C5.76562 10.3857 6.1875 9.94824 7 9.94824H8.46875C8.50521 9.94824 8.53646 9.93783 8.57292 9.90658L10.8021 7.92741C11.1146 7.65137 11.3177 7.52637 11.6042 7.52637C12.0365 7.52637 12.3594 7.86491 12.3594 8.29199V16.2191ZM18.2392 12.2399C18.2392 13.5889 17.8434 14.891 17.1559 15.891C16.9736 16.1618 16.6403 16.2295 16.3694 16.0629C16.0725 15.8858 16.0361 15.5212 16.2392 15.1983C16.7757 14.3806 17.0934 13.3337 17.0934 12.2399C17.0934 11.1462 16.7861 10.0941 16.2392 9.27641C16.0309 8.95349 16.0725 8.59412 16.3694 8.41703C16.6403 8.25037 16.9736 8.31287 17.1559 8.58891C17.8486 9.57849 18.2392 10.891 18.2392 12.2399ZM11.1458 15.4432C11.1198 15.4432 11.0938 15.4328 11.0625 15.4067L9.10417 13.6255C8.98438 13.5161 8.88021 13.4849 8.72917 13.4849H7.14062C6.98438 13.4849 6.90625 13.4067 6.90625 13.2505V11.2505C6.90625 11.0942 6.98438 11.0161 7.14062 11.0161H8.72917C8.88021 11.0161 8.98438 10.9849 9.10417 10.8755L11.0625 9.08903C11.0885 9.06299 11.1146 9.04736 11.1458 9.04736C11.1875 9.04736 11.2188 9.07861 11.2188 9.12549V15.3651C11.2188 15.4119 11.1875 15.4432 11.1458 15.4432ZM15.6031 12.24C15.6031 13.089 15.3479 13.9015 14.9104 14.4953C14.7334 14.7453 14.4052 14.8025 14.1448 14.6411C13.8531 14.4536 13.7959 14.1046 14.0302 13.74C14.3011 13.3286 14.4573 12.7973 14.4573 12.24C14.4573 11.6775 14.3063 11.1463 14.0302 10.74C13.7906 10.3755 13.8531 10.0265 14.1448 9.84421C14.4052 9.67234 14.7334 9.73484 14.9104 9.98484C15.3479 10.5786 15.6031 11.3911 15.6031 12.24Z" fill="white"/>
</svg>
