<svg width="24" height="24" viewBox="0 0 24 24" fill="none" xmlns="http://www.w3.org/2000/svg">
<rect width="24" height="24" rx="12" fill="white" fill-opacity="0.12"/>
<path d="M8.70047 15.0396H10.4156C10.4548 15.0396 10.4962 15.0539 10.5325 15.0838L13.1855 17.4672C13.541 17.7759 13.801 17.9178 14.1479 17.9178C14.4675 17.9178 14.733 17.7625 14.8926 17.4846L13.8107 16.4083L11.1286 13.9769C11.0067 13.8628 10.9299 13.8415 10.7646 13.8415H8.81886C8.62975 13.8415 8.53488 13.7451 8.53488 13.5573V11.1217L7.55556 10.143C7.35625 10.3846 7.24664 10.7389 7.24664 11.205V13.5125C7.24664 14.5314 7.74092 15.0396 8.70047 15.0396ZM14.9974 13.7417L14.9988 7.67345C14.9988 7.1896 14.6314 6.79332 14.1351 6.79332C13.7938 6.79332 13.5667 6.9388 13.1827 7.28251L10.7226 9.45413L11.5804 10.3176L13.5495 8.53837C13.573 8.51483 13.6044 8.50054 13.6357 8.50054C13.6842 8.50054 13.717 8.53334 13.717 8.58326V12.4574L14.9974 13.7417ZM17.0769 18.5076C17.29 18.7194 17.6378 18.7208 17.8431 18.5076C18.0484 18.2943 18.0562 17.954 17.8431 17.7407L6.93443 6.82455C6.72131 6.6177 6.36706 6.61127 6.15395 6.82455C5.94868 7.02998 5.94868 7.39237 6.15395 7.5978L17.0769 18.5076Z" fill="white"/>
</svg>
