<svg width="24" height="24" viewBox="0 0 24 24" fill="none" xmlns="http://www.w3.org/2000/svg">
<g id="arrow_r">
<path id="shape" d="M19.3828 12.3516C19.3828 12.1172 19.2812 11.8828 19.1016 11.7188L13.9609 6.57812C13.7656 6.38281 13.5547 6.30469 13.3359 6.30469C12.8516 6.30469 12.5 6.64844 12.5 7.11719C12.5 7.35938 12.5938 7.57031 12.75 7.72656L14.5 9.5L16.7969 11.6094L14.9844 11.5H5.48438C4.96875 11.5 4.61719 11.8438 4.61719 12.3516C4.61719 12.8516 4.96875 13.2031 5.48438 13.2031H14.9844L16.8047 13.0938L14.5 15.2031L12.75 16.9766C12.5938 17.125 12.5 17.3359 12.5 17.5781C12.5 18.0469 12.8516 18.3984 13.3359 18.3984C13.5547 18.3984 13.7578 18.3125 13.9453 18.1328L19.1016 12.9844C19.2812 12.8125 19.3828 12.5859 19.3828 12.3516Z" fill="#0000FF"/>
</g>
</svg>
