<?xml version="1.0" standalone="no"?>
  <!DOCTYPE svg PUBLIC "-//W3C//DTD SVG 1.1//EN" "http://www.w3.org/Graphics/SVG/1.1/DTD/svg11.dtd" >
  <svg>
  <metadata>
  Created by font-carrier
  </metadata>
  <defs>
  <font id="DrukWideCyr-Super" horiz-adv-x="2952" vert-adv-y="2952" >
    <font-face
      
      font-family="Druk Wide Cyr"
      
      font-weight="400"
      
      font-stretch="normal"
      
      units-per-em="1000"
      
      ascent="1018"
      
      descent="-196"
      
    />
      <missing-glyph />

      

      
      <glyph glyph-name="uni21" unicode="&#x21;" d="M1 744L135 266L362 266L496 744ZM428 232L69 232L69 0L428 0Z"  horiz-adv-x="497" vert-adv-y="1000"  />

      
      <glyph glyph-name="uni22" unicode="&#x22;" d="M624 744L342 744L342 453L624 453ZM308 744L26 744L26 454L308 454Z"  horiz-adv-x="650" vert-adv-y="1000"  />

      
      <glyph glyph-name="uni23" unicode="&#x23;" d="M521 329L386 329L421 451L556 451ZM427 0L636 0L688 181L820 181L863 329L731 329L766 451L898 451L941 599L809 599L851 744L640 744L598 599L463 599L505 744L294 744L253 599L122 599L80 451L211 451L176 329L45 329L3 181L134 181L83 0L292 0L344 181L479 181Z"  horiz-adv-x="944" vert-adv-y="1000"  />

      
      <glyph glyph-name="uni24" unicode="&#x24;" d="M407 538C407 562 419 576 499 581L499 491C424 499 407 513 407 536ZM694 228C694 205 681 180 605 175L605 282C687 274 694 255 694 232ZM605-75L605-13C1035-10 1114 112 1114 245L1114 259C1114 402 1013 473 733 481L605 485L605 579C680 568 690 540 693 516L1086 516L1086 523C1086 648 994 750 605 753L605 810L499 810L499 753C128 753 16 669 16 531L16 522C16 408 80 304 371 293L499 288L499 176C416 187 410 223 407 255L4 255L4 245C4 151 45-13 499-13L499-75Z"  horiz-adv-x="1121" vert-adv-y="1000"  />

      
      <glyph glyph-name="uni25" unicode="&#x25;" d="M358 322C638 322 683 448 683 533L683 546C683 631 637 751 356 751L340 751C59 751 13 631 13 546L13 533C13 448 58 322 338 322ZM1060 744L218 0L465 0L1308 744ZM348 470C289 470 267 502 267 537L267 540C267 575 289 606 348 606C407 606 429 575 429 540L429 537C429 502 407 470 348 470ZM1190-8C1470-8 1515 118 1515 203L1515 216C1515 301 1469 421 1188 421L1172 421C891 421 845 301 845 216L845 203C845 118 890-8 1170-8ZM1180 140C1121 140 1099 172 1099 207L1099 210C1099 245 1121 276 1180 276C1239 276 1261 245 1261 210L1261 207C1261 172 1239 140 1180 140Z"  horiz-adv-x="1528" vert-adv-y="1000"  />

      
      <glyph glyph-name="uni26" unicode="&#x26;" d="M491 578C491 602 513 620 577 620C644 620 670 598 670 567C670 528 635 506 575 485C511 530 491 549 491 578ZM558 152C419 152 376 207 376 262L376 265C376 288 383 304 390 315L629 155C608 153 584 152 558 152ZM1242 205C1181 205 1130 205 1085 209C1149 272 1195 348 1195 451L901 451C901 410 894 351 862 295L681 414C889 451 961 510 961 594L961 599C961 674 893 759 613 759L553 759C256 759 169 672 169 579L169 571C169 511 193 459 273 395C97 367 5 304 5 199L5 191C5 79 136-15 485-15C673-15 772 15 828 36C914-1 1012-14 1156-11Z"  horiz-adv-x="1237" vert-adv-y="1000"  />

      
      <glyph glyph-name="uni27" unicode="&#x27;" d="M309 744L26 744L26 453L309 453Z"  horiz-adv-x="335" vert-adv-y="1000"  />

      
      <glyph glyph-name="uni28" unicode="&#x28;" d="M12 345C12 147 112-11 261-131L422-131C344 0 280 149 280 345C280 538 341 688 422 808L261 808C109 693 12 537 12 345Z"  horiz-adv-x="409" vert-adv-y="1000"  />

      
      <glyph glyph-name="uni29" unicode="&#x29;" d="M148-131C297-11 397 147 397 345C397 537 300 693 148 808L-13 808C68 688 129 538 129 345C129 149 65 0-13-131Z"  horiz-adv-x="409" vert-adv-y="1000"  />

      
      <glyph glyph-name="uni2a" unicode="&#x2a;" d="M320 629L352 744L155 744L188 629L88 718L5 560L152 532L5 502L88 343L192 423L155 308L352 308L317 423L419 343L501 502L355 532L501 560L419 718Z"  horiz-adv-x="506" vert-adv-y="1000"  />

      
      <glyph glyph-name="uni2b" unicode="&#x2b;" d="M618 222L618 396L422 396L422 571L209 571L209 396L14 396L14 222L209 222L209 46L422 46L422 222Z"  horiz-adv-x="632" vert-adv-y="1000"  />

      
      <glyph glyph-name="uni2c" unicode="&#x2c;" d="M305-135C336-98 383-19 383 46L383 232L24 232L24 0L170 0C167-40 140-101 119-135Z"  horiz-adv-x="407" vert-adv-y="1000"  />

      
      <glyph glyph-name="uni2d" unicode="&#x2d;" d="M24 404L24 190L371 190L371 404Z"  horiz-adv-x="395" vert-adv-y="1000"  />

      
      <glyph glyph-name="uni2e" unicode="&#x2e;" d="M383 232L24 232L24 0L383 0Z"  horiz-adv-x="407" vert-adv-y="1000"  />

      
      <glyph glyph-name="uni2f" unicode="&#x2f;" d="M547 808L283 808L-39-131L223-131Z"  horiz-adv-x="531" vert-adv-y="1000"  />

      
      <glyph glyph-name="uni30" unicode="&#x30;" d="M1185 387C1185 533 1115 759 624 759L577 759C85 759 15 533 15 387L15 357C15 212 85-15 577-15L624-15C1115-15 1185 212 1185 357ZM794 370C794 306 751 224 600 224C450 224 406 306 406 370L406 382C406 446 448 523 600 523C750 523 794 446 794 382Z"  horiz-adv-x="1200" vert-adv-y="1000"  />

      
      <glyph glyph-name="uni31" unicode="&#x31;" d="M208 399L208 0L588 0L588 744L277 744C238 644 156 587 15 583L15 399Z"  horiz-adv-x="620" vert-adv-y="1000"  />

      
      <glyph glyph-name="uni32" unicode="&#x32;" d="M1066 0L1066 281L736 281L736 208L340 208C340 234 381 249 544 276C567 279 588 284 619 288C933 333 1057 374 1057 516L1057 524C1057 654 982 759 557 759L509 759C67 759 26 591 26 482L26 477L407 477C407 496 405 561 544 561C642 561 660 544 660 524L660 523C660 505 649 497 569 481C541 476 512 470 482 463C14 363 16 174 16 92L16 0Z"  horiz-adv-x="1087" vert-adv-y="1000"  />

      
      <glyph glyph-name="uni33" unicode="&#x33;" d="M579-15C1054-15 1129 136 1129 250L1129 256C1129 374 1036 425 940 438C1025 451 1096 493 1096 563L1096 567C1096 654 1057 759 573 759L526 759C61 759 12 590 12 501L12 490L394 490C394 502 401 555 552 555C697 555 706 536 706 512L706 511C706 492 688 479 645 479L421 479L421 291L644 291C692 291 713 279 713 252L713 250C713 223 688 200 551 200C397 200 390 265 390 280L4 280L4 271C4 167 63-15 528-15Z"  horiz-adv-x="1136" vert-adv-y="1000"  />

      
      <glyph glyph-name="uni34" unicode="&#x34;" d="M12 319L12 119L570 119L570 0L953 0L953 119L1117 119L1117 348L953 348L953 749L526 749ZM570 348L333 348L570 546Z"  horiz-adv-x="1128" vert-adv-y="1000"  />

      
      <glyph glyph-name="uni35" unicode="&#x35;" d="M569-15C987-15 1058 136 1058 264L1058 270C1058 400 990 511 681 511L673 511C507 511 433 464 414 451L414 549L1006 549L1006 744L32 744L32 280L410 280C412 287 427 336 544 336C635 336 666 303 666 266L666 264C666 224 635 192 544 192C425 192 413 236 410 244L21 244L21 238C21 164 28-15 519-15Z"  horiz-adv-x="1069" vert-adv-y="1000"  />

      
      <glyph glyph-name="uni36" unicode="&#x36;" d="M588-15C1071-15 1127 134 1127 257L1127 266C1127 397 1036 483 727 483L715 483C506 483 427 429 408 416L408 423C408 483 448 560 587 560C679 560 704 522 712 511L1092 511L1092 516C1092 610 1017 759 596 759L549 759C55 759 15 506 15 384L15 360C15 233 61-15 541-15ZM426 248C426 280 453 307 582 307C708 307 735 280 735 248L735 247C735 212 708 187 582 187C453 187 426 212 426 247Z"  horiz-adv-x="1136" vert-adv-y="1000"  />

      
      <glyph glyph-name="uni37" unicode="&#x37;" d="M744 0C744 122 773 220 866 353C935 450 1001 523 1032 559L1032 744L23 744L23 396L374 396L374 523L703 523C703 504 583 424 494 351C355 236 329 164 329 78L329 0Z"  horiz-adv-x="1049" vert-adv-y="1000"  />

      
      <glyph glyph-name="uni38" unicode="&#x38;" d="M1093 561C1093 652 1048 759 581 759L538 759C72 759 23 652 23 561L23 555C23 471 96 413 216 394C93 375 7 315 7 221L7 214C7 110 51-15 538-15L579-15C1064-15 1110 110 1110 214L1110 221C1110 313 1028 375 901 394C1022 413 1093 471 1093 555ZM696 523C696 496 673 479 558 479C441 479 421 496 421 523L421 526C421 551 437 568 558 568C675 568 696 551 696 526ZM716 241C716 213 683 190 558 190C434 190 402 213 402 241L402 244C402 272 432 293 558 293C683 293 716 272 716 244Z"  horiz-adv-x="1117" vert-adv-y="1000"  />

      
      <glyph glyph-name="uni39" unicode="&#x39;" d="M711 496C711 464 684 437 555 437C432 437 402 464 402 496L402 497C402 532 432 557 555 557C684 557 711 532 711 497ZM590-15C1087-15 1122 249 1122 372L1122 396C1122 520 1074 759 577 759L529 759C86 759 9 634 9 507L9 498C9 358 120 260 421 260L433 260C636 260 710 314 729 328L729 323C729 264 691 184 552 184C456 184 428 221 421 233L45 233L45 228C45 136 117-15 543-15Z"  horiz-adv-x="1137" vert-adv-y="1000"  />

      
      <glyph glyph-name="uni3a" unicode="&#x3a;" d="M384 515L25 515L25 283L384 283ZM384 232L25 232L25 0L384 0Z"  horiz-adv-x="409" vert-adv-y="1000"  />

      
      <glyph glyph-name="uni3b" unicode="&#x3b;" d="M384 515L25 515L25 283L384 283ZM306-135C337-98 384-19 384 46L384 232L25 232L25 0L171 0C168-40 141-101 120-135Z"  horiz-adv-x="409" vert-adv-y="1000"  />

      
      <glyph glyph-name="uni3c" unicode="&#x3c;" d="M538 53L538 234L217 302L538 372L538 553L14 400L14 207Z"  horiz-adv-x="553" vert-adv-y="1000"  />

      
      <glyph glyph-name="uni3d" unicode="&#x3d;" d="M16 489L16 326L579 326L579 489ZM16 292L16 129L579 129L579 292Z"  horiz-adv-x="595" vert-adv-y="1000"  />

      
      <glyph glyph-name="uni3e" unicode="&#x3e;" d="M15 53L519 207L519 400L15 553L15 372L324 302L15 234Z"  horiz-adv-x="533" vert-adv-y="1000"  />

      
      <glyph glyph-name="uni3f" unicode="&#x3f;" d="M641 265L641 266C641 289 653 298 689 306L824 333C972 363 1009 449 1009 526L1009 535C1009 642 953 757 536 757L488 757C16 757 5 592 5 504L5 492L370 492C373 526 379 563 522 563C626 563 638 552 638 533L638 532C638 515 618 505 562 494L429 468C287 438 284 386 284 315L284 265ZM643 232L284 232L284 0L643 0Z"  horiz-adv-x="1014" vert-adv-y="1000"  />

      
      <glyph glyph-name="uni40" unicode="&#x40;" d="M672-149C1089-149 1203-80 1252-53L1206 41C1145 9 1031-54 672-54C196-54 150 145 150 291L150 302C150 462 203 642 675 642L691 642C1193 642 1196 483 1196 354L1196 352C1196 213 1145 144 1084 144C1060 144 1057 157 1060 176L1106 538L754 538L746 465C714 495 647 542 507 542L493 542C296 542 262 423 251 355L241 287C225 188 253 38 483 38L496 38C640 38 708 94 735 115C750 89 788 38 961 38L979 38C1264 38 1325 205 1325 344L1325 355C1325 506 1299 738 691 738L675 738C71 738 16 490 16 303L16 291C16 94 84-149 672-149ZM720 276C715 240 707 190 650 190C603 190 595 234 603 279L610 317C615 355 626 393 670 393C719 393 731 363 724 311Z"  horiz-adv-x="1341" vert-adv-y="1000"  />

      
      <glyph glyph-name="uni41" unicode="&#x41;" d="M683 309L503 309L592 515ZM819 0L1243 0L870 744L336 744L-15 0L369 0L408 89L780 89Z"  horiz-adv-x="1228" vert-adv-y="1000"  />

      
      <glyph glyph-name="uni42" unicode="&#x42;" d="M31 0L850 0C1095 0 1176 101 1176 218L1176 226C1176 358 1080 407 984 423C1059 439 1132 487 1132 571L1132 577C1132 660 1076 744 850 744L31 744ZM677 551C724 551 744 545 744 517L744 515C744 488 724 479 677 479L411 479L411 551ZM692 292C757 292 772 277 772 249L772 247C772 219 757 200 692 200L411 200L411 292Z"  horiz-adv-x="1180" vert-adv-y="1000"  />

      
      <glyph glyph-name="uni43" unicode="&#x43;" d="M629-15C1122-15 1185 196 1185 300L1185 326L800 326C797 308 781 224 606 224C439 224 406 307 406 371L406 383C406 448 436 522 606 522C779 522 795 444 800 428L1185 428L1185 443C1185 553 1122 759 629 759L594 759C82 759 15 545 15 389L15 359C15 204 86-15 594-15Z"  horiz-adv-x="1198" vert-adv-y="1000"  />

      
      <glyph glyph-name="uni44" unicode="&#x44;" d="M31 0L627 0C1084 0 1185 176 1185 361L1185 392C1185 584 1052 744 627 744L31 744ZM411 513L563 513C775 513 792 422 792 378L792 372C792 328 778 230 563 230L411 230Z"  horiz-adv-x="1199" vert-adv-y="1000"  />

      
      <glyph glyph-name="uni45" unicode="&#x45;" d="M31 744L31 0L932 0L932 210L405 210L405 274L922 274L922 478L405 478L405 536L928 536L928 744Z"  horiz-adv-x="955" vert-adv-y="1000"  />

      
      <glyph glyph-name="uni46" unicode="&#x46;" d="M31 744L31 0L405 0L405 269L903 269L903 476L405 476L405 536L911 536L911 744Z"  horiz-adv-x="934" vert-adv-y="1000"  />

      
      <glyph glyph-name="uni47" unicode="&#x47;" d="M556-15C789-15 877 56 901 78C920 59 939 21 946 0L1201 0L1201 423L597 423L597 271L798 271C798 251 758 205 610 205C462 205 406 279 406 372L406 381C406 471 465 534 613 534C778 534 803 482 808 463L1196 463L1196 464C1196 572 1146 759 619 759L587 759C129 759 15 579 15 390L15 360C15 189 114-15 530-15Z"  horiz-adv-x="1231" vert-adv-y="1000"  />

      
      <glyph glyph-name="uni48" unicode="&#x48;" d="M31 0L411 0L411 265L809 265L809 0L1189 0L1189 744L809 744L809 497L411 497L411 744L31 744Z"  horiz-adv-x="1220" vert-adv-y="1000"  />

      
      <glyph glyph-name="uni49" unicode="&#x49;" d="M410 744L31 744L31 0L410 0Z"  horiz-adv-x="441" vert-adv-y="1000"  />

      
      <glyph glyph-name="uni4a" unicode="&#x4a;" d="M529-11C989-11 1020 229 1020 385L1020 744L639 744L639 390C639 327 619 256 503 256L501 256C374 256 370 333 367 356L7 356L7 349C7 244 20-11 456-11Z"  horiz-adv-x="1047" vert-adv-y="1000"  />

      
      <glyph glyph-name="uni4b" unicode="&#x4b;" d="M411 0L411 297L717 0L1213 0L769 410L1211 744L749 744L411 480L411 744L31 744L31 0Z"  horiz-adv-x="1196" vert-adv-y="1000"  />

      
      <glyph glyph-name="uni4c" unicode="&#x4c;" d="M31 744L31 0L927 0L927 265L411 265L411 744Z"  horiz-adv-x="948" vert-adv-y="1000"  />

      
      <glyph glyph-name="uni4d" unicode="&#x4d;" d="M31 0L408 0L408 368L607 0L788 0L988 368L988 0L1366 0L1366 744L889 744L707 413L532 744L31 744Z"  horiz-adv-x="1397" vert-adv-y="1000"  />

      
      <glyph glyph-name="uni4e" unicode="&#x4e;" d="M31 744L31 0L411 0L411 372L803 0L1190 0L1190 744L810 744L810 406L460 744Z"  horiz-adv-x="1221" vert-adv-y="1000"  />

      
      <glyph glyph-name="uni4f" unicode="&#x4f;" d="M594 759C91 759 15 545 15 389L15 359C15 206 93-15 594-15L644-15C1146-15 1223 206 1223 359L1223 389C1223 545 1147 759 644 759ZM831 369C831 301 780 224 618 224C458 224 406 304 406 371L406 383C406 448 453 522 618 522C781 522 831 448 831 383Z"  horiz-adv-x="1238" vert-adv-y="1000"  />

      
      <glyph glyph-name="uni50" unicode="&#x50;" d="M770 203C1054 203 1135 324 1135 464L1135 490C1135 630 1058 744 770 744L31 744L31 0L411 0L411 203ZM411 526L677 526C729 526 744 505 744 478L744 476C744 451 729 428 677 428L411 428Z"  horiz-adv-x="1143" vert-adv-y="1000"  />

      
      <glyph glyph-name="uni51" unicode="&#x51;" d="M477-155L956-155L805-6C1163 38 1223 223 1223 359L1223 389C1223 545 1147 759 644 759L594 759C91 759 15 545 15 389L15 359C15 219 81 21 477-11ZM831 369C831 301 780 224 618 224C458 224 406 304 406 371L406 383C406 448 453 522 618 522C781 522 831 448 831 383Z"  horiz-adv-x="1238" vert-adv-y="1000"  />

      
      <glyph glyph-name="uni52" unicode="&#x52;" d="M411 447L411 541L688 541C739 541 757 522 757 494C757 467 740 447 688 447ZM411 238L623 238C730 238 767 189 767 113L767 23C767 12 767 5 772 0L1163 0L1163 6C1155 21 1150 38 1150 75L1150 188C1150 285 1093 352 974 375C1042 389 1146 436 1146 547L1146 556C1146 704 1013 744 853 744L31 744L31 0L411 0Z"  horiz-adv-x="1170" vert-adv-y="1000"  />

      
      <glyph glyph-name="uni53" unicode="&#x53;" d="M627-15C1050-15 1135 113 1135 245L1135 259C1135 410 1033 480 743 488L593 492C478 495 449 510 449 537L449 539C449 564 466 578 557 578C656 578 668 542 671 518L1107 518L1107 523C1107 651 1014 757 615 757L488 757C128 757 16 671 16 531L16 522C16 405 80 297 386 286L543 281C671 276 681 253 681 228L681 225C681 198 655 173 567 173C463 173 449 221 449 253L4 253L4 245C4 149 45-15 496-15Z"  horiz-adv-x="1142" vert-adv-y="1000"  />

      
      <glyph glyph-name="uni54" unicode="&#x54;" d="M341 0L721 0L721 488L1042 488L1042 744L20 744L20 488L341 488Z"  horiz-adv-x="1062" vert-adv-y="1000"  />

      
      <glyph glyph-name="uni55" unicode="&#x55;" d="M24 399C24 250 79-13 575-13L625-13C1121-13 1178 250 1178 399L1178 744L796 744L796 438C796 355 758 267 602 267L600 267C441 267 406 355 406 438L406 744L24 744Z"  horiz-adv-x="1202" vert-adv-y="1000"  />

      
      <glyph glyph-name="uni56" unicode="&#x56;" d="M883 0L1210 744L816 744L622 285L417 744L-14 744L340 0Z"  horiz-adv-x="1196" vert-adv-y="1000"  />

      
      <glyph glyph-name="uni57" unicode="&#x57;" d="M762 0L876 413L987 0L1496 0L1763 744L1353 744L1235 297L1120 744L665 744L548 305L423 744L-13 744L247 0Z"  horiz-adv-x="1750" vert-adv-y="1000"  />

      
      <glyph glyph-name="uni58" unicode="&#x58;" d="M433 0L603 232L772 0L1229 0L945 392L1198 744L766 744L615 523L464 744L4 744L273 393L-14 0Z"  horiz-adv-x="1215" vert-adv-y="1000"  />

      
      <glyph glyph-name="uni59" unicode="&#x59;" d="M408 0L788 0L788 259L1209 744L806 744L612 520L421 744L-17 744L408 264Z"  horiz-adv-x="1192" vert-adv-y="1000"  />

      
      <glyph glyph-name="uni5a" unicode="&#x5a;" d="M22 744L22 503L450 503L19 181L19 0L1014 0L1014 254L568 254L1011 565L1011 744Z"  horiz-adv-x="1033" vert-adv-y="1000"  />

      
      <glyph glyph-name="uni5b" unicode="&#x5b;" d="M30-131L407-131L407 2L286 2L286 675L407 675L407 808L30 808Z"  horiz-adv-x="420" vert-adv-y="1000"  />

      
      <glyph glyph-name="uni5c" unicode="&#x5c;" d="M310-131L570-131L250 808L-14 808Z"  horiz-adv-x="531" vert-adv-y="1000"  />

      
      <glyph glyph-name="uni5d" unicode="&#x5d;" d="M13-131L390-131L390 808L13 808L13 675L134 675L134 2L13 2Z"  horiz-adv-x="420" vert-adv-y="1000"  />

      
      <glyph glyph-name="uni5e" unicode="&#x5e;" d="M492 417L805 417L571 744L233 744L0 417L294 417L395 563Z"  horiz-adv-x="805" vert-adv-y="1000"  />

      
      <glyph glyph-name="uni5f" unicode="&#x5f;" d="M-2-184L900-184L900-21L-2-21Z"  horiz-adv-x="898" vert-adv-y="1000"  />

      
      <glyph glyph-name="uni60" unicode="&#x60;" d="M566 569L481 744L139 744L258 569Z"  horiz-adv-x="706" vert-adv-y="1000"  />

      
      <glyph glyph-name="uni61" unicode="&#x61;" d="M519 215C519 172 487 137 424 137C377 137 364 162 364 181L364 182C364 203 378 213 403 220L519 251ZM522 68C529 28 557 0 613 0L926 0L926 177L895 177C886 177 881 183 881 194L881 378C881 441 855 551 471 551L414 551C49 551 24 447 24 373L24 361L362 361C362 374 366 405 444 405L446 405C507 405 520 388 520 371L520 370C520 359 516 351 496 348L213 325C53 312 11 253 11 178L11 158C11 75 77-10 257-10L263-10C416-10 494 43 522 68Z"  horiz-adv-x="933" vert-adv-y="1000"  />

      
      <glyph glyph-name="uni62" unicode="&#x62;" d="M27 744L27 0L370 0C373 19 378 47 382 62C409 46 483-4 622-4L649-4C903-4 968 135 968 260L968 285C968 406 909 542 665 542L639 542C488 542 407 484 391 468L391 744ZM391 271C391 324 423 376 496 376L502 376C577 376 600 323 600 271L600 267C600 215 576 162 501 162L496 162C426 162 391 214 391 267Z"  horiz-adv-x="978" vert-adv-y="1000"  />

      
      <glyph glyph-name="uni63" unicode="&#x63;" d="M520-15C932-15 949 176 949 244L949 247L580 247C580 229 567 155 485 155L480 155C394 155 382 223 382 276L382 277C382 326 394 386 480 386L485 386C567 386 580 319 580 301L949 301L949 304C949 380 922 553 521 553L449 553C29 553 13 375 13 279L13 265C13 168 30-15 450-15Z"  horiz-adv-x="959" vert-adv-y="1000"  />

      
      <glyph glyph-name="uni64" unicode="&#x64;" d="M586 271C586 223 562 167 481 167L477 167C401 167 382 225 382 272L382 277C382 319 401 375 478 375L482 375C562 375 586 319 586 279ZM586 744L586 479C563 495 492 542 333 542L308 542C88 542 14 407 14 284L14 259C14 130 91-4 314-4L339-4C499-4 562 49 586 71L586 0L950 0L950 744Z"  horiz-adv-x="977" vert-adv-y="1000"  />

      
      <glyph glyph-name="uni65" unicode="&#x65;" d="M373 347C378 378 396 407 481 407C561 407 584 380 589 347ZM949 206L590 206C587 195 578 151 483 151C396 151 375 199 372 239L949 239L949 253C949 378 920 553 499 553L455 553C43 553 13 381 13 281L13 267C13 167 41-15 454-15L499-15C907-15 949 126 949 204Z"  horiz-adv-x="960" vert-adv-y="1000"  />

      
      <glyph glyph-name="uni66" unicode="&#x66;" d="M594 744L339 744C187 744 123 689 123 570L123 538L11 538L11 340L123 340L123 0L488 0L488 340L594 340L594 538L488 538L488 549C488 569 492 578 515 578L594 578Z"  horiz-adv-x="610" vert-adv-y="1000"  />

      
      <glyph glyph-name="uni67" unicode="&#x67;" d="M487 367C566 367 600 324 600 281L600 278C600 231 566 184 487 184L482 184C406 184 379 232 379 278L379 281C379 324 406 367 482 367ZM534-196C883-196 964-55 964 74L964 538L600 538L600 476C571 495 510 541 341 541L317 541C83 541 14 408 14 288L14 276C14 157 78 20 315 20L338 20C517 20 576 76 600 100L600 68C600 0 560-34 492-34L489-34C425-34 413-12 411 0L47 0L47-4C47-83 113-196 445-196Z"  horiz-adv-x="991" vert-adv-y="1000"  />

      
      <glyph glyph-name="uni68" unicode="&#x68;" d="M27 0L391 0L391 242C391 294 418 344 494 344C577 344 597 293 597 241L597 0L961 0L961 356C961 410 922 550 694 550L689 550C507 550 414 460 391 437L391 744L27 744Z"  horiz-adv-x="988" vert-adv-y="1000"  />

      
      <glyph glyph-name="uni69" unicode="&#x69;" d="M391 744L27 744L27 569L391 569ZM391 538L27 538L27 0L391 0Z"  horiz-adv-x="418" vert-adv-y="1000"  />

      
      <glyph glyph-name="uni6a" unicode="&#x6a;" d="M391 744L27 744L27 569L391 569ZM-33-20L-33-188L260-188C327-188 391-154 391-24L391 538L27 538L27 15C27-16 22-20-6-20Z"  horiz-adv-x="418" vert-adv-y="1000"  />

      
      <glyph glyph-name="uni6b" unicode="&#x6b;" d="M391 0L391 229L526 0L926 0L741 314L892 538L510 538L391 343L391 744L27 744L27 0Z"  horiz-adv-x="915" vert-adv-y="1000"  />

      
      <glyph glyph-name="uni6c" unicode="&#x6c;" d="M391 744L27 744L27 0L391 0Z"  horiz-adv-x="418" vert-adv-y="1000"  />

      
      <glyph glyph-name="uni6d" unicode="&#x6d;" d="M391 0L391 245C391 296 417 344 482 344C553 344 571 296 571 244L571 0L935 0L935 245C935 296 959 344 1025 344C1096 344 1114 296 1114 244L1114 0L1478 0L1478 356C1478 408 1442 550 1225 550L1222 550C1060 550 960 473 917 430C890 487 825 550 681 550L677 550C502 550 418 462 391 437L391 538L27 538L27 0Z"  horiz-adv-x="1505" vert-adv-y="1000"  />

      
      <glyph glyph-name="uni6e" unicode="&#x6e;" d="M27 0L391 0L391 242C391 294 418 344 494 344C577 344 597 293 597 241L597 0L961 0L961 356C961 410 922 550 694 550L689 550C507 550 414 460 391 437L391 538L27 538Z"  horiz-adv-x="988" vert-adv-y="1000"  />

      
      <glyph glyph-name="uni6f" unicode="&#x6f;" d="M543-15C960-15 992 168 992 264L992 280C992 375 963 553 545 553L461 553C53 553 13 375 13 279L13 265C13 168 52-15 462-15ZM501 154C401 154 382 227 382 276C382 319 403 385 501 385L504 385C604 385 623 319 623 276C623 228 602 154 504 154Z"  horiz-adv-x="1005" vert-adv-y="1000"  />

      
      <glyph glyph-name="uni70" unicode="&#x70;" d="M391 270C391 320 418 375 498 375L504 375C578 375 599 316 599 269L599 265C599 221 578 161 504 161L498 161C418 161 391 222 391 266ZM27 538L27-188L391-188L391 47C410 36 490-4 624-4L650-4C905-4 968 147 968 268L968 293C968 402 914 542 661 542L634 542C488 542 409 482 391 467L391 538Z"  horiz-adv-x="982" vert-adv-y="1000"  />

      
      <glyph glyph-name="uni71" unicode="&#x71;" d="M608 538C608 521 597 478 592 467C568 486 495 541 332 541L305 541C81 541 14 402 14 285L14 260C14 144 78-3 305-3L332-3C477-3 553 48 585 72L585-188L950-188L950 538ZM585 271C585 223 561 167 480 167L475 167C403 167 382 225 382 272L382 277C382 322 402 375 476 375L481 375C561 375 585 322 585 279Z"  horiz-adv-x="976" vert-adv-y="1000"  />

      
      <glyph glyph-name="uni72" unicode="&#x72;" d="M391 257C391 322 418 348 461 348C508 348 525 315 525 272L525 218L883 218L883 317C883 387 861 550 641 550L629 550C494 550 416 464 389 432L389 538L27 538L27 0L391 0Z"  horiz-adv-x="896" vert-adv-y="1000"  />

      
      <glyph glyph-name="uni73" unicode="&#x73;" d="M470-15C819-15 873 72 873 169L873 178C873 285 825 343 594 354L447 360C385 363 372 377 372 393C372 412 381 422 432 422L434 422C490 422 494 395 494 382L851 382L851 391C851 479 787 553 468 553L390 553C89 553 13 489 13 389L13 382C13 298 58 222 269 211L416 205C476 202 490 191 490 168L490 167C490 148 476 132 433 132L431 132C384 132 372 160 371 184L4 184L4 176C4 104 46-15 389-15Z"  horiz-adv-x="881" vert-adv-y="1000"  />

      
      <glyph glyph-name="uni74" unicode="&#x74;" d="M572 0L572 202L522 202C481 202 475 211 475 251L475 340L572 340L572 538L475 538L475 695L111 695L111 538L11 538L11 340L111 340L111 154C111 34 187 0 271 0Z"  horiz-adv-x="590" vert-adv-y="1000"  />

      
      <glyph glyph-name="uni75" unicode="&#x75;" d="M954 538L590 538L590 296C590 248 565 194 490 194C407 194 391 249 391 297L391 538L27 538L27 188C27 129 62-12 289-12L295-12C478-12 566 74 590 101L590 0L954 0Z"  horiz-adv-x="981" vert-adv-y="1000"  />

      
      <glyph glyph-name="uni76" unicode="&#x76;" d="M209 0L741 0L950 538L568 538L477 216L378 538L-11 538Z"  horiz-adv-x="939" vert-adv-y="1000"  />

      
      <glyph glyph-name="uni77" unicode="&#x77;" d="M633 0L695 258L757 0L1192 0L1376 538L1016 538L945 220L878 538L511 538L442 217L369 538L-10 538L182 0Z"  horiz-adv-x="1366" vert-adv-y="1000"  />

      
      <glyph glyph-name="uni78" unicode="&#x78;" d="M381 0L476 162L567 0L968 0L773 288L947 538L555 538L477 394L386 538L-11 538L177 284L-7 0Z"  horiz-adv-x="957" vert-adv-y="1000"  />

      
      <glyph glyph-name="uni79" unicode="&#x79;" d="M118-188L482-188C582-188 652-133 707 3L922 538L564 538L480 233L375 538L-11 538L238 57C249 34 257 20 257 8L257 7C257-2 252-11 233-11L118-11Z"  horiz-adv-x="911" vert-adv-y="1000"  />

      
      <glyph glyph-name="uni7a" unicode="&#x7a;" d="M788 0L788 196L460 196L788 361L788 538L17 538L17 353L354 353L18 177L18 0Z"  horiz-adv-x="806" vert-adv-y="1000"  />

      
      <glyph glyph-name="uni7b" unicode="&#x7b;" d="M434-131L434 2L343 2C307 2 289 15 289 42C289 77 355 188 355 252C355 299 323 327 231 342C323 358 355 389 355 445C355 504 289 608 289 645C289 668 304 675 335 675L434 675L434 808L221 808C92 808 35 766 35 687C35 606 122 490 122 435C122 416 112 405 81 405L5 405L5 277L81 277C108 277 122 264 122 239C122 188 35 65 35-17C35-97 101-131 221-131Z"  horiz-adv-x="447" vert-adv-y="1000"  />

      
      <glyph glyph-name="uni7c" unicode="&#x7c;" d="M294 808L57 808L57-131L294-131Z"  horiz-adv-x="351" vert-adv-y="1000"  />

      
      <glyph glyph-name="uni7d" unicode="&#x7d;" d="M13-131L226-131C347-131 410-97 410-17C410 65 325 188 325 239C325 266 335 277 366 277L442 277L442 405L366 405C335 405 325 416 325 435C325 490 410 606 410 687C410 766 355 808 226 808L13 808L13 675L111 675C142 675 157 668 157 645C157 608 92 504 92 445C92 389 123 358 215 342C123 327 92 299 92 252C92 188 157 77 157 42C157 15 139 2 104 2L13 2Z"  horiz-adv-x="447" vert-adv-y="1000"  />

      
      <glyph glyph-name="uni7e" unicode="&#x7e;" d="M538 214C676 214 722 302 722 377L722 585L479 585L479 503C479 483 476 474 461 474C448 474 432 485 393 509C331 547 283 570 196 570C56 570 15 466 15 386L15 203L257 203L257 293C257 308 262 316 273 316C288 316 303 303 342 279C401 242 451 214 538 214Z"  horiz-adv-x="737" vert-adv-y="1000"  />

      
      <glyph glyph-name="unia1" unicode="&#xa1;" d="M460-206L326 272L98 272L-36-206ZM32 306L392 306L392 538L32 538Z"  horiz-adv-x="436" vert-adv-y="1000"  />

      
      <glyph glyph-name="unia2" unicode="&#xa2;" d="M382 277C382 318 390 365 444 381L444 160C390 179 382 231 382 276ZM549-77L549-15C958-11 974 178 974 244L974 247L605 247C605 231 597 183 549 162L549 380C597 361 605 317 605 301L974 301L974 304C974 378 948 549 549 553L549 613L444 613L444 553C29 549 13 372 13 279L13 265C13 170 29-11 444-15L444-77Z"  horiz-adv-x="984" vert-adv-y="1000"  />

      
      <glyph glyph-name="unia3" unicode="&#xa3;" d="M1041 266L650 266L650 181L408 181C456 202 500 233 500 294L500 308L847 308L847 434L487 434C486 449 485 462 485 473C485 525 502 555 571 555C651 555 654 505 657 474L1023 474L1023 485C1023 613 979 753 585 753L545 753C174 753 125 629 125 528L125 521C125 494 130 465 137 434L13 434L13 308L168 308C173 283 176 262 176 243L176 241C176 198 143 181 82 181L13 181L13 0L1041 0Z"  horiz-adv-x="1059" vert-adv-y="1000"  />

      
      <glyph glyph-name="unia5" unicode="&#xa5;" d="M388 0L768 0L768 165L1008 165L1008 254L768 254L768 289L1008 289L1008 376L830 376L1162 744L777 744L591 527L409 744L-17 744L324 376L148 376L148 289L388 289L388 254L148 254L148 165L388 165Z"  horiz-adv-x="1145" vert-adv-y="1000"  />

      
      <glyph glyph-name="unia7" unicode="&#xa7;" d="M535-208C886-208 955-103 955-4L955 3C955 90 908 135 861 153C931 164 1034 205 1034 300L1034 311C1034 393 993 457 828 481L526 527C451 538 433 553 433 572L433 575C433 595 451 605 520 605L526 605C625 605 626 564 629 541L969 541L969 545C969 652 947 757 574 757L490 757C172 757 79 685 79 582L79 572C79 510 112 463 177 432C77 413 7 362 7 272L7 262C7 179 65 102 248 78L468 48C571 35 590 19 590-9L590-11C590-36 564-51 503-51C401-51 399 2 396 26L50 26L50 19C50-87 84-208 455-208ZM433 259C334 275 324 302 324 325C324 344 340 355 349 358L593 314C688 298 697 275 697 250C697 233 685 222 677 218Z"  horiz-adv-x="1041" vert-adv-y="1000"  />

      
      <glyph glyph-name="unia8" unicode="&#xa8;" d="M652 744L371 744L371 569L652 569ZM333 744L53 744L53 569L333 569Z"  horiz-adv-x="706" vert-adv-y="1000"  />

      
      <glyph glyph-name="unia9" unicode="&#xa9;" d="M615-15C1089-15 1208 167 1208 359L1208 387C1208 572 1092 759 617 759L604 759C132 759 15 575 15 387L15 359C15 169 134-15 607-15ZM168 387C168 549 265 660 604 660L617 660C958 660 1055 549 1055 387L1055 359C1055 193 958 87 617 84L604 84C263 87 168 195 168 359ZM635 147C938 147 985 265 985 337L985 353L702 353C699 343 690 304 618 304C551 304 535 340 535 377L535 381C535 414 554 446 618 446C690 446 700 413 702 403L985 403L985 415C985 485 929 600 629 600L620 600C300 600 247 487 247 393L247 359C247 266 298 147 622 147Z"  horiz-adv-x="1223" vert-adv-y="1000"  />

      
      <glyph glyph-name="uniaa" unicode="&#xaa;" d="M310 481C279 481 270 493 270 506L270 507C270 522 280 528 299 533L375 553L375 533C375 505 351 481 310 481ZM378 429C384 400 404 386 437 386L677 386L677 510L651 510C644 510 641 514 641 522L641 637C641 679 624 751 343 751L305 751C25 751 15 675 15 634L15 626L271 626C271 634 273 655 325 655L326 655C366 655 375 643 375 632L375 631C375 623 373 616 350 613L171 599C43 588 5 553 5 502L5 490C5 437 45 378 185 378L190 378C301 378 354 413 378 429Z"  horiz-adv-x="686" vert-adv-y="1000"  />

      
      <glyph glyph-name="uniab" unicode="&#xab;" d="M241 286L350 461L120 461L6 286L120 107L351 107ZM515 286L618 461L388 461L277 286L387 107L618 107Z"  horiz-adv-x="627" vert-adv-y="1000"  />

      
      <glyph glyph-name="uniae" unicode="&#xae;" d="M339 759C64 759 14 644 14 552L14 538C14 440 71 329 339 329L376 329C643 329 700 440 700 538L700 552C700 644 648 759 376 759ZM355 393C112 393 104 480 104 545C104 614 117 695 355 695L361 695C597 695 610 613 610 545C610 478 600 393 361 393ZM335 565L335 600L372 600C389 600 394 594 394 583C394 572 389 565 372 565ZM335 508L359 508C391 508 394 497 394 474L394 447C394 443 395 440 396 437L549 437L549 441C546 445 544 450 544 462L544 489C544 520 524 539 484 545C515 549 544 564 544 595L544 596C544 627 528 655 438 655L186 655L186 437L335 437Z"  horiz-adv-x="714" vert-adv-y="1000"  />

      
      <glyph glyph-name="uniaf" unicode="&#xaf;" d="M98 577L607 577L607 719L98 719Z"  horiz-adv-x="706" vert-adv-y="1000"  />

      
      <glyph glyph-name="unib0" unicode="&#xb0;" d="M234 335C360 335 457 419 457 545C457 671 360 755 234 755C108 755 11 671 11 545C11 419 108 335 234 335ZM234 472C190 472 159 502 159 545C159 588 190 618 234 618C279 618 309 588 309 545C309 502 279 472 234 472Z"  horiz-adv-x="468" vert-adv-y="1000"  />

      
      <glyph glyph-name="unib4" unicode="&#xb4;" d="M139 569L447 569L566 744L224 744Z"  horiz-adv-x="706" vert-adv-y="1000"  />

      
      <glyph glyph-name="unib6" unicode="&#xb6;" d="M345 0L523 0L523 592L616 592L616 0L794 0L794 592L868 592L868 744L280 744C61 744 6 647 6 532L6 511C6 395 78 292 282 292L345 292Z"  horiz-adv-x="875" vert-adv-y="1000"  />

      
      <glyph glyph-name="unib7" unicode="&#xb7;" d="M383 472L24 472L24 240L383 240Z"  horiz-adv-x="407" vert-adv-y="1000"  />

      
      <glyph glyph-name="unib8" unicode="&#xb8;" d="M146-262L348-262C523-262 559-214 559-153L559-151C559-91 525-46 349-46L349 0L190 0L190-124L260-124C283-124 288-132 288-144C288-157 283-165 260-165L146-165Z"  horiz-adv-x="706" vert-adv-y="1000"  />

      
      <glyph glyph-name="uniba" unicode="&#xba;" d="M377 376C669 376 691 494 691 561L691 570C691 635 671 751 379 751L322 751C38 751 9 636 9 570L9 561C9 494 36 376 323 376ZM349 494C289 494 278 536 278 566C278 595 291 634 349 634L351 634C409 634 422 595 422 566C422 537 409 494 351 494Z"  horiz-adv-x="700" vert-adv-y="1000"  />

      
      <glyph glyph-name="unibb" unicode="&#xbb;" d="M112 286L9 107L241 107L350 286L240 461L9 461ZM508 107L621 286L508 461L277 461L387 286L276 107Z"  horiz-adv-x="627" vert-adv-y="1000"  />

      
      <glyph glyph-name="unibf" unicode="&#xbf;" d="M368 273L368 272C368 249 356 240 320 232L185 205C36 175-1 89-1 12L-1 3C-1-104 56-219 473-219L521-219C994-219 1005-54 1005 34L1005 46L639 46C636 12 630-25 487-25C383-25 371-14 371 5L371 6C371 23 391 33 447 44L580 70C722 99 726 152 726 223L726 273ZM366 306L726 306L726 538L366 538Z"  horiz-adv-x="1016" vert-adv-y="1000"  />

      
      <glyph glyph-name="unic0" unicode="&#xc0;" d="M683 309L503 309L592 515ZM819 0L1243 0L870 744L336 744L-15 0L369 0L408 89L780 89ZM710 940L356 940L451 776L769 776Z"  horiz-adv-x="1228" vert-adv-y="1000"  />

      
      <glyph glyph-name="unic1" unicode="&#xc1;" d="M683 309L503 309L592 515ZM819 0L1243 0L870 744L336 744L-15 0L369 0L408 89L780 89ZM446 776L764 776L858 940L504 940Z"  horiz-adv-x="1228" vert-adv-y="1000"  />

      
      <glyph glyph-name="unic2" unicode="&#xc2;" d="M683 309L503 309L592 515ZM819 0L1243 0L870 744L336 744L-15 0L369 0L408 89L780 89ZM774 940L432 940L263 775L548 775L603 833L657 775L945 775Z"  horiz-adv-x="1228" vert-adv-y="1000"  />

      
      <glyph glyph-name="unic3" unicode="&#xc3;" d="M683 309L503 309L592 515ZM819 0L1243 0L870 744L336 744L-15 0L369 0L408 89L780 89ZM745 775C869 775 881 844 881 887L881 964L690 964L690 937C690 926 685 921 676 921C664 921 648 926 621 934C544 955 519 964 467 964L465 964C347 964 329 906 329 865L329 775L517 775L517 799C517 808 519 820 532 820C545 820 558 816 593 805C663 783 686 775 742 775Z"  horiz-adv-x="1228" vert-adv-y="1000"  />

      
      <glyph glyph-name="unic4" unicode="&#xc4;" d="M683 309L503 309L592 515ZM819 0L1243 0L870 744L336 744L-15 0L369 0L408 89L780 89ZM915 940L624 940L624 776L915 776ZM584 940L294 940L294 776L584 776Z"  horiz-adv-x="1228" vert-adv-y="1000"  />

      
      <glyph glyph-name="unic5" unicode="&#xc5;" d="M683 309L503 309L592 515ZM819 0L1243 0L870 744L336 744L-15 0L369 0L408 89L780 89ZM393 894C393 829 434 772 606 772C776 772 819 828 819 894C819 960 776 1017 606 1017C438 1017 393 960 393 894ZM532 895C532 922 555 937 606 937C658 937 680 922 680 895C680 868 658 852 606 852C557 852 532 866 532 895Z"  horiz-adv-x="1228" vert-adv-y="1000"  />

      
      <glyph glyph-name="unic6" unicode="&#xc6;" d="M705 310L554 310L705 550ZM705 0L1576 0L1576 210L1079 210L1079 274L1566 274L1566 478L1079 478L1079 536L1572 536L1572 744L471 744L-17 0L359 0L416 90L705 90Z"  horiz-adv-x="1598" vert-adv-y="1000"  />

      
      <glyph glyph-name="unic7" unicode="&#xc7;" d="M629-15C1122-15 1185 196 1185 300L1185 326L800 326C797 308 781 224 606 224C439 224 406 307 406 371L406 383C406 448 436 522 606 522C779 522 795 444 800 428L1185 428L1185 443C1185 553 1122 759 629 759L594 759C82 759 15 545 15 389L15 359C15 204 86-15 594-15ZM421-262L623-262C798-262 834-214 834-153L834-151C834-91 800-46 624-46L624 0L465 0L465-124L535-124C558-124 563-132 563-144C563-157 558-165 535-165L421-165Z"  horiz-adv-x="1198" vert-adv-y="1000"  />

      
      <glyph glyph-name="unic8" unicode="&#xc8;" d="M31 744L31 0L932 0L932 210L405 210L405 274L922 274L922 478L405 478L405 536L928 536L928 744ZM601 940L247 940L342 776L660 776Z"  horiz-adv-x="955" vert-adv-y="1000"  />

      
      <glyph glyph-name="unic9" unicode="&#xc9;" d="M31 744L31 0L932 0L932 210L405 210L405 274L922 274L922 478L405 478L405 536L928 536L928 744ZM326 776L644 776L738 940L384 940Z"  horiz-adv-x="955" vert-adv-y="1000"  />

      
      <glyph glyph-name="unica" unicode="&#xca;" d="M31 744L31 0L932 0L932 210L405 210L405 274L922 274L922 478L405 478L405 536L928 536L928 744ZM662 940L320 940L151 775L436 775L491 833L545 775L833 775Z"  horiz-adv-x="955" vert-adv-y="1000"  />

      
      <glyph glyph-name="unicb" unicode="&#xcb;" d="M31 744L31 0L932 0L932 210L405 210L405 274L922 274L922 478L405 478L405 536L928 536L928 744ZM799 940L508 940L508 776L799 776ZM468 940L178 940L178 776L468 776Z"  horiz-adv-x="955" vert-adv-y="1000"  />

      
      <glyph glyph-name="unicc" unicode="&#xcc;" d="M410 744L31 744L31 0L410 0ZM320 940L-34 940L61 776L379 776Z"  horiz-adv-x="441" vert-adv-y="1000"  />

      
      <glyph glyph-name="unicd" unicode="&#xcd;" d="M410 744L31 744L31 0L410 0ZM62 776L380 776L474 940L120 940Z"  horiz-adv-x="441" vert-adv-y="1000"  />

      
      <glyph glyph-name="unice" unicode="&#xce;" d="M410 744L31 744L31 0L410 0ZM390 940L48 940L-121 775L164 775L219 833L273 775L561 775Z"  horiz-adv-x="441" vert-adv-y="1000"  />

      
      <glyph glyph-name="unicf" unicode="&#xcf;" d="M410 744L31 744L31 0L410 0ZM531 940L240 940L240 776L531 776ZM200 940L-90 940L-90 776L200 776Z"  horiz-adv-x="441" vert-adv-y="1000"  />

      
      <glyph glyph-name="unid1" unicode="&#xd1;" d="M31 744L31 0L411 0L411 372L803 0L1190 0L1190 744L810 744L810 406L460 744ZM749 775C873 775 885 844 885 887L885 964L694 964L694 937C694 926 689 921 680 921C668 921 652 926 625 934C548 955 523 964 471 964L469 964C351 964 333 906 333 865L333 775L521 775L521 799C521 808 523 820 536 820C549 820 562 816 597 805C667 783 690 775 746 775Z"  horiz-adv-x="1221" vert-adv-y="1000"  />

      
      <glyph glyph-name="unid2" unicode="&#xd2;" d="M594 759C91 759 15 545 15 389L15 359C15 206 93-15 594-15L644-15C1146-15 1223 206 1223 359L1223 389C1223 545 1147 759 644 759ZM831 369C831 301 780 224 618 224C458 224 406 304 406 371L406 383C406 448 453 522 618 522C781 522 831 448 831 383ZM718 940L364 940L459 776L777 776Z"  horiz-adv-x="1238" vert-adv-y="1000"  />

      
      <glyph glyph-name="unid3" unicode="&#xd3;" d="M594 759C91 759 15 545 15 389L15 359C15 206 93-15 594-15L644-15C1146-15 1223 206 1223 359L1223 389C1223 545 1147 759 644 759ZM831 369C831 301 780 224 618 224C458 224 406 304 406 371L406 383C406 448 453 522 618 522C781 522 831 448 831 383ZM461 776L779 776L873 940L519 940Z"  horiz-adv-x="1238" vert-adv-y="1000"  />

      
      <glyph glyph-name="unid4" unicode="&#xd4;" d="M594 759C91 759 15 545 15 389L15 359C15 206 93-15 594-15L644-15C1146-15 1223 206 1223 359L1223 389C1223 545 1147 759 644 759ZM831 369C831 301 780 224 618 224C458 224 406 304 406 371L406 383C406 448 453 522 618 522C781 522 831 448 831 383ZM789 940L447 940L278 775L563 775L618 833L672 775L960 775Z"  horiz-adv-x="1238" vert-adv-y="1000"  />

      
      <glyph glyph-name="unid5" unicode="&#xd5;" d="M594 759C91 759 15 545 15 389L15 359C15 206 93-15 594-15L644-15C1146-15 1223 206 1223 359L1223 389C1223 545 1147 759 644 759ZM831 369C831 301 780 224 618 224C458 224 406 304 406 371L406 383C406 448 453 522 618 522C781 522 831 448 831 383ZM758 782C882 782 894 851 894 894L894 971L703 971L703 944C703 933 698 928 689 928C677 928 661 933 634 941C557 962 532 971 480 971L478 971C360 971 342 913 342 872L342 782L530 782L530 806C530 815 532 827 545 827C558 827 571 823 606 812C676 790 699 782 755 782Z"  horiz-adv-x="1238" vert-adv-y="1000"  />

      
      <glyph glyph-name="unid6" unicode="&#xd6;" d="M594 759C91 759 15 545 15 389L15 359C15 206 93-15 594-15L644-15C1146-15 1223 206 1223 359L1223 389C1223 545 1147 759 644 759ZM831 369C831 301 780 224 618 224C458 224 406 304 406 371L406 383C406 448 453 522 618 522C781 522 831 448 831 383ZM930 940L639 940L639 776L930 776ZM599 940L309 940L309 776L599 776Z"  horiz-adv-x="1238" vert-adv-y="1000"  />

      
      <glyph glyph-name="unid8" unicode="&#xd8;" d="M649-13C1162-13 1238 205 1238 357L1238 387C1238 484 1199 574 1107 642L1245 744L982 744L946 717C867 742 772 757 649 757L601 757C90 757 13 540 13 387L13 357C13 268 44 176 135 105L-7 0L257 0L295 28C375 1 474-13 601-13ZM625 215C596 215 564 215 537 216L842 447C852 428 857 407 857 384L857 370C857 290 795 215 625 215ZM394 384C394 463 453 532 625 532L706 532L408 307C399 327 394 348 394 370Z"  horiz-adv-x="1253" vert-adv-y="1000"  />

      
      <glyph glyph-name="unid9" unicode="&#xd9;" d="M24 399C24 250 79-13 575-13L625-13C1121-13 1178 250 1178 399L1178 744L796 744L796 438C796 355 758 267 602 267L600 267C441 267 406 355 406 438L406 744L24 744ZM705 940L351 940L446 776L764 776Z"  horiz-adv-x="1202" vert-adv-y="1000"  />

      
      <glyph glyph-name="unida" unicode="&#xda;" d="M24 399C24 250 79-13 575-13L625-13C1121-13 1178 250 1178 399L1178 744L796 744L796 438C796 355 758 267 602 267L600 267C441 267 406 355 406 438L406 744L24 744ZM438 776L756 776L850 940L496 940Z"  horiz-adv-x="1202" vert-adv-y="1000"  />

      
      <glyph glyph-name="unidb" unicode="&#xdb;" d="M24 399C24 250 79-13 575-13L625-13C1121-13 1178 250 1178 399L1178 744L796 744L796 438C796 355 758 267 602 267L600 267C441 267 406 355 406 438L406 744L24 744ZM771 940L429 940L260 775L545 775L600 833L654 775L942 775Z"  horiz-adv-x="1202" vert-adv-y="1000"  />

      
      <glyph glyph-name="unidc" unicode="&#xdc;" d="M24 399C24 250 79-13 575-13L625-13C1121-13 1178 250 1178 399L1178 744L796 744L796 438C796 355 758 267 602 267L600 267C441 267 406 355 406 438L406 744L24 744ZM912 940L621 940L621 776L912 776ZM581 940L291 940L291 776L581 776Z"  horiz-adv-x="1202" vert-adv-y="1000"  />

      
      <glyph glyph-name="unidf" unicode="&#xdf;" d="M790 442C867 453 939 496 939 569L939 578C939 646 915 744 547 744L434 744C75 744 27 646 27 537L27 0L391 0L391 523C391 557 402 582 478 582L514 582C598 582 602 551 602 536L602 534C602 520 595 492 534 492L425 492L425 301L537 301C604 301 616 271 616 248L616 245C616 221 604 191 536 191L425 191L425 0L702 0C937 0 994 117 994 229L994 241C994 356 906 426 790 442Z"  horiz-adv-x="1002" vert-adv-y="1000"  />

      
      <glyph glyph-name="unie0" unicode="&#xe0;" d="M519 215C519 172 487 137 424 137C377 137 364 162 364 181L364 182C364 203 378 213 403 220L519 251ZM522 68C529 28 557 0 613 0L926 0L926 177L895 177C886 177 881 183 881 194L881 378C881 441 855 551 471 551L414 551C49 551 24 447 24 373L24 361L362 361C362 374 366 405 444 405L446 405C507 405 520 388 520 371L520 370C520 359 516 351 496 348L213 325C53 312 11 253 11 178L11 158C11 75 77-10 257-10L263-10C416-10 494 43 522 68ZM607 569L522 744L180 744L299 569Z"  horiz-adv-x="933" vert-adv-y="1000"  />

      
      <glyph glyph-name="unie1" unicode="&#xe1;" d="M519 215C519 172 487 137 424 137C377 137 364 162 364 181L364 182C364 203 378 213 403 220L519 251ZM522 68C529 28 557 0 613 0L926 0L926 177L895 177C886 177 881 183 881 194L881 378C881 441 855 551 471 551L414 551C49 551 24 447 24 373L24 361L362 361C362 374 366 405 444 405L446 405C507 405 520 388 520 371L520 370C520 359 516 351 496 348L213 325C53 312 11 253 11 178L11 158C11 75 77-10 257-10L263-10C416-10 494 43 522 68ZM294 574L602 574L721 749L379 749Z"  horiz-adv-x="933" vert-adv-y="1000"  />

      
      <glyph glyph-name="unie2" unicode="&#xe2;" d="M519 215C519 172 487 137 424 137C377 137 364 162 364 181L364 182C364 203 378 213 403 220L519 251ZM522 68C529 28 557 0 613 0L926 0L926 177L895 177C886 177 881 183 881 194L881 378C881 441 855 551 471 551L414 551C49 551 24 447 24 373L24 361L362 361C362 374 366 405 444 405L446 405C507 405 520 388 520 371L520 370C520 359 516 351 496 348L213 325C53 312 11 253 11 178L11 158C11 75 77-10 257-10L263-10C416-10 494 43 522 68ZM618 744L273 744L117 569L392 569L443 639L495 569L773 569Z"  horiz-adv-x="933" vert-adv-y="1000"  />

      
      <glyph glyph-name="unie3" unicode="&#xe3;" d="M519 215C519 172 487 137 424 137C377 137 364 162 364 181L364 182C364 203 378 213 403 220L519 251ZM522 68C529 28 557 0 613 0L926 0L926 177L895 177C886 177 881 183 881 194L881 378C881 441 855 551 471 551L414 551C49 551 24 447 24 373L24 361L362 361C362 374 366 405 444 405L446 405C507 405 520 388 520 371L520 370C520 359 516 351 496 348L213 325C53 312 11 253 11 178L11 158C11 75 77-10 257-10L263-10C416-10 494 43 522 68ZM584 573C709 573 720 642 720 685L720 760L530 760L530 733C530 722 525 717 516 717C504 717 490 722 465 730C390 754 364 760 315 760L313 760C195 760 177 702 177 661L177 573L366 573L366 596C366 607 369 617 382 617C393 617 406 614 437 603C507 581 529 573 582 573Z"  horiz-adv-x="933" vert-adv-y="1000"  />

      
      <glyph glyph-name="unie4" unicode="&#xe4;" d="M519 215C519 172 487 137 424 137C377 137 364 162 364 181L364 182C364 203 378 213 403 220L519 251ZM522 68C529 28 557 0 613 0L926 0L926 177L895 177C886 177 881 183 881 194L881 378C881 441 855 551 471 551L414 551C49 551 24 447 24 373L24 361L362 361C362 374 366 405 444 405L446 405C507 405 520 388 520 371L520 370C520 359 516 351 496 348L213 325C53 312 11 253 11 178L11 158C11 75 77-10 257-10L263-10C416-10 494 43 522 68ZM745 744L464 744L464 569L745 569ZM426 744L146 744L146 569L426 569Z"  horiz-adv-x="933" vert-adv-y="1000"  />

      
      <glyph glyph-name="unie5" unicode="&#xe5;" d="M519 215C519 172 487 137 424 137C377 137 364 162 364 181L364 182C364 203 378 213 403 220L519 251ZM522 68C529 28 557 0 613 0L926 0L926 177L895 177C886 177 881 183 881 194L881 378C881 441 855 551 471 551L414 551C49 551 24 447 24 373L24 361L362 361C362 374 366 405 444 405L446 405C507 405 520 388 520 371L520 370C520 359 516 351 496 348L213 325C53 312 11 253 11 178L11 158C11 75 77-10 257-10L263-10C416-10 494 43 522 68ZM233 692C233 627 275 570 444 570C612 570 655 626 655 692C655 758 612 815 444 815C278 815 233 758 233 692ZM372 693C372 720 395 735 444 735C495 735 516 720 516 693C516 666 495 650 444 650C396 650 372 664 372 693Z"  horiz-adv-x="933" vert-adv-y="1000"  />

      
      <glyph glyph-name="unie6" unicode="&#xe6;" d="M988 407C1063 407 1090 382 1095 347L879 347C882 377 903 407 988 407ZM424 137C377 137 364 162 364 181L364 182C364 205 380 213 403 220L519 251L519 215C519 172 488 137 424 137ZM1455 206L1097 206C1094 200 1089 151 989 151C900 151 881 202 878 239L1455 239L1455 254C1455 376 1430 550 1006 550L963 550C850 550 774 535 714 503C661 536 582 551 467 551L414 551C40 551 25 436 25 373L25 361L362 361C362 374 366 405 444 405L446 405C507 405 520 388 520 371L520 370C520 358 515 351 496 348L213 325C56 312 11 253 11 178L11 158C11 75 74-10 273-10L280-10C468-10 540 47 589 85C652 30 753-13 961-13L1006-13C1403-13 1455 122 1455 203Z"  horiz-adv-x="1466" vert-adv-y="1000"  />

      
      <glyph glyph-name="unie7" unicode="&#xe7;" d="M520-15C932-15 949 176 949 244L949 247L580 247C580 229 567 155 485 155L480 155C394 155 382 223 382 276L382 277C382 326 394 386 480 386L485 386C567 386 580 319 580 301L949 301L949 304C949 380 922 553 521 553L449 553C29 553 13 375 13 279L13 265C13 168 30-15 450-15ZM275-262L477-262C652-262 688-214 688-153L688-151C688-91 654-46 478-46L478 0L319 0L319-124L389-124C412-124 417-132 417-144C417-157 412-165 389-165L275-165Z"  horiz-adv-x="959" vert-adv-y="1000"  />

      
      <glyph glyph-name="unie8" unicode="&#xe8;" d="M373 347C378 378 396 407 481 407C561 407 584 380 589 347ZM949 206L590 206C587 195 578 151 483 151C396 151 375 199 372 239L949 239L949 253C949 378 920 553 499 553L455 553C43 553 13 381 13 281L13 267C13 167 41-15 454-15L499-15C907-15 949 126 949 204ZM636 569L551 744L209 744L328 569Z"  horiz-adv-x="960" vert-adv-y="1000"  />

      
      <glyph glyph-name="unie9" unicode="&#xe9;" d="M373 347C378 378 396 407 481 407C561 407 584 380 589 347ZM949 206L590 206C587 195 578 151 483 151C396 151 375 199 372 239L949 239L949 253C949 378 920 553 499 553L455 553C43 553 13 381 13 281L13 267C13 167 41-15 454-15L499-15C907-15 949 126 949 204ZM329 569L637 569L756 744L414 744Z"  horiz-adv-x="960" vert-adv-y="1000"  />

      
      <glyph glyph-name="uniea" unicode="&#xea;" d="M373 347C378 378 396 407 481 407C561 407 584 380 589 347ZM949 206L590 206C587 195 578 151 483 151C396 151 375 199 372 239L949 239L949 253C949 378 920 553 499 553L455 553C43 553 13 381 13 281L13 267C13 167 41-15 454-15L499-15C907-15 949 126 949 204ZM655 744L310 744L154 569L429 569L480 639L532 569L810 569Z"  horiz-adv-x="960" vert-adv-y="1000"  />

      
      <glyph glyph-name="unieb" unicode="&#xeb;" d="M373 347C378 378 396 407 481 407C561 407 584 380 589 347ZM949 206L590 206C587 195 578 151 483 151C396 151 375 199 372 239L949 239L949 253C949 378 920 553 499 553L455 553C43 553 13 381 13 281L13 267C13 167 41-15 454-15L499-15C907-15 949 126 949 204ZM782 744L501 744L501 569L782 569ZM463 744L183 744L183 569L463 569Z"  horiz-adv-x="960" vert-adv-y="1000"  />

      
      <glyph glyph-name="uniec" unicode="&#xec;" d="M391 538L27 538L27 0L391 0ZM364 569L279 744L-63 744L56 569Z"  horiz-adv-x="418" vert-adv-y="1000"  />

      
      <glyph glyph-name="unied" unicode="&#xed;" d="M391 538L27 538L27 0L391 0ZM55 569L363 569L482 744L140 744Z"  horiz-adv-x="418" vert-adv-y="1000"  />

      
      <glyph glyph-name="uniee" unicode="&#xee;" d="M357 744L62 744L-52 569L167 569L207 639L248 569L470 569ZM391 538L27 538L27 0L391 0Z"  horiz-adv-x="418" vert-adv-y="1000"  />

      
      <glyph glyph-name="unief" unicode="&#xef;" d="M438 744L224 744L224 569L438 569ZM194 744L-20 744L-20 569L194 569ZM391 538L27 538L27 0L391 0Z"  horiz-adv-x="418" vert-adv-y="1000"  />

      
      <glyph glyph-name="unif1" unicode="&#xf1;" d="M27 0L391 0L391 242C391 294 418 344 494 344C577 344 597 293 597 241L597 0L961 0L961 356C961 410 922 550 694 550L689 550C507 550 414 460 391 437L391 538L27 538ZM634 568C759 568 770 637 770 680L770 755L580 755L580 728C580 717 575 712 566 712C554 712 540 717 515 725C440 749 414 755 365 755L363 755C245 755 227 697 227 656L227 568L416 568L416 591C416 602 419 612 432 612C443 612 456 609 487 598C557 576 579 568 632 568Z"  horiz-adv-x="988" vert-adv-y="1000"  />

      
      <glyph glyph-name="unif2" unicode="&#xf2;" d="M543-15C960-15 992 168 992 264L992 280C992 375 963 553 545 553L461 553C53 553 13 375 13 279L13 265C13 168 52-15 462-15ZM501 154C401 154 382 227 382 276C382 319 403 385 501 385L504 385C604 385 623 319 623 276C623 228 602 154 504 154ZM657 569L572 744L230 744L349 569Z"  horiz-adv-x="1005" vert-adv-y="1000"  />

      
      <glyph glyph-name="unif3" unicode="&#xf3;" d="M543-15C960-15 992 168 992 264L992 280C992 375 963 553 545 553L461 553C53 553 13 375 13 279L13 265C13 168 52-15 462-15ZM501 154C401 154 382 227 382 276C382 319 403 385 501 385L504 385C604 385 623 319 623 276C623 228 602 154 504 154ZM347 569L655 569L774 744L432 744Z"  horiz-adv-x="1005" vert-adv-y="1000"  />

      
      <glyph glyph-name="unif4" unicode="&#xf4;" d="M543-15C960-15 992 168 992 264L992 280C992 375 963 553 545 553L461 553C53 553 13 375 13 279L13 265C13 168 52-15 462-15ZM501 154C401 154 382 227 382 276C382 319 403 385 501 385L504 385C604 385 623 319 623 276C623 228 602 154 504 154ZM675 744L330 744L174 569L449 569L500 639L552 569L830 569Z"  horiz-adv-x="1005" vert-adv-y="1000"  />

      
      <glyph glyph-name="unif5" unicode="&#xf5;" d="M543-15C960-15 992 168 992 264L992 280C992 375 963 553 545 553L461 553C53 553 13 375 13 279L13 265C13 168 52-15 462-15ZM501 154C401 154 382 227 382 276C382 319 403 385 501 385L504 385C604 385 623 319 623 276C623 228 602 154 504 154ZM636 575C761 575 772 644 772 687L772 762L582 762L582 735C582 724 577 719 568 719C556 719 542 724 517 732C442 756 416 762 367 762L365 762C247 762 229 704 229 663L229 575L418 575L418 598C418 609 421 619 434 619C445 619 458 616 489 605C559 583 581 575 634 575Z"  horiz-adv-x="1005" vert-adv-y="1000"  />

      
      <glyph glyph-name="unif6" unicode="&#xf6;" d="M543-15C960-15 992 168 992 264L992 280C992 375 963 553 545 553L461 553C53 553 13 375 13 279L13 265C13 168 52-15 462-15ZM501 154C401 154 382 227 382 276C382 319 403 385 501 385L504 385C604 385 623 319 623 276C623 228 602 154 504 154ZM802 744L521 744L521 569L802 569ZM483 744L203 744L203 569L483 569Z"  horiz-adv-x="1005" vert-adv-y="1000"  />

      
      <glyph glyph-name="unif7" unicode="&#xf7;" d="M404 606L190 606L190 431L404 431ZM14 396L14 222L581 222L581 396ZM404 185L190 185L190 11L404 11Z"  horiz-adv-x="595" vert-adv-y="1000"  />

      
      <glyph glyph-name="unif8" unicode="&#xf8;" d="M537-15C958-15 992 166 992 264L992 280C992 345 972 411 900 467L1006 538L813 538L785 520C729 540 650 553 551 553L467 553C51 553 13 375 13 279L13 265C13 193 36 126 109 75L-6 0L183 0L216 20C269 0 352-15 455-15ZM370 276C370 323 392 392 500 392L503 392C534 392 556 387 575 380L372 247C369 258 370 267 370 276ZM503 147C472 147 448 152 429 161L634 296C635 289 635 283 635 276C635 225 613 147 505 147Z"  horiz-adv-x="1005" vert-adv-y="1000"  />

      
      <glyph glyph-name="unif9" unicode="&#xf9;" d="M954 538L590 538L590 296C590 248 565 194 490 194C407 194 391 249 391 297L391 538L27 538L27 188C27 129 62-12 289-12L295-12C478-12 566 74 590 101L590 0L954 0ZM652 569L567 744L225 744L344 569Z"  horiz-adv-x="981" vert-adv-y="1000"  />

      
      <glyph glyph-name="unifa" unicode="&#xfa;" d="M954 538L590 538L590 296C590 248 565 194 490 194C407 194 391 249 391 297L391 538L27 538L27 188C27 129 62-12 289-12L295-12C478-12 566 74 590 101L590 0L954 0ZM334 569L642 569L761 744L419 744Z"  horiz-adv-x="981" vert-adv-y="1000"  />

      
      <glyph glyph-name="unifb" unicode="&#xfb;" d="M954 538L590 538L590 296C590 248 565 194 490 194C407 194 391 249 391 297L391 538L27 538L27 188C27 129 62-12 289-12L295-12C478-12 566 74 590 101L590 0L954 0ZM663 744L318 744L162 569L437 569L488 639L540 569L818 569Z"  horiz-adv-x="981" vert-adv-y="1000"  />

      
      <glyph glyph-name="unifc" unicode="&#xfc;" d="M954 538L590 538L590 296C590 248 565 194 490 194C407 194 391 249 391 297L391 538L27 538L27 188C27 129 62-12 289-12L295-12C478-12 566 74 590 101L590 0L954 0ZM790 744L509 744L509 569L790 569ZM471 744L191 744L191 569L471 569Z"  horiz-adv-x="981" vert-adv-y="1000"  />

      
      <glyph glyph-name="uniff" unicode="&#xff;" d="M118-188L482-188C582-188 652-133 707 3L922 538L564 538L480 233L375 538L-11 538L238 57C249 34 257 20 257 8L257 7C257-2 252-11 233-11L118-11ZM769 744L488 744L488 569L769 569ZM450 744L170 744L170 569L450 569Z"  horiz-adv-x="911" vert-adv-y="1000"  />

      
      <glyph glyph-name="uni0131" unicode="&#x0131;" d="M391 538L27 538L27 0L391 0Z"  horiz-adv-x="418" vert-adv-y="1000"  />

      
      <glyph glyph-name="uni0152" unicode="&#x0152;" d="M611 522C768 522 816 447 816 383L816 369C816 303 768 224 611 224C455 224 406 304 406 371L406 383C406 447 450 522 611 522ZM884 0L1688 0L1688 210L1191 210L1191 274L1678 274L1678 478L1191 478L1191 536L1684 536L1684 744L884 744L884 686C835 719 742 754 557 754L525 754C90 754 15 539 15 387L15 357C15 206 92-13 525-13L557-13C737-13 833 26 884 61Z"  horiz-adv-x="1710" vert-adv-y="1000"  />

      
      <glyph glyph-name="uni0153" unicode="&#x0153;" d="M983 347C988 378 1006 407 1091 407C1171 407 1194 380 1199 347ZM501 154C401 154 382 227 382 276C382 319 403 385 501 385L504 385C604 385 623 319 623 276C623 228 602 154 504 154ZM806 51C863 14 951-13 1086-13L1120-13C1517-13 1558 128 1558 204L1558 206L1200 206C1197 195 1188 151 1093 151C1006 151 985 199 982 239L1558 239L1558 253C1558 377 1529 550 1120 550L1087 550C952 550 863 524 807 489C747 526 660 553 524 553L450 553C54 553 13 375 13 279L13 265C13 168 51-15 451-15L522-15C659-15 749 12 806 51Z"  horiz-adv-x="1569" vert-adv-y="1000"  />

      
      <glyph glyph-name="uni0178" unicode="&#x0178;" d="M408 0L788 0L788 259L1209 744L806 744L612 520L421 744L-17 744L408 264ZM918 940L627 940L627 776L918 776ZM587 940L297 940L297 776L587 776Z"  horiz-adv-x="1192" vert-adv-y="1000"  />

      
      <glyph glyph-name="uni02C6" unicode="&#x02C6;" d="M526 744L181 744L25 569L300 569L351 639L403 569L681 569Z"  horiz-adv-x="706" vert-adv-y="1000"  />

      
      <glyph glyph-name="uni02C7" unicode="&#x02C7;" d="M180 569L525 569L681 744L406 744L354 674L303 744L25 744Z"  horiz-adv-x="706" vert-adv-y="1000"  />

      
      <glyph glyph-name="uni02D8" unicode="&#x02D8;" d="M619 744L419 744L419 743C419 731 409 698 356 698L354 698C298 698 289 731 289 743L289 744L87 744L87 742C87 682 118 566 327 566L381 566C572 566 619 682 619 742Z"  horiz-adv-x="706" vert-adv-y="1000"  />

      
      <glyph glyph-name="uni02D9" unicode="&#x02D9;" d="M535 744L171 744L171 569L535 569Z"  horiz-adv-x="706" vert-adv-y="1000"  />

      
      <glyph glyph-name="uni02DA" unicode="&#x02DA;" d="M144 687C144 622 186 565 355 565C523 565 566 621 566 687C566 753 523 810 355 810C189 810 144 753 144 687ZM283 688C283 715 306 730 355 730C406 730 427 715 427 688C427 661 406 645 355 645C307 645 283 659 283 688Z"  horiz-adv-x="706" vert-adv-y="1000"  />

      
      <glyph glyph-name="uni02DB" unicode="&#x02DB;" d="M161-114C161-161 206-188 340-188L547-188L547-74L509-74C492-74 484-68 484-57L484-56C484-37 512-19 547 0L399 0C242-25 161-53 161-109Z"  horiz-adv-x="706" vert-adv-y="1000"  />

      
      <glyph glyph-name="uni02DC" unicode="&#x02DC;" d="M488 568C613 568 624 637 624 680L624 755L434 755L434 728C434 717 429 712 420 712C408 712 394 717 369 725C294 749 268 755 219 755L217 755C99 755 81 697 81 656L81 568L270 568L270 591C270 602 273 612 286 612C297 612 310 609 341 598C411 576 433 568 486 568Z"  horiz-adv-x="706" vert-adv-y="1000"  />

      
      <glyph glyph-name="uni02DD" unicode="&#x02DD;" d="M335 569L616 569L688 744L403 744ZM18 569L298 569L364 744L80 744Z"  horiz-adv-x="706" vert-adv-y="1000"  />

      
      <glyph glyph-name="uni2013" unicode="&#x2013;" d="M24 378L24 215L951 215L951 378Z"  horiz-adv-x="975" vert-adv-y="1000"  />

      
      <glyph glyph-name="uni2014" unicode="&#x2014;" d="M24 378L24 215L1476 215L1476 378Z"  horiz-adv-x="1500" vert-adv-y="1000"  />

      
      <glyph glyph-name="uni2018" unicode="&#x2018;" d="M99 744C70 712 24 638 24 581L24 431L358 431L358 622L224 622C229 656 255 711 271 744Z"  horiz-adv-x="382" vert-adv-y="1000"  />

      
      <glyph glyph-name="uni2019" unicode="&#x2019;" d="M283 431C311 464 358 535 358 594L358 744L24 744L24 553L158 553C153 519 127 464 111 431Z"  horiz-adv-x="382" vert-adv-y="1000"  />

      
      <glyph glyph-name="uni201A" unicode="&#x201A;" d="M283-122C311-89 358-18 358 41L358 191L24 191L24 0L158 0C153-34 127-89 111-122Z"  horiz-adv-x="382" vert-adv-y="1000"  />

      
      <glyph glyph-name="uni201C" unicode="&#x201C;" d="M99 744C70 712 24 638 24 581L24 431L358 431L358 622L224 622C229 656 255 711 271 744ZM463 744C434 712 388 638 388 581L388 431L722 431L722 622L588 622C593 656 619 711 635 744Z"  horiz-adv-x="746" vert-adv-y="1000"  />

      
      <glyph glyph-name="uni201D" unicode="&#x201D;" d="M283 431C311 464 358 535 358 594L358 744L24 744L24 553L158 553C153 519 127 464 111 431ZM647 431C675 464 722 535 722 594L722 744L388 744L388 553L522 553C517 519 491 464 475 431Z"  horiz-adv-x="746" vert-adv-y="1000"  />

      
      <glyph glyph-name="uni201E" unicode="&#x201E;" d="M647-122C675-89 722-18 722 41L722 191L388 191L388 0L522 0C517-34 491-89 475-122ZM283-122C311-89 358-18 358 41L358 191L24 191L24 0L158 0C153-34 127-89 111-122Z"  horiz-adv-x="746" vert-adv-y="1000"  />

      
      <glyph glyph-name="uni2020" unicode="&#x2020;" d="M134 0L469 0L469 386L589 386L589 620L469 620L469 744L134 744L134 620L14 620L14 386L134 386Z"  horiz-adv-x="603" vert-adv-y="1000"  />

      
      <glyph glyph-name="uni2021" unicode="&#x2021;" d="M134 123L134 0L465 0L465 123L585 123L585 331L465 331L465 418L585 418L585 626L465 626L465 744L134 744L134 626L14 626L14 418L134 418L134 331L14 331L14 123Z"  horiz-adv-x="599" vert-adv-y="1000"  />

      
      <glyph glyph-name="uni2022" unicode="&#x2022;" d="M528 329C528 474 415 579 270 579C126 579 13 474 13 329C13 185 126 79 270 79C415 79 528 185 528 329Z"  horiz-adv-x="541" vert-adv-y="1000"  />

      
      <glyph glyph-name="uni2026" unicode="&#x2026;" d="M383 232L24 232L24 0L383 0ZM784 232L425 232L425 0L784 0ZM1185 232L826 232L826 0L1185 0Z"  horiz-adv-x="1209" vert-adv-y="1000"  />

      
      <glyph glyph-name="uni2030" unicode="&#x2030;" d="M358 322C638 322 683 448 683 533L683 546C683 631 637 751 356 751L340 751C59 751 13 631 13 546L13 533C13 448 58 322 338 322ZM1060 744L218 0L465 0L1308 744ZM348 470C289 470 267 502 267 537L267 540C267 575 289 606 348 606C407 606 429 575 429 540L429 537C429 502 407 470 348 470ZM1190-8C1470-8 1515 118 1515 203L1515 216C1515 301 1469 421 1188 421L1172 421C891 421 845 301 845 216L845 203C845 118 890-8 1170-8ZM1878-8C2158-8 2203 118 2203 203L2203 216C2203 301 2157 421 1876 421L1860 421C1579 421 1533 301 1533 216L1533 203C1533 118 1578-8 1858-8ZM1180 140C1121 140 1099 172 1099 207L1099 210C1099 245 1121 276 1180 276C1239 276 1261 245 1261 210L1261 207C1261 172 1239 140 1180 140ZM1868 140C1809 140 1787 172 1787 207L1787 210C1787 245 1809 276 1868 276C1927 276 1949 245 1949 210L1949 207C1949 172 1927 140 1868 140Z"  horiz-adv-x="2216" vert-adv-y="1000"  />

      
      <glyph glyph-name="uni2039" unicode="&#x2039;" d="M370 107L260 286L369 461L120 461L6 286L120 107Z"  horiz-adv-x="379" vert-adv-y="1000"  />

      
      <glyph glyph-name="uni203A" unicode="&#x203A;" d="M259 107L373 286L259 461L10 461L119 286L9 107Z"  horiz-adv-x="379" vert-adv-y="1000"  />

      
      <glyph glyph-name="uni2044" unicode="&#x2044;" d="M890 744L3 0L235 0L1129 744Z"  horiz-adv-x="1132" vert-adv-y="1000"  />

      
      <glyph glyph-name="uni20AC" unicode="&#x20AC;" d="M675-15C1127-15 1210 194 1210 300L1210 315L825 315C822 292 802 209 649 209C561 209 510 228 483 271L746 271L746 360L461 360L461 396L746 396L746 482L484 482C509 521 560 537 649 537C797 537 820 462 825 438L1210 438L1210 453C1210 565 1124 759 675 759L640 759C260 759 134 619 102 482L11 482L11 396L92 396L92 360L11 360L11 271L102 271C134 131 256-15 640-15Z"  horiz-adv-x="1223" vert-adv-y="1000"  />

      
      <glyph glyph-name="uni2122" unicode="&#x2122;" d="M450 609L450 744L9 744L9 609L115 609L115 386L344 386L344 609ZM476 386L669 386L669 570L725 386L850 386L907 570L907 386L1102 386L1102 744L831 744L796 593L762 744L476 744Z"  horiz-adv-x="1124" vert-adv-y="1000"  />

      
      <glyph glyph-name="uniFB01" unicode="&#xFB01;" d="M590 744L339 744C187 744 123 689 123 570L123 538L11 538L11 340L123 340L123 0L488 0L488 340L590 340L590 538L488 538L488 549C488 569 492 578 515 578L590 578ZM991 744L627 744L627 569L991 569ZM991 538L627 538L627 0L991 0Z"  horiz-adv-x="1018" vert-adv-y="1000"  />

      
      <glyph glyph-name="uniFB02" unicode="&#xFB02;" d="M590 744L339 744C187 744 123 689 123 570L123 538L11 538L11 340L123 340L123 0L488 0L488 340L590 340L590 538L488 538L488 549C488 569 492 578 515 578L590 578ZM991 744L627 744L627 0L991 0Z"  horiz-adv-x="1018" vert-adv-y="1000"  />

      
      <glyph glyph-name="uni0192" unicode="&#x0192;" d="M591 303L591 502L488 502L490 549C491 570 497 578 520 578L591 578L591 744L354 744C189 744 125 685 120 570L117 502L15 502L15 303L108 303L87-193L458-193L479 303Z"  horiz-adv-x="611" vert-adv-y="1000"  />

      
      <glyph glyph-name="unia6" unicode="&#xa6;" d="M294 808L57 808L57 378L294 378ZM294 333L57 333L57-131L294-131Z"  horiz-adv-x="351" vert-adv-y="1000"  />

      
      <glyph glyph-name="unibc" unicode="&#xbc;" d="M124 566L124 376L386 376L386 744L165 744C151 713 129 683 14 680L14 566ZM873 744L-14 0L218 0L1112 744ZM535 196L535 79L822 79L822 0L1075 0L1075 79L1142 79L1142 200L1075 200L1075 368L813 368ZM695 200L822 277L822 200Z"  horiz-adv-x="1150" vert-adv-y="1000"  />

      
      <glyph glyph-name="unibd" unicode="&#xbd;" d="M872 744L-15 0L217 0L1111 744ZM124 566L124 376L386 376L386 744L165 744C151 713 129 683 14 680L14 566ZM1226 0L1226 121L812 121C823 130 858 136 946 143C1180 159 1229 190 1229 256L1229 261C1229 325 1180 379 933 379L915 379C634 379 623 291 623 247L623 244L864 244C864 255 871 278 923 278C970 278 977 269 977 258L977 257C977 246 968 236 904 228C632 188 618 134 618 56L618 0Z"  horiz-adv-x="1237" vert-adv-y="1000"  />

      
      <glyph glyph-name="unibe" unicode="&#xbe;" d="M332 365C612 365 643 434 643 494L643 497C643 556 591 584 530 592C573 597 620 615 620 661L620 666C620 712 588 756 329 756L289 756C18 756 13 654 13 635L13 629L247 629C247 634 253 653 311 653C364 653 373 643 373 632L373 631C373 622 366 616 339 616L248 616L248 522L342 522C373 522 381 516 381 504L381 503C381 490 370 480 311 480C255 480 244 502 244 509L6 509L6 504C6 457 37 365 298 365ZM1052 744L165 0L397 0L1291 744ZM715 196L715 79L1002 79L1002 0L1255 0L1255 79L1322 79L1322 200L1255 200L1255 368L993 368ZM875 200L1002 277L1002 200Z"  horiz-adv-x="1330" vert-adv-y="1000"  />

      
      <glyph glyph-name="unid0" unicode="&#xd0;" d="M64 0L660 0C1117 0 1218 176 1218 361L1218 392C1218 584 1085 744 660 744L64 744L64 462L5 462L5 287L64 287ZM444 513L596 513C808 513 825 422 825 378L825 372C825 328 811 230 596 230L444 230L444 287L688 287L688 462L444 462Z"  horiz-adv-x="1232" vert-adv-y="1000"  />

      
      <glyph glyph-name="unid7" unicode="&#xd7;" d="M456 35L571 174L425 306L574 443L448 582L285 433L120 582L5 443L152 310L3 174L128 35L291 184Z"  horiz-adv-x="577" vert-adv-y="1000"  />

      
      <glyph glyph-name="unidd" unicode="&#xdd;" d="M408 0L788 0L788 259L1209 744L806 744L612 520L421 744L-17 744L408 264ZM449 776L767 776L861 940L507 940Z"  horiz-adv-x="1192" vert-adv-y="1000"  />

      
      <glyph glyph-name="unide" unicode="&#xde;" d="M746 104C1047 104 1122 227 1122 368L1122 393C1122 534 1050 649 746 649L411 649L411 744L31 744L31 0L411 0L411 104ZM411 431L664 431C716 431 731 409 731 382L731 379C731 354 716 329 664 329L411 329Z"  horiz-adv-x="1131" vert-adv-y="1000"  />

      
      <glyph glyph-name="unif0" unicode="&#xf0;" d="M524-15C944-15 992 165 992 282L992 302C992 427 947 513 810 615L917 626L917 720L695 697L630 744L207 744L325 659L154 642L154 549L438 578L553 495C509 514 440 532 331 532L321 532C71 532 13 398 13 279L13 258C13 134 101-15 469-15ZM501 154C401 154 382 227 382 276C382 319 403 385 501 385L504 385C604 385 623 319 623 276C623 228 602 154 504 154Z"  horiz-adv-x="1005" vert-adv-y="1000"  />

      
      <glyph glyph-name="unifd" unicode="&#xfd;" d="M118-188L482-188C582-188 652-133 707 3L922 538L564 538L480 233L375 538L-11 538L238 57C249 34 257 20 257 8L257 7C257-2 252-11 233-11L118-11ZM313 569L621 569L740 744L398 744Z"  horiz-adv-x="911" vert-adv-y="1000"  />

      
      <glyph glyph-name="unife" unicode="&#xfe;" d="M391 270C391 319 418 375 498 375L504 375C578 375 599 316 599 269L599 265C599 221 578 161 504 161L498 161C418 161 391 222 391 266ZM27 744L27-188L391-188L391 47C410 36 490-4 624-4L650-4C905-4 968 144 968 268L968 293C968 401 914 542 661 542L634 542C486 542 410 483 391 467L391 744Z"  horiz-adv-x="982" vert-adv-y="1000"  />

      
      <glyph glyph-name="uni0141" unicode="&#x0141;" d="M67 744L67 366L1 344L1 179L67 201L67 0L963 0L963 265L447 265L447 328L734 424L734 595L447 496L447 744Z"  horiz-adv-x="984" vert-adv-y="1000"  />

      
      <glyph glyph-name="uni0142" unicode="&#x0142;" d="M422 349L473 367L473 546L422 528L422 744L58 744L58 399L7 381L7 202L58 220L58 0L422 0Z"  horiz-adv-x="480" vert-adv-y="1000"  />

      
      <glyph glyph-name="uni0160" unicode="&#x0160;" d="M627-15C1050-15 1135 113 1135 245L1135 259C1135 410 1033 480 743 488L593 492C478 495 449 510 449 537L449 539C449 564 466 578 557 578C656 578 668 542 671 518L1107 518L1107 523C1107 651 1014 757 615 757L488 757C128 757 16 671 16 531L16 522C16 405 80 297 386 286L543 281C671 276 681 253 681 228L681 225C681 198 655 173 567 173C463 173 449 221 449 253L4 253L4 245C4 149 45-15 496-15ZM401 776L743 776L911 940L626 940L571 883L517 940L229 940Z"  horiz-adv-x="1142" vert-adv-y="1000"  />

      
      <glyph glyph-name="uni0161" unicode="&#x0161;" d="M470-15C819-15 873 72 873 169L873 178C873 285 825 343 594 354L447 360C385 363 372 377 372 393C372 412 381 422 432 422L434 422C490 422 494 395 494 382L851 382L851 391C851 479 787 553 468 553L390 553C89 553 13 489 13 389L13 382C13 298 58 222 269 211L416 205C476 202 490 191 490 168L490 167C490 148 476 132 433 132L431 132C384 132 372 160 371 184L4 184L4 176C4 104 46-15 389-15ZM266 569L611 569L767 744L492 744L440 674L389 744L111 744Z"  horiz-adv-x="881" vert-adv-y="1000"  />

      
      <glyph glyph-name="uni017D" unicode="&#x017D;" d="M22 744L22 503L450 503L19 181L19 0L1014 0L1014 254L568 254L1011 565L1011 744ZM347 776L689 776L857 940L572 940L517 883L463 940L175 940Z"  horiz-adv-x="1033" vert-adv-y="1000"  />

      
      <glyph glyph-name="uni017E" unicode="&#x017E;" d="M788 0L788 196L460 196L788 361L788 538L17 538L17 353L354 353L18 177L18 0ZM234 569L579 569L735 744L460 744L408 674L357 744L79 744Z"  horiz-adv-x="806" vert-adv-y="1000"  />

      
      <glyph glyph-name="uni2212" unicode="&#x2212;" d="M14 397L14 221L577 221L577 397Z"  horiz-adv-x="591" vert-adv-y="1000"  />

      
      <glyph glyph-name="uni0110" unicode="&#x0110;" d="M64 0L660 0C1117 0 1218 176 1218 361L1218 392C1218 584 1085 744 660 744L64 744L64 462L5 462L5 287L64 287ZM444 513L596 513C808 513 825 422 825 378L825 372C825 328 811 230 596 230L444 230L444 287L688 287L688 462L444 462Z"  horiz-adv-x="1232" vert-adv-y="1000"  />

      
      <glyph glyph-name="uni014A" unicode="&#x014A;" d="M1191 744L810 744L810 406L460 744L31 744L31 0L411 0L411 372L775 36C795 17 800 13 800 4C800-4 794-8 783-8L707-8L707-188L1028-188C1111-188 1191-124 1191 18Z"  horiz-adv-x="1222" vert-adv-y="1000"  />

      
      <glyph glyph-name="uni0132" unicode="&#x0132;" d="M410 744L31 744L31 0L410 0ZM964-11C1424-11 1455 229 1455 385L1455 744L1074 744L1074 390C1074 327 1054 256 938 256L936 256C809 256 805 333 802 356L442 356L442 349C442 244 455-11 891-11Z"  horiz-adv-x="1482" vert-adv-y="1000"  />

      
      <glyph glyph-name="uni0111" unicode="&#x0111;" d="M347 574L1003 574L1003 698L347 698ZM586 271C586 223 562 167 481 167L477 167C401 167 382 225 382 272L382 277C382 319 401 375 478 375L482 375C562 375 586 319 586 279ZM586 744L586 479C563 495 492 542 333 542L308 542C88 542 14 407 14 284L14 259C14 130 91-4 314-4L339-4C499-4 562 49 586 71L586 0L950 0L950 744Z"  horiz-adv-x="977" vert-adv-y="1000"  />

      
      <glyph glyph-name="uni014B" unicode="&#x014B;" d="M961 356C961 410 922 550 694 550L689 550C507 550 414 460 391 437L391 538L27 538L27 0L391 0L391 242C391 294 418 344 494 344C577 344 597 293 597 241L597 30C597 2 590-5 565-5L516-5L516-193L837-193C893-193 961-158 961-30Z"  horiz-adv-x="988" vert-adv-y="1000"  />

      
      <glyph glyph-name="uni0133" unicode="&#x0133;" d="M391 744L27 744L27 569L391 569ZM391 538L27 538L27 0L391 0ZM803 744L439 744L439 569L803 569ZM379-20L379-188L672-188C739-188 803-154 803-24L803 538L439 538L439 15C439-16 434-20 406-20Z"  horiz-adv-x="830" vert-adv-y="1000"  />

      
      <glyph glyph-name="uni0102" unicode="&#x0102;" d="M683 309L503 309L592 515ZM819 0L1243 0L870 744L336 744L-15 0L369 0L408 89L780 89ZM632 773C832 773 873 898 873 957L873 959L670 959C670 948 663 908 608 908L606 908C550 908 542 948 542 959L336 959L336 957C336 898 362 773 581 773Z"  horiz-adv-x="1228" vert-adv-y="1000"  />

      
      <glyph glyph-name="uni0100" unicode="&#x0100;" d="M683 309L503 309L592 515ZM819 0L1243 0L870 744L336 744L-15 0L369 0L408 89L780 89ZM342 784L866 784L866 926L342 926Z"  horiz-adv-x="1228" vert-adv-y="1000"  />

      
      <glyph glyph-name="uni0104" unicode="&#x0104;" d="M683 309L503 309L592 515ZM819 0L1243 0L870 744L336 744L-15 0L369 0L408 89L780 89ZM857-114C857-161 902-188 1036-188L1243-188L1243-74L1205-74C1188-74 1180-68 1180-57L1180-56C1180-37 1208-19 1243 0L1095 0C938-25 857-53 857-109Z"  horiz-adv-x="1228" vert-adv-y="1000"  />

      
      <glyph glyph-name="uni01FA" unicode="&#x01FA;" d="M393 894C393 829 434 772 606 772C776 772 819 828 819 894C819 960 776 1017 606 1017C438 1017 393 960 393 894ZM532 895C532 922 555 937 606 937C658 937 680 922 680 895C680 868 658 852 606 852C557 852 532 866 532 895ZM455 1035L763 1035L882 1210L540 1210ZM683 309L503 309L592 515ZM819 0L1243 0L870 744L336 744L-15 0L369 0L408 89L780 89Z"  horiz-adv-x="1228" vert-adv-y="1000"  />

      
      <glyph glyph-name="uni01FC" unicode="&#x01FC;" d="M705 310L554 310L705 550ZM705 0L1576 0L1576 210L1079 210L1079 274L1566 274L1566 478L1079 478L1079 536L1572 536L1572 744L471 744L-17 0L359 0L416 90L705 90ZM854 776L1172 776L1266 940L912 940Z"  horiz-adv-x="1598" vert-adv-y="1000"  />

      
      <glyph glyph-name="uni0106" unicode="&#x0106;" d="M444 783L762 783L854 940L500 940ZM629-15C1122-15 1185 196 1185 300L1185 326L800 326C797 308 781 224 606 224C439 224 406 307 406 371L406 383C406 448 436 522 606 522C779 522 795 444 800 428L1185 428L1185 443C1185 553 1122 759 629 759L594 759C82 759 15 545 15 389L15 359C15 204 86-15 594-15Z"  horiz-adv-x="1198" vert-adv-y="1000"  />

      
      <glyph glyph-name="uni010C" unicode="&#x010C;" d="M425 783L787 783L948 940L660 940L605 883L551 940L260 940ZM629-15C1122-15 1185 196 1185 300L1185 326L800 326C797 308 781 224 606 224C439 224 406 307 406 371L406 383C406 448 436 522 606 522C779 522 795 444 800 428L1185 428L1185 443C1185 553 1122 759 629 759L594 759C82 759 15 545 15 389L15 359C15 204 86-15 594-15Z"  horiz-adv-x="1198" vert-adv-y="1000"  />

      
      <glyph glyph-name="uni0108" unicode="&#x0108;" d="M783 940L425 940L263 782L549 782L604 840L658 782L947 782ZM629-15C1122-15 1185 196 1185 300L1185 326L800 326C797 308 781 224 606 224C439 224 406 307 406 371L406 383C406 448 436 522 606 522C779 522 795 444 800 428L1185 428L1185 443C1185 553 1122 759 629 759L594 759C82 759 15 545 15 389L15 359C15 204 86-15 594-15Z"  horiz-adv-x="1198" vert-adv-y="1000"  />

      
      <glyph glyph-name="uni010A" unicode="&#x010A;" d="M794 940L426 940L426 783L794 783ZM629-15C1122-15 1185 196 1185 300L1185 326L800 326C797 308 781 224 606 224C439 224 406 307 406 371L406 383C406 448 436 522 606 522C779 522 795 444 800 428L1185 428L1185 443C1185 553 1122 759 629 759L594 759C82 759 15 545 15 389L15 359C15 204 86-15 594-15Z"  horiz-adv-x="1198" vert-adv-y="1000"  />

      
      <glyph glyph-name="uni010E" unicode="&#x010E;" d="M31 0L627 0C1084 0 1185 176 1185 361L1185 392C1185 584 1052 744 627 744L31 744ZM411 513L563 513C775 513 792 422 792 378L792 372C792 328 778 230 563 230L411 230ZM346 776L688 776L856 940L571 940L516 883L462 940L174 940Z"  horiz-adv-x="1199" vert-adv-y="1000"  />

      
      <glyph glyph-name="uni0114" unicode="&#x0114;" d="M31 744L31 0L932 0L932 210L405 210L405 274L922 274L922 478L405 478L405 536L928 536L928 744ZM520 773C720 773 761 898 761 957L761 959L558 959C558 948 551 908 496 908L494 908C438 908 430 948 430 959L224 959L224 957C224 898 250 773 469 773Z"  horiz-adv-x="955" vert-adv-y="1000"  />

      
      <glyph glyph-name="uni011A" unicode="&#x011A;" d="M31 744L31 0L932 0L932 210L405 210L405 274L922 274L922 478L405 478L405 536L928 536L928 744ZM323 776L665 776L833 940L548 940L493 883L439 940L151 940Z"  horiz-adv-x="955" vert-adv-y="1000"  />

      
      <glyph glyph-name="uni0116" unicode="&#x0116;" d="M31 744L31 0L932 0L932 210L405 210L405 274L922 274L922 478L405 478L405 536L928 536L928 744ZM674 951L310 951L310 776L674 776Z"  horiz-adv-x="955" vert-adv-y="1000"  />

      
      <glyph glyph-name="uni0112" unicode="&#x0112;" d="M31 744L31 0L932 0L932 210L405 210L405 274L922 274L922 478L405 478L405 536L928 536L928 744ZM227 784L751 784L751 926L227 926Z"  horiz-adv-x="955" vert-adv-y="1000"  />

      
      <glyph glyph-name="uni0118" unicode="&#x0118;" d="M446-114C446-161 491-188 625-188L835-188L835-74L794-74C777-74 769-68 769-57L769-56C769-37 797-19 832 0L684 0C527-25 446-53 446-109ZM31 744L31 0L932 0L932 210L405 210L405 274L922 274L922 478L405 478L405 536L928 536L928 744Z"  horiz-adv-x="955" vert-adv-y="1000"  />

      
      <glyph glyph-name="uni011E" unicode="&#x011E;" d="M556-15C789-15 877 56 901 78C920 59 939 21 946 0L1201 0L1201 423L597 423L597 271L798 271C798 251 758 205 610 205C462 205 406 279 406 372L406 381C406 471 465 534 613 534C778 534 803 482 808 463L1196 463L1196 464C1196 572 1146 759 619 759L587 759C129 759 15 579 15 390L15 360C15 189 114-15 530-15ZM648 780C848 780 889 905 889 964L889 966L686 966C686 955 679 915 624 915L622 915C566 915 558 955 558 966L352 966L352 964C352 905 378 780 597 780Z"  horiz-adv-x="1231" vert-adv-y="1000"  />

      
      <glyph glyph-name="uni011C" unicode="&#x011C;" d="M798 940L440 940L278 782L564 782L619 840L673 782L962 782ZM556-15C789-15 877 56 901 78C920 59 939 21 946 0L1201 0L1201 423L597 423L597 271L798 271C798 251 758 205 610 205C462 205 406 279 406 372L406 381C406 471 465 534 613 534C778 534 803 482 808 463L1196 463L1196 464C1196 572 1146 759 619 759L587 759C129 759 15 579 15 390L15 360C15 189 114-15 530-15Z"  horiz-adv-x="1231" vert-adv-y="1000"  />

      
      <glyph glyph-name="uni0122" unicode="&#x0122;" d="M556-15C789-15 877 56 901 78C920 59 939 21 946 0L1201 0L1201 423L597 423L597 271L798 271C798 251 758 205 610 205C462 205 406 279 406 372L406 381C406 471 465 534 613 534C778 534 803 482 808 463L1196 463L1196 464C1196 572 1146 759 619 759L587 759C129 759 15 579 15 390L15 360C15 189 114-15 530-15ZM641-331C668-299 712-224 712-177L712-42L389-42L389-218L526-218C523-242 498-304 479-331Z"  horiz-adv-x="1231" vert-adv-y="1000"  />

      
      <glyph glyph-name="uni0120" unicode="&#x0120;" d="M804 940L436 940L436 783L804 783ZM556-15C789-15 877 56 901 78C920 59 939 21 946 0L1201 0L1201 423L597 423L597 271L798 271C798 251 758 205 610 205C462 205 406 279 406 372L406 381C406 471 465 534 613 534C778 534 803 482 808 463L1196 463L1196 464C1196 572 1146 759 619 759L587 759C129 759 15 579 15 390L15 360C15 189 114-15 530-15Z"  horiz-adv-x="1231" vert-adv-y="1000"  />

      
      <glyph glyph-name="uni0126" unicode="&#x0126;" d="M1 557L1263 557L1263 689L1 689ZM53 0L433 0L433 265L831 265L831 0L1211 0L1211 744L831 744L831 497L433 497L433 744L53 744Z"  horiz-adv-x="1264" vert-adv-y="1000"  />

      
      <glyph glyph-name="uni0124" unicode="&#x0124;" d="M31 0L411 0L411 265L809 265L809 0L1189 0L1189 744L809 744L809 497L411 497L411 744L31 744ZM780 940L438 940L269 775L554 775L609 833L663 775L951 775Z"  horiz-adv-x="1220" vert-adv-y="1000"  />

      
      <glyph glyph-name="uni012C" unicode="&#x012C;" d="M410 744L31 744L31 0L410 0ZM248 773C448 773 489 898 489 957L489 959L286 959C286 948 279 908 224 908L222 908C166 908 158 948 158 959L-48 959L-48 957C-48 898-22 773 197 773Z"  horiz-adv-x="441" vert-adv-y="1000"  />

      
      <glyph glyph-name="uni0130" unicode="&#x0130;" d="M410 744L31 744L31 0L410 0ZM402 951L38 951L38 776L402 776Z"  horiz-adv-x="441" vert-adv-y="1000"  />

      
      <glyph glyph-name="uni012A" unicode="&#x012A;" d="M-33 784L474 784L474 926L-33 926ZM410 744L31 744L31 0L410 0Z"  horiz-adv-x="441" vert-adv-y="1000"  />

      
      <glyph glyph-name="uni012E" unicode="&#x012E;" d="M410 744L31 744L31 0L410 0ZM24-114C24-161 69-188 203-188L410-188L410-74L372-74C355-74 347-68 347-57L347-56C347-37 375-19 410 0L262 0C105-25 24-53 24-109Z"  horiz-adv-x="441" vert-adv-y="1000"  />

      
      <glyph glyph-name="uni0128" unicode="&#x0128;" d="M410 744L31 744L31 0L410 0ZM359 775C483 775 495 844 495 887L495 964L304 964L304 937C304 926 299 921 290 921C278 921 262 926 235 934C158 955 133 964 81 964L79 964C-39 964-57 906-57 865L-57 775L131 775L131 799C131 808 133 820 146 820C159 820 172 816 207 805C277 783 300 775 356 775Z"  horiz-adv-x="441" vert-adv-y="1000"  />

      
      <glyph glyph-name="uni0134" unicode="&#x0134;" d="M529-11C989-11 1020 229 1020 385L1020 744L639 744L639 390C639 327 619 256 503 256L501 256C374 256 370 333 367 356L7 356L7 349C7 244 20-11 456-11ZM992 940L650 940L481 775L766 775L821 833L875 775L1163 775Z"  horiz-adv-x="1047" vert-adv-y="1000"  />

      
      <glyph glyph-name="uni0136" unicode="&#x0136;" d="M411 0L411 297L717 0L1213 0L769 410L1211 744L749 744L411 480L411 744L31 744L31 0ZM655-320C682-288 726-213 726-166L726-31L403-31L403-207L540-207C537-231 512-293 493-320Z"  horiz-adv-x="1196" vert-adv-y="1000"  />

      
      <glyph glyph-name="uni0139" unicode="&#x0139;" d="M31 744L31 0L927 0L927 265L411 265L411 744ZM62 776L380 776L474 940L120 940Z"  horiz-adv-x="948" vert-adv-y="1000"  />

      
      <glyph glyph-name="uni013D" unicode="&#x013D;" d="M31 744L31 0L927 0L927 265L411 265L411 744ZM432 568L674 568L699 744L442 744Z"  horiz-adv-x="948" vert-adv-y="1000"  />

      
      <glyph glyph-name="uni013B" unicode="&#x013B;" d="M31 744L31 0L927 0L927 265L411 265L411 744ZM569-320C596-288 640-213 640-166L640-31L317-31L317-207L454-207C451-231 426-293 407-320Z"  horiz-adv-x="948" vert-adv-y="1000"  />

      
      <glyph glyph-name="uni013F" unicode="&#x013F;" d="M31 744L31 0L927 0L927 265L411 265L411 744ZM881 564L523 564L523 332L881 332Z"  horiz-adv-x="948" vert-adv-y="1000"  />

      
      <glyph glyph-name="uni0143" unicode="&#x0143;" d="M31 744L31 0L411 0L411 372L803 0L1190 0L1190 744L810 744L810 406L460 744ZM452 776L770 776L864 940L510 940Z"  horiz-adv-x="1221" vert-adv-y="1000"  />

      
      <glyph glyph-name="uni0147" unicode="&#x0147;" d="M31 744L31 0L411 0L411 372L803 0L1190 0L1190 744L810 744L810 406L460 744ZM441 776L783 776L951 940L666 940L611 883L557 940L269 940Z"  horiz-adv-x="1221" vert-adv-y="1000"  />

      
      <glyph glyph-name="uni0145" unicode="&#x0145;" d="M31 744L31 0L411 0L411 372L803 0L1190 0L1190 744L810 744L810 406L460 744ZM700-320C727-288 771-213 771-166L771-31L448-31L448-207L585-207C582-231 557-293 538-320Z"  horiz-adv-x="1221" vert-adv-y="1000"  />

      
      <glyph glyph-name="uni014E" unicode="&#x014E;" d="M594 759C91 759 15 545 15 389L15 359C15 206 93-15 594-15L644-15C1146-15 1223 206 1223 359L1223 389C1223 545 1147 759 644 759ZM831 369C831 301 780 224 618 224C458 224 406 304 406 371L406 383C406 448 453 522 618 522C781 522 831 448 831 383ZM647 780C847 780 888 905 888 964L888 966L685 966C685 955 678 915 623 915L621 915C565 915 557 955 557 966L351 966L351 964C351 905 377 780 596 780Z"  horiz-adv-x="1238" vert-adv-y="1000"  />

      
      <glyph glyph-name="uni0150" unicode="&#x0150;" d="M647 783L937 783L997 940L702 940ZM319 783L608 783L663 940L368 940ZM594 759C91 759 15 545 15 389L15 359C15 206 93-15 594-15L644-15C1146-15 1223 206 1223 359L1223 389C1223 545 1147 759 644 759ZM831 369C831 301 780 224 618 224C458 224 406 304 406 371L406 383C406 448 453 522 618 522C781 522 831 448 831 383Z"  horiz-adv-x="1238" vert-adv-y="1000"  />

      
      <glyph glyph-name="uni014C" unicode="&#x014C;" d="M594 759C91 759 15 545 15 389L15 359C15 206 93-15 594-15L644-15C1146-15 1223 206 1223 359L1223 389C1223 545 1147 759 644 759ZM831 369C831 301 780 224 618 224C458 224 406 304 406 371L406 383C406 448 453 522 618 522C781 522 831 448 831 383ZM357 791L881 791L881 933L357 933Z"  horiz-adv-x="1238" vert-adv-y="1000"  />

      
      <glyph glyph-name="uni01FE" unicode="&#x01FE;" d="M460 783L778 783L870 940L516 940ZM649-13C1162-13 1238 205 1238 357L1238 387C1238 484 1199 574 1107 642L1245 744L982 744L946 717C867 742 772 757 649 757L601 757C90 757 13 540 13 387L13 357C13 268 44 176 135 105L-7 0L257 0L295 28C375 1 474-13 601-13ZM625 215C596 215 564 215 537 216L842 447C852 428 857 407 857 384L857 370C857 290 795 215 625 215ZM394 384C394 463 453 532 625 532L706 532L408 307C399 327 394 348 394 370Z"  horiz-adv-x="1253" vert-adv-y="1000"  />

      
      <glyph glyph-name="uni0154" unicode="&#x0154;" d="M411 447L411 541L688 541C739 541 757 522 757 494C757 467 740 447 688 447ZM411 238L623 238C730 238 767 189 767 113L767 23C767 12 767 5 772 0L1163 0L1163 6C1155 21 1150 38 1150 75L1150 188C1150 285 1093 352 974 375C1042 389 1146 436 1146 547L1146 556C1146 704 1013 744 853 744L31 744L31 0L411 0ZM400 776L718 776L812 940L458 940Z"  horiz-adv-x="1170" vert-adv-y="1000"  />

      
      <glyph glyph-name="uni0158" unicode="&#x0158;" d="M411 447L411 541L688 541C739 541 757 522 757 494C757 467 740 447 688 447ZM411 238L623 238C730 238 767 189 767 113L767 23C767 12 767 5 772 0L1163 0L1163 6C1155 21 1150 38 1150 75L1150 188C1150 285 1093 352 974 375C1042 389 1146 436 1146 547L1146 556C1146 704 1013 744 853 744L31 744L31 0L411 0ZM387 776L729 776L897 940L612 940L557 883L503 940L215 940Z"  horiz-adv-x="1170" vert-adv-y="1000"  />

      
      <glyph glyph-name="uni0156" unicode="&#x0156;" d="M411 447L411 541L688 541C739 541 757 522 757 494C757 467 740 447 688 447ZM411 238L623 238C730 238 767 189 767 113L767 23C767 12 767 5 772 0L1163 0L1163 6C1155 21 1150 38 1150 75L1150 188C1150 285 1093 352 974 375C1042 389 1146 436 1146 547L1146 556C1146 704 1013 744 853 744L31 744L31 0L411 0ZM677-320C704-288 748-213 748-166L748-31L425-31L425-207L562-207C559-231 534-293 515-320Z"  horiz-adv-x="1170" vert-adv-y="1000"  />

      
      <glyph glyph-name="uni015A" unicode="&#x015A;" d="M411 783L729 783L821 940L467 940ZM627-15C1050-15 1135 113 1135 245L1135 259C1135 410 1033 480 743 488L593 492C478 495 449 510 449 537L449 539C449 564 466 578 557 578C656 578 668 542 671 518L1107 518L1107 523C1107 651 1014 757 615 757L488 757C128 757 16 671 16 531L16 522C16 405 80 297 386 286L543 281C671 276 681 253 681 228L681 225C681 198 655 173 567 173C463 173 449 221 449 253L4 253L4 245C4 149 45-15 496-15Z"  horiz-adv-x="1142" vert-adv-y="1000"  />

      
      <glyph glyph-name="uni015E" unicode="&#x015E;" d="M627-15C1050-15 1135 113 1135 245L1135 259C1135 410 1033 480 743 488L593 492C478 495 449 510 449 537L449 539C449 564 466 578 557 578C656 578 668 542 671 518L1107 518L1107 523C1107 651 1014 757 615 757L488 757C128 757 16 671 16 531L16 522C16 405 80 297 386 286L543 281C671 276 681 253 681 228L681 225C681 198 655 173 567 173C463 173 449 221 449 253L4 253L4 245C4 149 45-15 496-15ZM363-262L565-262C740-262 776-214 776-153L776-151C776-91 742-46 566-46L566 0L407 0L407-124L477-124C500-124 505-132 505-144C505-157 500-165 477-165L363-165Z"  horiz-adv-x="1142" vert-adv-y="1000"  />

      
      <glyph glyph-name="uni015C" unicode="&#x015C;" d="M747 940L389 940L227 782L513 782L568 840L622 782L911 782ZM627-15C1050-15 1135 113 1135 245L1135 259C1135 410 1033 480 743 488L593 492C478 495 449 510 449 537L449 539C449 564 466 578 557 578C656 578 668 542 671 518L1107 518L1107 523C1107 651 1014 757 615 757L488 757C128 757 16 671 16 531L16 522C16 405 80 297 386 286L543 281C671 276 681 253 681 228L681 225C681 198 655 173 567 173C463 173 449 221 449 253L4 253L4 245C4 149 45-15 496-15Z"  horiz-adv-x="1142" vert-adv-y="1000"  />

      
      <glyph glyph-name="uni0218" unicode="&#x0218;" d="M627-15C1050-15 1135 113 1135 245L1135 259C1135 410 1033 480 743 488L593 492C478 495 449 510 449 537L449 539C449 564 466 578 557 578C656 578 668 542 671 518L1107 518L1107 523C1107 651 1014 757 615 757L488 757C128 757 16 671 16 531L16 522C16 405 80 297 386 286L543 281C671 276 681 253 681 228L681 225C681 198 655 173 567 173C463 173 449 221 449 253L4 253L4 245C4 149 45-15 496-15ZM659-331C686-299 730-224 730-177L730-42L407-42L407-218L544-218C541-242 516-304 497-331Z"  horiz-adv-x="1142" vert-adv-y="1000"  />

      
      <glyph glyph-name="uni0164" unicode="&#x0164;" d="M341 0L721 0L721 488L1042 488L1042 744L20 744L20 488L341 488ZM362 776L704 776L872 940L587 940L532 883L478 940L190 940Z"  horiz-adv-x="1062" vert-adv-y="1000"  />

      
      <glyph glyph-name="uni0162" unicode="&#x0162;" d="M341 0L721 0L721 488L1042 488L1042 744L20 744L20 488L341 488ZM621-320C648-288 692-213 692-166L692-31L369-31L369-207L506-207C503-231 478-293 459-320Z"  horiz-adv-x="1062" vert-adv-y="1000"  />

      
      <glyph glyph-name="uni021A" unicode="&#x021A;" d="M341 0L721 0L721 488L1042 488L1042 744L20 744L20 488L341 488ZM621-320C648-288 692-213 692-166L692-31L369-31L369-207L506-207C503-231 478-293 459-320Z"  horiz-adv-x="1062" vert-adv-y="1000"  />

      
      <glyph glyph-name="uni0166" unicode="&#x0166;" d="M938 247L938 404L124 404L124 247ZM341 0L721 0L721 488L1042 488L1042 744L20 744L20 488L341 488Z"  horiz-adv-x="1062" vert-adv-y="1000"  />

      
      <glyph glyph-name="uni016C" unicode="&#x016C;" d="M24 399C24 250 79-13 575-13L625-13C1121-13 1178 250 1178 399L1178 744L796 744L796 438C796 355 758 267 602 267L600 267C441 267 406 355 406 438L406 744L24 744ZM629 773C829 773 870 898 870 957L870 959L667 959C667 948 660 908 605 908L603 908C547 908 539 948 539 959L333 959L333 957C333 898 359 773 578 773Z"  horiz-adv-x="1202" vert-adv-y="1000"  />

      
      <glyph glyph-name="uni0170" unicode="&#x0170;" d="M24 399C24 250 79-13 575-13L625-13C1121-13 1178 250 1178 399L1178 744L796 744L796 438C796 355 758 267 602 267L600 267C441 267 406 355 406 438L406 744L24 744ZM629 776L919 776L981 940L686 940ZM301 776L590 776L647 940L352 940Z"  horiz-adv-x="1202" vert-adv-y="1000"  />

      
      <glyph glyph-name="uni016A" unicode="&#x016A;" d="M24 399C24 250 79-13 575-13L625-13C1121-13 1178 250 1178 399L1178 744L796 744L796 438C796 355 758 267 602 267L600 267C441 267 406 355 406 438L406 744L24 744ZM339 784L863 784L863 926L339 926Z"  horiz-adv-x="1202" vert-adv-y="1000"  />

      
      <glyph glyph-name="uni0172" unicode="&#x0172;" d="M913-188L913-74L872-74C855-74 847-68 847-57L847-56C847-33 880-17 940 18C1116 119 1178 244 1178 399L1178 744L796 744L796 438C796 355 758 267 602 267L600 267C441 267 406 355 406 438L406 744L24 744L24 399C24 250 79-13 575-13L625-13C662-13 701-11 743-7C606-31 524-52 524-109L524-114C524-161 569-188 703-188Z"  horiz-adv-x="1202" vert-adv-y="1000"  />

      
      <glyph glyph-name="uni016E" unicode="&#x016E;" d="M24 399C24 250 79-13 575-13L625-13C1121-13 1178 250 1178 399L1178 744L796 744L796 438C796 355 758 267 602 267L600 267C441 267 406 355 406 438L406 744L24 744ZM390 884C390 819 431 762 603 762C773 762 816 818 816 884C816 950 773 1007 603 1007C435 1007 390 950 390 884ZM529 885C529 912 552 927 603 927C655 927 677 912 677 885C677 858 655 842 603 842C554 842 529 856 529 885Z"  horiz-adv-x="1202" vert-adv-y="1000"  />

      
      <glyph glyph-name="uni0168" unicode="&#x0168;" d="M24 399C24 250 79-13 575-13L625-13C1121-13 1178 250 1178 399L1178 744L796 744L796 438C796 355 758 267 602 267L600 267C441 267 406 355 406 438L406 744L24 744ZM740 775C864 775 876 844 876 887L876 964L685 964L685 937C685 926 680 921 671 921C659 921 643 926 616 934C539 955 514 964 462 964L460 964C342 964 324 906 324 865L324 775L512 775L512 799C512 808 514 820 527 820C540 820 553 816 588 805C658 783 681 775 737 775Z"  horiz-adv-x="1202" vert-adv-y="1000"  />

      
      <glyph glyph-name="uni1E82" unicode="&#x1E82;" d="M762 0L876 413L987 0L1496 0L1763 744L1353 744L1235 297L1120 744L665 744L548 305L423 744L-13 744L247 0ZM726 776L1044 776L1138 940L784 940Z"  horiz-adv-x="1750" vert-adv-y="1000"  />

      
      <glyph glyph-name="uni0174" unicode="&#x0174;" d="M762 0L876 413L987 0L1496 0L1763 744L1353 744L1235 297L1120 744L665 744L548 305L423 744L-13 744L247 0ZM1054 940L712 940L543 775L828 775L883 833L937 775L1225 775Z"  horiz-adv-x="1750" vert-adv-y="1000"  />

      
      <glyph glyph-name="uni1E84" unicode="&#x1E84;" d="M762 0L876 413L987 0L1496 0L1763 744L1353 744L1235 297L1120 744L665 744L548 305L423 744L-13 744L247 0ZM1195 940L904 940L904 776L1195 776ZM864 940L574 940L574 776L864 776Z"  horiz-adv-x="1750" vert-adv-y="1000"  />

      
      <glyph glyph-name="uni1E80" unicode="&#x1E80;" d="M762 0L876 413L987 0L1496 0L1763 744L1353 744L1235 297L1120 744L665 744L548 305L423 744L-13 744L247 0ZM993 940L639 940L734 776L1052 776Z"  horiz-adv-x="1750" vert-adv-y="1000"  />

      
      <glyph glyph-name="uni0176" unicode="&#x0176;" d="M408 0L788 0L788 259L1209 744L806 744L612 520L421 744L-17 744L408 264ZM784 940L442 940L273 775L558 775L613 833L667 775L955 775Z"  horiz-adv-x="1192" vert-adv-y="1000"  />

      
      <glyph glyph-name="uni1EF2" unicode="&#x1EF2;" d="M408 0L788 0L788 259L1209 744L806 744L612 520L421 744L-17 744L408 264ZM713 940L359 940L454 776L772 776Z"  horiz-adv-x="1192" vert-adv-y="1000"  />

      
      <glyph glyph-name="uni0179" unicode="&#x0179;" d="M22 744L22 503L450 503L19 181L19 0L1014 0L1014 254L568 254L1011 565L1011 744ZM357 776L675 776L769 940L415 940Z"  horiz-adv-x="1033" vert-adv-y="1000"  />

      
      <glyph glyph-name="uni017B" unicode="&#x017B;" d="M22 744L22 503L450 503L19 181L19 0L1014 0L1014 254L568 254L1011 565L1011 744ZM698 951L334 951L334 776L698 776Z"  horiz-adv-x="1033" vert-adv-y="1000"  />

      
      <glyph glyph-name="uni0103" unicode="&#x0103;" d="M473 571C660 571 711 687 711 742L711 744L511 744C509 732 499 702 448 702L446 702C395 702 381 732 381 744L179 744L179 742C179 687 214 571 419 571ZM519 215C519 172 487 137 424 137C377 137 364 162 364 181L364 182C364 203 378 213 403 220L519 251ZM522 68C529 28 557 0 613 0L926 0L926 177L895 177C886 177 881 183 881 194L881 378C881 441 855 551 471 551L414 551C49 551 24 447 24 373L24 361L362 361C362 374 366 405 444 405L446 405C507 405 520 388 520 371L520 370C520 359 516 351 496 348L213 325C53 312 11 253 11 178L11 158C11 75 77-10 257-10L263-10C416-10 494 43 522 68Z"  horiz-adv-x="933" vert-adv-y="1000"  />

      
      <glyph glyph-name="uni0101" unicode="&#x0101;" d="M519 215C519 172 487 137 424 137C377 137 364 162 364 181L364 182C364 203 378 213 403 220L519 251ZM522 68C529 28 557 0 613 0L926 0L926 177L895 177C886 177 881 183 881 194L881 378C881 441 855 551 471 551L414 551C49 551 24 447 24 373L24 361L362 361C362 374 366 405 444 405L446 405C507 405 520 388 520 371L520 370C520 359 516 351 496 348L213 325C53 312 11 253 11 178L11 158C11 75 77-10 257-10L263-10C416-10 494 43 522 68ZM194 582L703 582L703 724L194 724Z"  horiz-adv-x="933" vert-adv-y="1000"  />

      
      <glyph glyph-name="uni0105" unicode="&#x0105;" d="M519 215C519 172 487 137 424 137C377 137 364 162 364 181L364 182C364 203 378 213 403 220L519 251ZM522 68C529 28 557 0 613 0L926 0L926 177L895 177C886 177 881 183 881 194L881 378C881 441 855 551 471 551L414 551C49 551 24 447 24 373L24 361L362 361C362 374 366 405 444 405L446 405C507 405 520 388 520 371L520 370C520 359 516 351 496 348L213 325C53 312 11 253 11 178L11 158C11 75 77-10 257-10L263-10C416-10 494 43 522 68ZM540-114C540-161 585-188 719-188L926-188L926-74L888-74C871-74 863-68 863-57L863-56C863-37 891-19 926 0L778 0C621-25 540-53 540-109Z"  horiz-adv-x="933" vert-adv-y="1000"  />

      
      <glyph glyph-name="uni01FB" unicode="&#x01FB;" d="M299 833L607 833L726 1008L384 1008ZM238 692C238 627 280 570 449 570C617 570 660 626 660 692C660 758 617 815 449 815C283 815 238 758 238 692ZM377 693C377 720 400 735 449 735C500 735 521 720 521 693C521 666 500 650 449 650C401 650 377 664 377 693ZM519 215C519 172 487 137 424 137C377 137 364 162 364 181L364 182C364 203 378 213 403 220L519 251ZM522 68C529 28 557 0 613 0L926 0L926 177L895 177C886 177 881 183 881 194L881 378C881 441 855 551 471 551L414 551C49 551 24 447 24 373L24 361L362 361C362 374 366 405 444 405L446 405C507 405 520 388 520 371L520 370C520 359 516 351 496 348L213 325C53 312 11 253 11 178L11 158C11 75 77-10 257-10L263-10C416-10 494 43 522 68Z"  horiz-adv-x="933" vert-adv-y="1000"  />

      
      <glyph glyph-name="uni01FD" unicode="&#x01FD;" d="M988 407C1063 407 1090 382 1095 347L879 347C882 377 903 407 988 407ZM424 137C377 137 364 162 364 181L364 182C364 205 380 213 403 220L519 251L519 215C519 172 488 137 424 137ZM1455 206L1097 206C1094 200 1089 151 989 151C900 151 881 202 878 239L1455 239L1455 254C1455 376 1430 550 1006 550L963 550C850 550 774 535 714 503C661 536 582 551 467 551L414 551C40 551 25 436 25 373L25 361L362 361C362 374 366 405 444 405L446 405C507 405 520 388 520 371L520 370C520 358 515 351 496 348L213 325C56 312 11 253 11 178L11 158C11 75 74-10 273-10L280-10C468-10 540 47 589 85C652 30 753-13 961-13L1006-13C1403-13 1455 122 1455 203ZM564 569L872 569L991 744L649 744Z"  horiz-adv-x="1466" vert-adv-y="1000"  />

      
      <glyph glyph-name="uni0107" unicode="&#x0107;" d="M327 576L635 576L751 744L409 744ZM520-15C932-15 949 176 949 244L949 247L580 247C580 229 567 155 485 155L480 155C394 155 382 223 382 276L382 277C382 326 394 386 480 386L485 386C567 386 580 319 580 301L949 301L949 304C949 380 922 553 521 553L449 553C29 553 13 375 13 279L13 265C13 168 30-15 450-15Z"  horiz-adv-x="959" vert-adv-y="1000"  />

      
      <glyph glyph-name="uni010D" unicode="&#x010D;" d="M298 576L665 576L815 744L535 744L483 674L432 744L149 744ZM520-15C932-15 949 176 949 244L949 247L580 247C580 229 567 155 485 155L480 155C394 155 382 223 382 276L382 277C382 326 394 386 480 386L485 386C567 386 580 319 580 301L949 301L949 304C949 380 922 553 521 553L449 553C29 553 13 375 13 279L13 265C13 168 30-15 450-15Z"  horiz-adv-x="959" vert-adv-y="1000"  />

      
      <glyph glyph-name="uni0109" unicode="&#x0109;" d="M654 744L309 744L153 574L428 574L479 639L531 574L809 574ZM520-15C932-15 949 176 949 244L949 247L580 247C580 229 567 155 485 155L480 155C394 155 382 223 382 276L382 277C382 326 394 386 480 386L485 386C567 386 580 319 580 301L949 301L949 304C949 380 922 553 521 553L449 553C29 553 13 375 13 279L13 265C13 168 30-15 450-15Z"  horiz-adv-x="959" vert-adv-y="1000"  />

      
      <glyph glyph-name="uni010B" unicode="&#x010B;" d="M664 744L298 744L298 576L664 576ZM520-15C932-15 949 176 949 244L949 247L580 247C580 229 567 155 485 155L480 155C394 155 382 223 382 276L382 277C382 326 394 386 480 386L485 386C567 386 580 319 580 301L949 301L949 304C949 380 922 553 521 553L449 553C29 553 13 375 13 279L13 265C13 168 30-15 450-15Z"  horiz-adv-x="959" vert-adv-y="1000"  />

      
      <glyph glyph-name="uni010F" unicode="&#x010F;" d="M586 271C586 223 562 167 481 167L477 167C401 167 382 225 382 272L382 277C382 319 401 375 478 375L482 375C562 375 586 319 586 279ZM586 744L586 479C563 495 492 542 333 542L308 542C88 542 14 407 14 284L14 259C14 130 91-4 314-4L339-4C499-4 562 49 586 71L586 0L950 0L950 744ZM971 568L1213 568L1238 744L981 744Z"  horiz-adv-x="977" vert-adv-y="1000"  />

      
      <glyph glyph-name="uni0115" unicode="&#x0115;" d="M510 573C697 573 748 689 748 742L748 744L547 744C545 734 537 704 485 704L483 704C432 704 419 734 419 744L216 744L216 742C216 689 251 573 456 573ZM373 347C378 378 396 407 481 407C561 407 584 380 589 347ZM949 206L590 206C587 195 578 151 483 151C396 151 375 199 372 239L949 239L949 253C949 378 920 553 499 553L455 553C43 553 13 381 13 281L13 267C13 167 41-15 454-15L499-15C907-15 949 126 949 204Z"  horiz-adv-x="960" vert-adv-y="1000"  />

      
      <glyph glyph-name="uni011B" unicode="&#x011B;" d="M299 576L666 576L816 744L536 744L484 674L433 744L150 744ZM373 347C378 378 396 407 481 407C561 407 584 380 589 347ZM949 206L590 206C587 195 578 151 483 151C396 151 375 199 372 239L949 239L949 253C949 378 920 553 499 553L455 553C43 553 13 381 13 281L13 267C13 167 41-15 454-15L499-15C907-15 949 126 949 204Z"  horiz-adv-x="960" vert-adv-y="1000"  />

      
      <glyph glyph-name="uni0117" unicode="&#x0117;" d="M666 744L300 744L300 576L666 576ZM373 347C378 378 396 407 481 407C561 407 584 380 589 347ZM949 206L590 206C587 195 578 151 483 151C396 151 375 199 372 239L949 239L949 253C949 378 920 553 499 553L455 553C43 553 13 381 13 281L13 267C13 167 41-15 454-15L499-15C907-15 949 126 949 204Z"  horiz-adv-x="960" vert-adv-y="1000"  />

      
      <glyph glyph-name="uni0113" unicode="&#x0113;" d="M373 347C378 378 396 407 481 407C561 407 584 380 589 347ZM949 206L590 206C587 195 578 151 483 151C396 151 375 199 372 239L949 239L949 253C949 378 920 553 499 553L455 553C43 553 13 381 13 281L13 267C13 167 41-15 454-15L499-15C907-15 949 126 949 204ZM228 584L737 584L737 726L228 726Z"  horiz-adv-x="960" vert-adv-y="1000"  />

      
      <glyph glyph-name="uni0119" unicode="&#x0119;" d="M809-74L768-74C751-74 743-68 743-57L743-56C743-35 773-18 806 5C911 75 949 131 949 204L949 206L590 206C587 195 578 151 483 151C396 151 375 199 372 239L949 239L949 253C949 378 920 553 499 553L455 553C43 553 13 381 13 281L13 267C13 167 41-15 454-15L499-15C555-15 612-11 653-6C485-33 420-57 420-109L420-114C420-161 465-188 599-188L809-188ZM373 347C378 378 396 407 481 407C561 407 584 380 589 347Z"  horiz-adv-x="960" vert-adv-y="1000"  />

      
      </font>
</defs>
</svg>
