<svg width="20" height="14" fill="none" xmlns="http://www.w3.org/2000/svg"><path fill-rule="evenodd" clip-rule="evenodd" d="M5.79.001a6.7 6.7 0 0 1 1.606.165c.444.097.865.277 1.242.531.348.253.623.593.798.986a3.72 3.72 0 0 1 .284 1.525A2.927 2.927 0 0 1 9.3 4.842a3.102 3.102 0 0 1-1.253 1.072c.687.185 1.287.61 1.69 1.198.386.623.58 1.346.558 2.078a3.838 3.838 0 0 1-.353 1.694 3.3 3.3 0 0 1-.969 1.177 4.275 4.275 0 0 1-1.402.673 5.97 5.97 0 0 1-1.608.216H0V0h5.79Zm-.345 5.237c.425.018.843-.11 1.186-.36A1.41 1.41 0 0 0 7.098 3.7a1.59 1.59 0 0 0-.149-.743 1.077 1.077 0 0 0-.412-.445 1.547 1.547 0 0 0-.593-.228 3.331 3.331 0 0 0-.695-.06H2.7V5.25h2.744v-.012Zm.912 5.43c-.25.059-.507.087-.763.083H2.7V7.185h2.95a2.177 2.177 0 0 1 1.413.421c.39.368.587.896.535 1.43a1.83 1.83 0 0 1-.159.84 1.372 1.372 0 0 1-.445.516c-.193.132-.41.226-.638.277Zm9.368.6a2.133 2.133 0 0 1-1.584-.565 2.552 2.552 0 0 1-.574-1.822h6.416a7.008 7.008 0 0 0-.17-2.09 5.166 5.166 0 0 0-.787-1.778 4.157 4.157 0 0 0-1.39-1.237 4.06 4.06 0 0 0-1.98-.469 4.417 4.417 0 0 0-4.24 3.003 5.768 5.768 0 0 0-.33 1.958c-.009.678.1 1.353.32 1.994.196.574.502 1.104.9 1.562.4.436.89.78 1.435 1.009.604.246 1.252.369 1.904.36a4.405 4.405 0 0 0 2.575-.732 4.242 4.242 0 0 0 1.585-2.415H17.65c-.12.34-.348.63-.649.825-.37.269-.819.408-1.276.396Zm-.148-6.006a1.777 1.777 0 0 1 1.379.517h.001c.334.428.532.947.566 1.488H13.55a2.73 2.73 0 0 1 .114-.612c.068-.239.18-.463.33-.66.17-.21.379-.386.615-.517.3-.154.633-.229.97-.216Zm2.44-4.396h-4.98v1.273h4.98V.866Z" fill="#fff"/></svg>