<svg width="20" height="20" fill="none" xmlns="http://www.w3.org/2000/svg"><path fill-rule="evenodd" clip-rule="evenodd" d="M10 0C4.477 0 0 4.477 0 10s4.477 10 10 10 10-4.477 10-10S15.523 0 10 0Zm2.209 6.052c1.385.478 2.398 1.193 2.199 2.524-.144.974-.684 1.445-1.401 1.61.984.513 1.485 1.299 1.008 2.661-.592 1.693-1.999 1.835-3.87 1.481l-.454 1.82-1.097-.273.448-1.796c-.284-.07-.575-.145-.874-.227l-.45 1.804-1.096-.273.454-1.823a47.755 47.755 0 0 0-.782-.202l-1.428-.356.545-1.256s.808.215.797.199c.31.077.449-.126.503-.26l.718-2.877.078.02.038.008A.91.91 0 0 0 7.43 8.8l.512-2.054c.014-.233-.067-.527-.51-.638.016-.011-.798-.198-.798-.198l.292-1.172 1.513.378-.001.006c.227.056.462.11.7.164l.45-1.801 1.097.273-.44 1.767c.294.067.59.135.878.206l.438-1.755 1.097.274-.45 1.802Zm-3.47 6.536c.894.236 2.851.753 3.162-.497.319-1.278-1.579-1.704-2.505-1.912a12.119 12.119 0 0 1-.27-.062l-.602 2.415.214.055Zm3.502-4.032c-.284 1.136-1.912.701-2.659.502a11.871 11.871 0 0 0-.18-.047l.547-2.19.226.051c.773.171 2.355.522 2.066 1.684Z" fill="#fff"/></svg>