<svg width="20" height="20" fill="none" xmlns="http://www.w3.org/2000/svg"><path fill-rule="evenodd" clip-rule="evenodd" d="M10 0C7.284 0 6.944.012 5.877.06 4.813.11 4.086.278 3.45.525a4.902 4.902 0 0 0-1.772 1.153A4.902 4.902 0 0 0 .525 3.45C.278 4.086.109 4.813.06 5.877.012 6.944 0 7.284 0 10s.012 3.056.06 4.123c.049 1.064.218 1.791.465 2.427a4.902 4.902 0 0 0 1.153 1.772 4.902 4.902 0 0 0 1.772 1.153c.636.247 1.363.416 2.427.465 1.067.048 1.407.06 4.123.06s3.056-.012 4.123-.06c1.064-.049 1.791-.218 2.427-.465a4.902 4.902 0 0 0 1.772-1.153 4.902 4.902 0 0 0 1.153-1.772c.247-.636.416-1.363.465-2.427.048-1.067.06-1.407.06-4.123s-.012-3.056-.06-4.123c-.049-1.064-.218-1.791-.465-2.427a4.902 4.902 0 0 0-1.153-1.772A4.902 4.902 0 0 0 16.55.525C15.914.278 15.187.109 14.123.06 13.056.012 12.716 0 10 0Zm0 1.802c2.67 0 2.986.01 4.04.058.976.045 1.505.207 1.858.344.466.182.8.399 1.15.748.35.35.566.684.748 1.15.137.353.3.882.344 1.857.048 1.055.058 1.37.058 4.041 0 2.67-.01 2.986-.058 4.04-.045.976-.207 1.505-.344 1.858-.182.466-.398.8-.748 1.15-.35.35-.683.566-1.15.748-.353.137-.882.3-1.857.344-1.054.048-1.37.058-4.041.058-2.67 0-2.987-.01-4.04-.058-.976-.045-1.505-.207-1.858-.344a3.097 3.097 0 0 1-1.15-.748 3.098 3.098 0 0 1-.748-1.15c-.137-.353-.3-.882-.344-1.857-.048-1.055-.058-1.37-.058-4.041 0-2.67.01-2.986.058-4.04.045-.976.207-1.505.344-1.858.182-.466.399-.8.748-1.15.35-.35.684-.566 1.15-.748.353-.137.882-.3 1.857-.344 1.055-.048 1.37-.058 4.041-.058Zm0 11.531a3.333 3.333 0 1 1 0-6.666 3.333 3.333 0 0 1 0 6.666Zm0-8.468a5.135 5.135 0 1 0 0 10.27 5.135 5.135 0 0 0 0-10.27Zm5.338.997a1.2 1.2 0 1 0 0-2.4 1.2 1.2 0 0 0 0 2.4Z" fill="#fff"/></svg>