<svg width="20" height="12" fill="none" xmlns="http://www.w3.org/2000/svg"><path fill-rule="evenodd" clip-rule="evenodd" d="M11.281 6c0 3.136-2.525 5.679-5.64 5.679C2.526 11.679 0 9.136 0 5.999 0 2.863 2.525.32 5.64.32c3.116 0 5.641 2.543 5.641 5.68Zm6.188 0c0 2.952-1.263 5.346-2.82 5.346-1.558 0-2.82-2.394-2.82-5.347 0-2.952 1.262-5.346 2.82-5.346 1.557 0 2.82 2.393 2.82 5.346Zm1.54 4.79c.547 0 .991-2.146.991-4.79 0-2.646-.444-4.79-.992-4.79s-.992 2.144-.992 4.79c0 2.645.444 4.79.992 4.79Z" fill="#fff"/></svg>