<svg width="20" height="20" fill="none" xmlns="http://www.w3.org/2000/svg"><path fill-rule="evenodd" clip-rule="evenodd" d="M10 20c5.523 0 10-4.477 10-10S15.523 0 10 0 0 4.477 0 10s4.477 10 10 10Zm-6.944-8.718C3.004 11.03 3 10.863 3 8.76V6.509l.858.007.857.008.015 2.252.014 2.253.07.165a1.59 1.59 0 0 0 1.498.974c.77 0 1.438-.54 1.552-1.254.02-.129.032-.936.032-2.301V6.509l.855.007.855.008.18.494c.381 1.044.849 1.99 1.345 2.717.122.18.152.208.17.165l.147-.353c.278-.668.79-1.286 1.344-1.623 1.958-1.19 4.557-.197 5.139 1.963.092.343.092 1.09 0 1.435-.287 1.064-1.06 1.89-2.129 2.275-.575.207-1.32.253-2.001.124a4.068 4.068 0 0 1-1.168-.394l-.33-.162-.223.992c-.457 2.027-.521 2.306-.537 2.329-.008.012-.405.023-.882.023h-.867l.016-.103c.014-.091.384-1.723.856-3.776.089-.388.162-.717.162-.73 0-.014-.065-.106-.145-.204a9.544 9.544 0 0 1-.889-1.334l-.16-.283-.017.516c-.013.36-.036.586-.075.75-.47 1.925-2.635 2.974-4.543 2.202-.998-.404-1.735-1.262-1.943-2.265Zm13.18-1.076c-.151-.543-.645-1-1.219-1.127a2.297 2.297 0 0 0-.844.002 1.78 1.78 0 0 0-.306.115c-.176.089-.461.329-.549.461-.034.052-.076.087-.093.077-.018-.01-.023-.006-.013.01.01.015-.026.112-.08.216-.135.26-.207.48-.313.945-.09.401-.126.515-.086.581.024.038.073.06.151.113.59.393 1.119.57 1.704.57.328 0 .547-.05.825-.186.385-.189.71-.578.823-.983a1.851 1.851 0 0 0 0-.794Z" fill="#fff"/></svg>