<svg width="22" height="16" viewBox="0 0 22 16" fill="none" xmlns="http://www.w3.org/2000/svg">
<path fill-rule="evenodd" clip-rule="evenodd" d="M8.75 11.2711V4.72888L14.5 8.00012L8.75 11.2711ZM21.5403 2.67038C21.2873 1.71763 20.5417 0.967375 19.5952 0.71275C17.8796 0.25 11 0.25 11 0.25C11 0.25 4.12038 0.25 2.40475 0.71275C1.45825 0.967375 0.71275 1.71763 0.45975 2.67038C0 4.39713 0 8 0 8C0 8 0 11.6027 0.45975 13.3296C0.71275 14.2824 1.45825 15.0326 2.40475 15.2874C4.12038 15.75 11 15.75 11 15.75C11 15.75 17.8796 15.75 19.5952 15.2874C20.5417 15.0326 21.2873 14.2824 21.5403 13.3296C22 11.6027 22 8 22 8C22 8 22 4.39713 21.5403 2.67038Z" fill="white"/>
</svg>
