<svg width="36" height="36" viewBox="0 0 36 36" fill="none" xmlns="http://www.w3.org/2000/svg">
<path d="M30.7801 2.99992H5.2143C4.00596 2.98615 3.01492 3.95392 3 5.16225V30.834C3.01427 32.043 4.0053 33.0118 5.2143 32.9987H30.7797C31.9901 33.0127 32.9833 32.0443 33 30.834V5.16225C32.9827 3.95259 31.9894 2.98525 30.7797 2.99992" fill="#0A66C2"/>
<path fill-rule="evenodd" clip-rule="evenodd" d="M9.59696 12.1935C8.16186 12.194 6.99813 11.031 6.99768 9.59586C6.99724 8.16076 8.16025 6.99703 9.59535 6.99658C11.0304 6.99614 12.1942 8.15915 12.1946 9.59425C12.1948 10.2834 11.9213 10.9444 11.4341 11.4319C10.947 11.9193 10.2861 12.1933 9.59696 12.1935ZM28.9848 29.3827H24.3732V22.1758C24.3732 20.4575 24.3425 18.2444 21.9748 18.2444C19.5738 18.2444 19.2056 20.117 19.2056 22.0516V29.3827H14.5932V14.5621H19.0198V16.5874H19.082C19.9846 15.0475 21.663 14.1281 23.4493 14.195C28.1231 14.195 28.9848 17.2652 28.9848 21.2538V29.3827ZM7.39744 28.9829H11.7949L11.7941 14.1916H7.39744V28.9829Z" fill="white"/>
</svg>
