<svg width="24" height="24" viewBox="0 0 24 24" fill="none" xmlns="http://www.w3.org/2000/svg">
<path fill-rule="evenodd" clip-rule="evenodd" d="M12.7471 14.3438L11.4268 15.6641C10.6064 15.5078 9.98926 15.1641 9.56738 14.7344C7.59082 12.7656 7.59863 9.98438 9.55176 8.02344L12.3174 5.26563C14.2705 3.3125 17.0439 3.29688 19.0205 5.27344C20.9971 7.25 20.9971 10.0391 19.0283 11.9844L16.8408 14.1719C17.0205 13.4766 16.9111 12.6797 16.6377 12.0469L17.8018 10.8828C19.083 9.60156 19.0908 7.79688 17.7939 6.5C16.5049 5.21875 14.708 5.21875 13.4189 6.5L10.7861 9.13281C9.50488 10.4141 9.50488 12.2188 10.7939 13.5078C11.2471 13.9609 11.9033 14.2578 12.7471 14.3438ZM14.4385 16.5858L11.6807 19.3436C9.72754 21.3046 6.9541 21.3124 4.96973 19.3358C3.00098 17.3592 3.00098 14.578 4.96192 12.6249L7.15723 10.4374C6.97754 11.1327 7.08692 11.9374 7.36035 12.5702L6.19629 13.7342C4.91504 15.0155 4.90723 16.8124 6.2041 18.1092C7.48535 19.3983 9.29004 19.3905 10.5791 18.1092L13.2119 15.4764C14.4932 14.203 14.4932 12.3905 13.2041 11.1014C12.751 10.6483 12.0947 10.3592 11.251 10.2733L12.5713 8.94518C13.3916 9.10143 14.0088 9.44518 14.4307 9.87487C16.4072 11.8514 16.3994 14.6249 14.4385 16.5858Z" fill="#090D14"/>
</svg>
