<svg width="96" height="96" viewBox="0 0 0.096 0.096" fill="none" xmlns="http://www.w3.org/2000/svg">
<g id="roobinium_mark">
<rect id="shape" width="0.09375" height="0.09375" rx="48" fill="black"/>
<path id="shape_2" fill-rule="evenodd" clip-rule="evenodd" d="M0.0343148 0.0843044C0.0178481 0.0793227 0.00585938 0.0640302 0.00585938 0.0459375C0.00585938 0.023803 0.023803 0.00585938 0.0459375 0.00585938C0.060606 0.00585938 0.073434 0.0137396 0.0804189 0.0254977H0.0471398C0.0400568 0.0254977 0.0343148 0.0312396 0.0343148 0.0383227V0.0843044ZM0.0471398 0.0315085C0.043377 0.0315085 0.0403266 0.0345589 0.0403266 0.0383217V0.085625C0.04216 0.0858819 0.0440333 0.0860147 0.0459375 0.0860147C0.068072 0.0860147 0.0860156 0.0680711 0.0860156 0.0459366C0.0860156 0.0408503 0.0850681 0.0359853 0.08334 0.0315085H0.0471398ZM0.0808055 0.0459363C0.0808055 0.0651934 0.0651945 0.0808043 0.0459375 0.0808043C0.0458038 0.0808043 0.0456702 0.0808036 0.0455367 0.0808021V0.0383215C0.0455367 0.0374361 0.0462545 0.0367184 0.0471398 0.0367184H0.0795754C0.0803879 0.0396911 0.0808055 0.0427827 0.0808055 0.0459363ZM0.0471398 0.0202873C0.0371793 0.0202873 0.0291047 0.0283619 0.0291047 0.0383224V0.0764863C0.0182106 0.0704789 0.0110695 0.0589029 0.0110695 0.0459373C0.0110695 0.0266802 0.0266804 0.0110693 0.0459375 0.0110693C0.0548902 0.0110693 0.0632503 0.0144689 0.0695632 0.0202873H0.0471398Z" fill="white"/>
</g>
</svg>
