<svg width="96" height="96" viewBox="0 0 96 96" fill="none" xmlns="http://www.w3.org/2000/svg">
<circle cx="48" cy="48" r="48" fill="#DD1539"/>
<path d="M72.8619 25.1872C72.4317 24.2752 70.556 20.4623 66.3842 17.1572C64.5602 15.7116 61.1516 13.4575 56.3168 12.5326C50.7025 11.4589 46.3076 12.7751 45.3374 13.0823C44.4545 13.3637 36.3954 16.0576 32.4337 24.1523C31.9745 25.0869 30.8167 27.4962 30.4869 30.6462C29.0186 44.7496 45.5249 60.9195 45.3891 68.6326C45.3568 70.421 44.7358 72.0089 44.7358 72.0089C44.4674 72.6751 43.3549 75.4466 40.619 76.8049C37.4949 78.354 34.054 77.2771 32.8703 76.682C30.71 75.5986 26.8195 73.2055 24.3488 68.6067C20.7073 61.8283 21.9782 53.1774 26.2148 47.298C28.029 44.7819 30.102 43.1908 31.4959 42.2756C29.8013 43.3654 26.8616 45.571 24.4911 49.3677C23.3236 51.2402 21.4058 54.8946 21.0921 59.8782C20.9628 61.9221 20.9919 65.7996 22.8288 70.1558C24.9244 75.1265 28.2554 78.0532 29.9048 79.3242C30.9202 80.1068 34.2998 82.5226 39.3965 83.4928C41.5407 83.9003 45.6478 84.3692 50.3759 82.943C50.3792 82.943 50.3953 82.9365 50.4212 82.9301C50.4212 82.9301 50.9839 82.7619 51.5305 82.5711C51.7245 82.5032 62.5131 78.3313 65.3913 67.1159C65.3913 67.1159 67.2218 59.6615 64.6378 53.9503C64.6346 53.9471 64.6313 53.9374 64.6281 53.9309C60.6794 45.2023 54.8712 40.9238 51.7213 32.4475C50.0816 28.0363 50.4341 25.9051 50.8707 24.6212C51.9606 21.4034 54.7386 19.8867 55.1299 19.6829C57.8206 18.2664 60.411 18.703 61.5235 18.91C67.8104 20.0678 71.1252 26.3999 71.6297 27.3669C75.4264 34.6272 73.2661 43.2878 69.4985 48.7306C67.888 51.0591 66.0866 52.6405 64.7704 53.6334C66.6235 52.4141 69.4823 50.1665 71.7041 46.4765C75.5396 40.1088 76.015 31.8815 72.8619 25.1872Z" fill="white"/>
<path d="M50.9414 24.7024C53.2601 23.4831 55.4916 23.8583 56.4521 24.0362C61.869 25.0322 64.7246 30.4912 65.1612 31.3223C68.434 37.5801 66.5712 45.0409 63.3243 49.7334C61.9369 51.7385 60.3846 53.1033 59.2495 53.957C60.8471 52.906 63.3114 50.9688 65.2227 47.7898C68.5278 42.305 68.9385 35.2161 66.222 29.4466C65.8533 28.6608 64.2363 25.375 60.6401 22.5259C59.0684 21.2808 56.1319 19.3372 51.9665 18.5384C47.1285 17.6134 43.3415 18.7486 42.5071 19.0138" fill="url(#paint0_linear_664_1331)"/>
<path d="M50.473 31.1575C51.883 30.4169 53.238 30.6465 53.8201 30.7533C57.1123 31.358 58.8458 34.6761 59.1109 35.1806C61.0998 38.9805 59.9679 43.5146 57.9952 46.367C57.1511 47.5862 56.2101 48.4141 55.5212 48.9348C56.4914 48.2944 57.9887 47.1205 59.1498 45.1898C61.1581 41.8588 61.4071 37.5511 59.7545 34.0455C59.5314 33.5701 58.5482 31.5715 56.3621 29.8413C55.408 29.0845 53.6229 27.9041 51.0907 27.419C48.151 26.8563 45.8516 27.5451 45.3438 27.7068" fill="url(#paint1_linear_664_1331)"/>
<path d="M45.14 70.5154C42.8212 71.7346 40.5898 71.3595 39.6293 71.1816C34.2124 70.1856 31.3567 64.7266 30.9201 63.8954C27.6473 57.6377 29.5101 50.1769 32.7571 45.4843C34.1444 43.4793 35.6968 42.1145 36.8319 41.2607C35.2343 42.3118 32.77 44.249 30.8587 47.428C27.5536 52.9128 27.1428 60.0017 29.8594 65.7712C30.2281 66.557 31.8451 69.8428 35.4413 72.6919C37.013 73.937 39.9495 75.8806 44.1148 76.6794C48.9529 77.6043 52.7399 76.4692 53.5743 76.204" fill="url(#paint2_linear_664_1331)"/>
<path d="M45.609 64.0497C44.199 64.7903 42.8439 64.5607 42.2618 64.454C38.9696 63.8492 37.2362 60.5311 36.971 60.0266C34.9821 56.2267 36.114 51.6926 38.0867 48.8403C38.9308 47.621 39.8719 46.7931 40.5607 46.2725C39.5905 46.9128 38.0932 48.0867 36.9322 50.0174C34.9239 53.3484 34.6749 57.6561 36.3274 61.1618C36.5506 61.6372 37.5337 63.6358 39.7199 65.3659C40.6739 66.1227 42.4591 67.3031 44.9913 67.7882C47.931 68.3509 50.2304 67.6621 50.7381 67.5004" fill="url(#paint3_linear_664_1331)"/>
<defs>
<linearGradient id="paint0_linear_664_1331" x1="54.2058" y1="23.258" x2="61.4888" y2="48.7567" gradientUnits="userSpaceOnUse">
<stop stop-color="white"/>
<stop offset="0.9617" stop-color="white" stop-opacity="0"/>
</linearGradient>
<linearGradient id="paint1_linear_664_1331" x1="52.4576" y1="30.2822" x2="56.8822" y2="45.7731" gradientUnits="userSpaceOnUse">
<stop stop-color="white"/>
<stop offset="0.9617" stop-color="white" stop-opacity="0"/>
</linearGradient>
<linearGradient id="paint2_linear_664_1331" x1="41.8742" y1="71.9577" x2="34.5912" y2="46.459" gradientUnits="userSpaceOnUse">
<stop stop-color="white"/>
<stop offset="0.9617" stop-color="white" stop-opacity="0"/>
</linearGradient>
<linearGradient id="paint3_linear_664_1331" x1="43.6262" y1="64.9262" x2="39.2016" y2="49.4353" gradientUnits="userSpaceOnUse">
<stop stop-color="white"/>
<stop offset="0.9617" stop-color="white" stop-opacity="0"/>
</linearGradient>
</defs>
</svg>
