<svg width="32" height="32" viewBox="0 0 0.032 0.032" fill="none" xmlns="http://www.w3.org/2000/svg">
<g id="medium">
<path id="Shape" fill-rule="evenodd" clip-rule="evenodd" d="M0.015625 0.00260401C0.00843671 0.00260401 0.00260417 0.00843655 0.00260417 0.0156248C0.00260417 0.0228132 0.00843671 0.0286457 0.015625 0.0286457C0.0227992 0.0286457 0.0286458 0.0228132 0.0286458 0.0156248C0.0286458 0.00843655 0.0227992 0.00260401 0.015625 0.00260401ZM0.0242255 0.00860597C0.025779 0.0104984 0.0267111 0.0129133 0.0267393 0.0155259C0.0263722 0.0154554 0.0227003 0.0147068 0.0190002 0.0151729C0.0189155 0.0149893 0.0188449 0.0147915 0.0187602 0.0145939C0.0185342 0.0140572 0.01828 0.0135065 0.0180258 0.0129839C0.0221213 0.0113175 0.0239854 0.00891667 0.0242255 0.00860597ZM0.015625 0.00452451C0.0184495 0.00452451 0.0210339 0.00558369 0.0229969 0.00732074C0.0227992 0.00760319 0.0211186 0.00984864 0.0171643 0.0113315C0.0153425 0.00798448 0.0133231 0.00524475 0.0130124 0.00482107C0.0138455 0.00462336 0.0147212 0.00452451 0.015625 0.00452451ZM0.010894 0.00556947C0.0111906 0.0059649 0.0131677 0.00871877 0.0150177 0.0119951C0.0098207 0.0133792 0.00523093 0.0133509 0.00473664 0.0133509C0.00545688 0.00990504 0.00778707 0.0070382 0.010894 0.00556947ZM0.00449656 0.0156391C0.00449656 0.0155261 0.00449656 0.0154131 0.00449656 0.0153001C0.00497672 0.0153142 0.0103715 0.0153849 0.0159215 0.0137184C0.0162464 0.0143398 0.016543 0.0149753 0.0168254 0.0156108C0.0166842 0.0156532 0.0165288 0.0156956 0.0163876 0.0157379C0.0106539 0.0175879 0.00760349 0.0226437 0.00734928 0.0230674C0.00558398 0.0211044 0.00449656 0.0184918 0.00449656 0.0156391ZM0.015625 0.0267534C0.0130547 0.0267534 0.0106822 0.0258778 0.00880389 0.0244091C0.00900161 0.0239996 0.0112612 0.0196499 0.0175315 0.0174609C0.0175597 0.0174468 0.0175739 0.0174468 0.0176021 0.0174327C0.0191697 0.0214857 0.0198053 0.0248892 0.0199747 0.0258637C0.0186331 0.0264427 0.0171643 0.0267534 0.015625 0.0267534ZM0.0218247 0.0248466C0.0217117 0.0241687 0.0211186 0.0209206 0.019664 0.0169239C0.0231523 0.0163731 0.0262026 0.017277 0.026584 0.0174041C0.0261038 0.0204969 0.0243244 0.023166 0.0218247 0.0248466Z" fill="#090D14"/>
</g>
</svg>
