<svg width="32" height="32" viewBox="0 0 0.032 0.032" fill="none" xmlns="http://www.w3.org/2000/svg">
<g id="medium">
<path id="Combined Shape" fill-rule="evenodd" clip-rule="evenodd" d="M0.0101421 0.007814C0.0108457 0.00780094 0.0115484 0.00787308 0.0122347 0.00802885C0.0128126 0.00815501 0.0133612 0.00838977 0.0138514 0.00872066C0.0143042 0.00904969 0.0146625 0.00949204 0.0148902 0.0100033C0.015152 0.010632 0.0152783 0.0113088 0.0152608 0.0119896C0.0152906 0.0127371 0.0150996 0.0134768 0.0147119 0.0141166C0.014304 0.0147208 0.0137401 0.0152033 0.0130801 0.0155131C0.0139758 0.0157545 0.0147559 0.0163076 0.0152802 0.0170728C0.0157835 0.0178837 0.0160364 0.018825 0.0160074 0.0197789C0.016024 0.0205394 0.0158668 0.0212937 0.0155476 0.0219843C0.0152527 0.0225867 0.0148208 0.0231117 0.0142865 0.0235172C0.0137364 0.0239183 0.0131175 0.024215 0.0124603 0.0243927C0.0117788 0.0245812 0.0110748 0.0246759 0.0103677 0.0246741H0.00260417V0.007814H0.0101421ZM0.00969413 0.014633C0.010247 0.0146558 0.0107912 0.0144903 0.0112378 0.0141636C0.0116715 0.0137775 0.011897 0.013209 0.0118458 0.0126307C0.0118601 0.0122975 0.0117938 0.0119659 0.0116525 0.0116639C0.0115326 0.0114234 0.0113461 0.0112224 0.0111153 0.0110848C0.0108816 0.0109334 0.010619 0.0108321 0.010344 0.0107873C0.0100458 0.0107295 0.00974223 0.0107032 0.00943846 0.0107089H0.00612122V0.0146481H0.00969413V0.014633ZM0.0108812 0.0217037C0.0105555 0.0217796 0.0102218 0.0218157 0.00988749 0.0218112H0.00612122V0.0171683H0.00996161C0.0106201 0.0171313 0.0112708 0.0173251 0.0118018 0.0177162C0.0123095 0.0181951 0.0125669 0.0188821 0.012499 0.0195768C0.0125173 0.0199529 0.0124463 0.020328 0.0122916 0.0206714C0.0121583 0.0209407 0.0119591 0.021172 0.0117126 0.0213439C0.011461 0.0215159 0.0111788 0.021638 0.0108812 0.0217037ZM0.0230791 0.022484C0.02232 0.0225319 0.0215744 0.0222663 0.0210166 0.0217492C0.0204699 0.0210847 0.0202023 0.020234 0.02027 0.0193762H0.0286243C0.0286871 0.0184632 0.0286122 0.0175459 0.028402 0.0166552C0.0282103 0.0158257 0.0278629 0.0150401 0.0273782 0.0143402C0.0269044 0.0136732 0.0262855 0.0131222 0.0255681 0.0127288C0.0247745 0.0123099 0.0238872 0.0120999 0.02299 0.0121187C0.0204967 0.0120876 0.0182675 0.0136666 0.0174695 0.0160289C0.0171799 0.0168474 0.0170345 0.0177099 0.0170398 0.0185781C0.0170275 0.019461 0.0171681 0.0203395 0.0174555 0.0211745C0.0177115 0.0219215 0.0181095 0.022612 0.0186275 0.023208C0.0191475 0.0237768 0.0197854 0.0242252 0.0204967 0.0245218C0.0212829 0.0248428 0.0221257 0.0250024 0.0229749 0.0249913C0.0241647 0.025029 0.0253369 0.0246957 0.0263287 0.0240373C0.0273626 0.023263 0.0280924 0.0221508 0.0283912 0.0208941H0.0255864C0.0254306 0.0213355 0.0251334 0.0217132 0.024741 0.0219684C0.0242586 0.0223178 0.0236746 0.022499 0.0230791 0.022484ZM0.0228868 0.0146642C0.0235543 0.0146183 0.0242089 0.0148636 0.0246819 0.0153367L0.024684 0.0153378C0.025119 0.0158945 0.0253759 0.0165695 0.025421 0.0172746H0.0202464C0.0202653 0.0170041 0.020315 0.0167367 0.0203946 0.0164775C0.0204829 0.0161667 0.0206287 0.0158753 0.0208243 0.0156181C0.0210451 0.0153439 0.0213173 0.0151154 0.0216257 0.0149457C0.0220147 0.0147445 0.0224492 0.0146475 0.0228868 0.0146642ZM0.0260633 0.00893962H0.0195793V0.0105972H0.0260633V0.00893962Z" fill="#090D14"/>
</g>
</svg>
