<svg width="32" height="32" viewBox="0 0 0.032 0.032" fill="none" xmlns="http://www.w3.org/2000/svg">
<g id="medium">
<path id="Vector" d="M0.0241635 0.00589291C0.0208147 0.00590993 0.018268 0.00823862 0.0173152 0.011949C0.0157164 0.00936255 0.014469 0.00640425 0.0137534 0.00390625L0.010228 0.00392327L0.0102717 0.0137443C0.0102756 0.014678 0.00992657 0.0155752 0.00930133 0.0162386C0.00867608 0.0169019 0.00782582 0.0172772 0.00693741 0.017282C0.006049 0.017286 0.0051954 0.0169192 0.00456424 0.016262C0.00393308 0.0156049 0.00357601 0.0147112 0.00357151 0.0137774L0.00352699 0.00395645L0 0.00397347L4.37133e-05 0.0137945C6.23317e-05 0.0178699 0.00316028 0.0210996 0.00695198 0.02108C0.0107437 0.0210605 0.0138149 0.0178027 0.0137971 0.0137264L0.013789 0.0120588C0.0144997 0.0135367 0.0153886 0.0151073 0.0163656 0.0164933L0.0142099 0.0273438L0.0178236 0.0273267L0.0193778 0.019443C0.020792 0.0203636 0.0223729 0.0209107 0.0242315 0.0209014C0.0281107 0.0208818 0.0312701 0.0175321 0.0312499 0.0132695C0.0312352 0.0113056 0.0304818 0.00942756 0.0291543 0.00804536C0.0278268 0.00666317 0.026033 0.00588908 0.0241644 0.00589206L0.0241635 0.00589291ZM0.0242137 0.0171041C0.0228036 0.017111 0.021391 0.0164694 0.0202407 0.0154553L0.0205864 0.0139723V0.0138872C0.0208454 0.0123098 0.0216242 0.0096195 0.0242696 0.00960759C0.0252024 0.00960596 0.026098 0.00999161 0.0267616 0.0106806C0.0274251 0.0113696 0.027803 0.0123062 0.0278128 0.0132865C0.0277334 0.0154178 0.0260667 0.0170939 0.0242145 0.0171033L0.0242137 0.0171041Z" fill="#090D14"/>
</g>
</svg>
