<svg width="163" height="151" viewBox="0 0 163 151" fill="none" xmlns="http://www.w3.org/2000/svg">
<path d="M1 46C1.16667 50.6667 2.2 61.9 5 69.5C8.5 79 14 106 27.5 105.5C41 105 43.5 77 41.5 61.5C39.5289 46.2237 34.5 21.5 29 12C24.6 4.4 19.8333 1.5 18 1C18 3.5 19 6 21.5 9.5C23.4495 12.2293 27.1667 14 27.5 14.5M55 68C55.1667 75.1667 55.9 90.1 57.5 92.5C59.5 95.5 60 92.5 60.5 89M45.5 47.5C46.5 47.6667 49 47.6 51 46M74 68C73 70.8333 71.4 77.5 73 81.5C75 86.5 80.5 88 84 83.5C87.5 79 90.5 75 90.5 69C90.5 63 86.6189 65 88 70C89.3811 75 91 80.5 97 80.5C103 80.5 105 74 104.5 71C104 68 103.5 77.5 111 79C118.5 80.5 125.5 73 127.5 66C129.5 59 131 46.5 126.5 41C122 35.5 112.5 36 105.5 42.5C98.5 49 100.5 62 104.5 68C108.5 74 114.5 80 125.5 83.5M46.5 121.5C46.5 121 42.5 103.5 21 104.5C-0.5 105.5 -5.5 134.5 13 144C31.5 153.5 63.5 151.5 77.5 139M97 121.5L93 126C95.3333 127 101.1 128.7 105.5 127.5C111 126 120 123 106.5 116C93 109 94 109 90.5 105.5C87 102 93.5 94.5 99 100C103.4 104.4 103.5 108.5 103 110M113 83.5L135 129.5M97 100C101.167 97.3333 111.3 91.8 118.5 91C125.7 90.2 130.5 90 132 90M152 111C153.043 107.742 153.311 101.812 148.404 99M149.5 103C149.196 106 143 110 137 109C131 108 130 96.5 143 97.5C145.267 97.6744 147.036 98.2161 148.404 99M149.5 103C149.743 100.6 148.871 99.3333 148.404 99M149.5 103C149.333 104.5 149.8 108.7 153 113.5C156.2 118.3 160.333 123.167 162 125M73 122.5C69.8333 121.5 64.2 120.8 67 126C70.5 132.5 77.5 136 84 131.5C90.5 127 90 119.5 85.5 116C81 112.5 74 109 64.5 110C55 111 55.5 120 73 122.5Z" stroke="#0038FF" stroke-linecap="round"/>
</svg>
