<svg width="20" height="14" viewBox="0 -1 20 14" fill="none" xmlns="http://www.w3.org/2000/svg">
<path fill-rule="evenodd" clip-rule="evenodd" d="M5.78912 0.00115437C6.32953 -0.00887911 6.86916 0.0465246 7.39625 0.166157C7.84004 0.263048 8.26139 0.443346 8.63789 0.697466C8.98562 0.95016 9.26076 1.28988 9.43568 1.68253C9.63672 2.16536 9.7337 2.68515 9.72031 3.20798C9.74314 3.78207 9.59653 4.35018 9.29873 4.84151C8.98545 5.30556 8.5524 5.67617 8.04554 5.91403C8.73339 6.09947 9.33251 6.52424 9.73516 7.11195C10.1217 7.73467 10.316 8.45756 10.2937 9.19016C10.3064 9.77426 10.1857 10.3536 9.94059 10.8839C9.71405 11.3466 9.38234 11.7498 8.97203 12.0612C8.54958 12.3692 8.0742 12.5971 7.5695 12.7336C7.04611 12.8784 6.50542 12.9511 5.96238 12.9497H0V0.00115437H5.78912ZM5.44509 5.23798C5.86969 5.25549 6.28767 5.12838 6.63064 4.87745C6.9637 4.58095 7.13687 4.14435 7.09759 3.70016C7.10859 3.44431 7.05764 3.18959 6.94909 2.95765C6.85701 2.77297 6.71383 2.61863 6.53658 2.51296C6.35706 2.39665 6.15536 2.31883 5.94423 2.28443C5.71515 2.24006 5.48204 2.21987 5.24874 2.22421H2.7011V5.24953H5.44509V5.23798ZM6.35673 10.6683C6.10663 10.7265 5.85037 10.7543 5.59359 10.7508H2.7011V7.18507H5.65052C6.1562 7.15667 6.65597 7.30546 7.06377 7.60582C7.45369 7.97365 7.65139 8.50126 7.5992 9.03475C7.61331 9.32362 7.55874 9.61173 7.43998 9.87544C7.33754 10.0823 7.1846 10.2599 6.99529 10.3919C6.80205 10.524 6.58529 10.6178 6.35673 10.6683ZM15.7248 11.2671C15.1418 11.3039 14.5692 11.0999 14.1407 10.7028C13.7209 10.1924 13.5154 9.53915 13.5674 8.88034H19.9835C20.0317 8.17914 19.9741 7.47466 19.8127 6.79058C19.6655 6.15354 19.3987 5.55022 19.0265 5.01268C18.6626 4.50039 18.1873 4.07728 17.6363 3.77516C17.0268 3.45342 16.3454 3.29215 15.6563 3.30655C13.7415 3.28272 12.0294 4.49539 11.4165 6.3096C11.1942 6.9382 11.0825 7.6006 11.0865 8.26736C11.0771 8.94549 11.1851 9.62013 11.4058 10.2614C11.6024 10.8351 11.9081 11.3654 12.3059 11.8232C12.7053 12.26 13.1952 12.6044 13.7414 12.8322C14.3453 13.0786 14.9926 13.2012 15.6447 13.1927C16.5585 13.2217 17.4587 12.9657 18.2204 12.4601C19.0145 11.8654 19.5749 11.0112 19.8045 10.0461H17.6503C17.5307 10.3851 17.3025 10.6751 17.0011 10.8711C16.6306 11.1395 16.1821 11.2787 15.7248 11.2671ZM15.5771 5.26183C16.0897 5.2266 16.5924 5.41494 16.9557 5.77829L16.9573 5.77912C17.2914 6.20668 17.4887 6.72512 17.5233 7.26662H13.5492C13.5637 7.0589 13.6019 6.85351 13.6631 6.65446C13.7309 6.41578 13.8428 6.19192 13.9931 5.99445C14.1626 5.78382 14.3717 5.60838 14.6085 5.47799C14.9073 5.32349 15.241 5.24901 15.5771 5.26183ZM18.0166 0.866211H13.0369V2.13921H18.0166V0.866211Z" fill="#00FFAA"/>
</svg>
