<svg width="19" height="30" viewBox="0 0 19 30" fill="none" xmlns="http://www.w3.org/2000/svg">
<path d="M18.6046 0.771484H10.3126V5.14939H18.6046V0.771484Z" fill="#090D14"/>
<path d="M8.55367 0.771484H0.261688V5.14939H8.55367V0.771484Z" fill="#090D14"/>
<path d="M18.6046 6.75024H10.3126V11.1281H18.6046V6.75024Z" fill="#090D14"/>
<path d="M8.55367 6.73022H0.261688V11.1081H8.55367V6.73022Z" fill="#090D14"/>
<path d="M18.6046 12.8108H10.3126V17.1887H18.6046V12.8108Z" fill="#090D14"/>
<path d="M8.55367 12.8108H0.261688V17.1887H8.55367V12.8108Z" fill="#090D14"/>
<path d="M18.6046 18.9407H10.3126V23.3186H18.6046V18.9407Z" fill="#090D14"/>
<path d="M8.55367 18.9011H0.261688V23.279H8.55367V18.9011Z" fill="#090D14"/>
<path d="M18.6046 24.9666H10.3126V29.3445H18.6046V24.9666Z" fill="#090D14"/>
<path d="M8.55367 24.9666H0.261688V29.3445H8.55367V24.9666Z" fill="#090D14"/>
</svg>
