<svg width="52" height="48" viewBox="0 0 52 48" fill="none" xmlns="http://www.w3.org/2000/svg">
<g clip-path="url(#clip0_664_1249)">
<path d="M50.6413 5.78687H21.0598V42.3293H50.6413V5.78687Z" fill="white"/>
<path d="M19.9303 4.69019C18.7677 4.69019 17.8309 5.60184 17.8309 6.73655V41.2565C17.8309 42.389 18.7677 43.3028 19.9303 43.3028H49.9006C51.0632 43.3028 52 42.389 52 41.2565V6.73655C52 5.60184 51.0632 4.69019 49.9006 4.69019H19.9303ZM19.5096 6.38575H50.3036V41.5878H19.5096V6.38575Z" fill="#090D14"/>
<path d="M46.6046 9.77148H38.3126V14.1494H46.6046V9.77148Z" fill="#090D14"/>
<path d="M36.5537 9.77148H28.2617V14.1494H36.5537V9.77148Z" fill="#090D14"/>
<path d="M46.6046 15.7502H38.3126V20.1281H46.6046V15.7502Z" fill="#090D14"/>
<path d="M36.5537 15.7302H28.2617V20.1081H36.5537V15.7302Z" fill="#090D14"/>
<path d="M46.6046 21.8108H38.3126V26.1887H46.6046V21.8108Z" fill="#090D14"/>
<path d="M36.5537 21.8108H28.2617V26.1887H36.5537V21.8108Z" fill="#090D14"/>
<path d="M46.6046 27.9407H38.3126V32.3186H46.6046V27.9407Z" fill="#090D14"/>
<path d="M36.5537 27.9011H28.2617V32.279H36.5537V27.9011Z" fill="#090D14"/>
<path d="M46.6046 33.9666H38.3126V38.3445H46.6046V33.9666Z" fill="#090D14"/>
<path d="M36.5537 33.9666H28.2617V38.3445H36.5537V33.9666Z" fill="#090D14"/>
<path d="M29.5827 48V0L0 4.7987V43.1991L29.5827 48Z" fill="#090D14"/>
<path d="M11.576 15.9792L13.6245 21.185C13.7722 21.4924 13.8387 21.8226 13.8726 22.0447C13.8569 21.7859 13.9126 21.5838 14.063 21.185L16.4902 15.6934L20.2196 15.4768C18.7094 18.2892 17.2571 21.1308 15.8635 24.0001L20.4056 32.7682L16.3861 32.5343L13.9434 26.8131C13.7523 26.3816 13.7892 26.3228 13.7507 26.1115C13.7329 26.2619 13.7268 26.3853 13.6245 26.6572L11.1663 32.2311L7.71814 32.0297L11.7044 24.1171L8.11677 16.1806L11.576 15.9792Z" fill="white"/>
</g>
<defs>
<clipPath id="clip0_664_1249">
<rect width="52" height="48" fill="white"/>
</clipPath>
</defs>
</svg>
