<svg width="24" height="24" viewBox="0 0 24 24" fill="none" xmlns="http://www.w3.org/2000/svg">
<path fill-rule="evenodd" clip-rule="evenodd" d="M14.708 19.3906L13.5361 20.5625C12.4893 21.6016 11.4971 21.6094 10.458 20.5625L9.28614 19.3906C9.17676 19.2812 9.08301 19.25 8.94239 19.25H7.28614C5.80957 19.25 5.10645 18.5469 5.10645 17.0703V15.4141C5.10645 15.2734 5.06739 15.1719 4.96582 15.0703L3.79395 13.8906C2.75489 12.8516 2.74707 11.8594 3.79395 10.8203L4.96582 9.64844C5.06739 9.54688 5.10645 9.44531 5.10645 9.30469V7.64844C5.10645 6.15625 5.80957 5.46875 7.28614 5.46875H8.94239C9.08301 5.46875 9.18457 5.42969 9.28614 5.32813L10.458 4.16407C11.4971 3.10938 12.4893 3.10938 13.5361 4.15625L14.708 5.32813C14.8096 5.42969 14.9111 5.46875 15.0518 5.46875H16.708C18.1846 5.46875 18.8877 6.17188 18.8877 7.64844V9.30469C18.8877 9.44531 18.9268 9.53906 19.0283 9.64844L20.2002 10.8203C21.2393 11.8594 21.2471 12.8516 20.2002 13.8906L19.0283 15.0703C18.9268 15.1719 18.8877 15.2734 18.8877 15.4141V17.0703C18.8877 18.5469 18.1846 19.25 16.708 19.25H15.0518C14.9111 19.25 14.8174 19.2812 14.708 19.3906ZM10.3242 15.8125C10.5586 16.1015 10.8164 16.25 11.1367 16.25C11.457 16.25 11.7305 16.0859 11.9258 15.8047L15.5664 10.1797C15.6914 9.99216 15.7773 9.78903 15.7773 9.60153C15.7773 9.15622 15.3867 8.84372 14.957 8.84372C14.6758 8.84372 14.4414 8.99997 14.2539 9.29684L11.1133 14.2968L9.68359 12.5078C9.48047 12.2578 9.27734 12.1562 9.01172 12.1562C8.57422 12.1562 8.21484 12.5078 8.21484 12.9531C8.21484 13.164 8.28516 13.3593 8.44922 13.5547L10.3242 15.8125Z" fill="#009BFD"/>
</svg>
