<svg width="32" height="32" viewBox="0 0 0.032 0.032" fill="none" xmlns="http://www.w3.org/2000/svg">
<g id="roobinium_mark">
<rect id="shape" width="0.03125" height="0.03125" rx="16" fill="white"/>
<path id="shape_2" fill-rule="evenodd" clip-rule="evenodd" d="M0.0114383 0.0281015C0.00594937 0.0264409 0.00195312 0.0213434 0.00195312 0.0153125C0.00195312 0.00793432 0.00793432 0.00195312 0.0153125 0.00195312C0.020202 0.00195312 0.024478 0.00457988 0.0268063 0.00849922H0.0157133C0.0133523 0.00849922 0.0114383 0.0104132 0.0114383 0.0127742V0.0281015ZM0.0157133 0.0105031C0.014459 0.0105031 0.0134422 0.0115199 0.0134422 0.0127742V0.028542C0.0140533 0.0286276 0.0146777 0.0286719 0.0153125 0.0286719C0.0226907 0.0286719 0.0286719 0.0226907 0.0286719 0.0153125C0.0286719 0.0136171 0.028356 0.0119954 0.02778 0.0105031H0.0157133ZM0.0269352 0.0153125C0.0269352 0.0217315 0.0217315 0.0269352 0.0153125 0.0269352C0.0152679 0.0269352 0.0152234 0.0269349 0.0151789 0.0269344V0.0127742C0.0151789 0.0124791 0.0154182 0.0122398 0.0157133 0.0122398H0.0265252C0.026796 0.0132307 0.0269352 0.0142613 0.0269352 0.0153125ZM0.0157133 0.0067625C0.0123931 0.0067625 0.00970156 0.00945404 0.00970156 0.0127742V0.0254955C0.00607019 0.023493 0.00368984 0.0196344 0.00368984 0.0153125C0.00368984 0.00889348 0.00889348 0.00368984 0.0153125 0.00368984C0.0182967 0.00368984 0.0210834 0.00482304 0.0231877 0.0067625H0.0157133Z" fill="black"/>
</g>
</svg>
