<svg width="24" height="24" viewBox="0 0 24 24" fill="none" xmlns="http://www.w3.org/2000/svg">
<path fill-rule="evenodd" clip-rule="evenodd" d="M1.125 12C1.125 18.0061 5.9939 22.875 12 22.875C18.0061 22.875 22.875 18.0061 22.875 12C22.875 5.9939 18.0061 1.125 12 1.125C5.9939 1.125 1.125 5.9939 1.125 12ZM12 0.375C5.57969 0.375 0.375 5.57969 0.375 12C0.375 18.4203 5.57969 23.625 12 23.625C18.4203 23.625 23.625 18.4203 23.625 12C23.625 5.57969 18.4203 0.375 12 0.375Z" fill="white"/>
<path fill-rule="evenodd" clip-rule="evenodd" d="M12 3.75C7.44365 3.75 3.75 7.44365 3.75 12C3.75 16.5563 7.44365 20.25 12 20.25C16.5563 20.25 20.25 16.5563 20.25 12C20.25 7.44365 16.5563 3.75 12 3.75ZM13.4849 7.36871C15.0366 7.4774 16.272 7.93255 16.4335 9.35173C16.5534 10.3902 16.1293 11.0221 15.4396 11.3886C16.5898 11.6437 17.3195 12.312 17.2045 13.8403C17.0622 15.7382 15.6588 16.2712 13.6429 16.4222L13.6773 18.413L12.4771 18.4341L12.4433 16.4699C12.1323 16.4756 11.8136 16.4786 11.4843 16.4775L11.5188 18.4507L10.3198 18.4715L10.2845 16.4772C10.1724 16.4784 10.0594 16.4792 9.94569 16.48L9.94533 16.48C9.7743 16.4811 9.60146 16.4823 9.42697 16.4851L7.86502 16.5124L8.07848 15.0749C8.07848 15.0749 8.96656 15.0732 8.95097 15.0599C9.29062 15.0533 9.3763 14.8078 9.39497 14.6544L9.34034 11.5075C9.36975 11.5068 9.39863 11.5063 9.42649 11.5059L9.46712 11.5052C9.41745 11.4992 9.37366 11.4986 9.34011 11.499L9.3008 9.25267C9.25052 9.00992 9.08736 8.73044 8.6012 8.73878C8.61565 8.7222 7.72961 8.75457 7.72961 8.75457L7.70691 7.47267L9.36236 7.44434L9.36262 7.45045C9.61145 7.44594 9.86656 7.43666 10.1263 7.42682L10.0924 5.45553L11.292 5.43463L11.3255 7.36722C11.6458 7.35523 11.9683 7.34337 12.2838 7.33782L12.2502 5.41794L13.4504 5.39687L13.4849 7.36871ZM11.7215 15.0231C12.7046 15.0196 14.853 15.0119 14.8285 13.6446C14.8042 12.2464 12.7413 12.3312 11.7347 12.3725C11.6222 12.3771 11.5229 12.3812 11.4411 12.3826L11.4869 15.025C11.554 15.0237 11.633 15.0234 11.7213 15.0231H11.7215H11.7215ZM14.2056 9.9263C14.2269 11.1693 12.438 11.1711 11.6178 11.1719C11.5433 11.172 11.4768 11.172 11.4203 11.173L11.3786 8.77656C11.4471 8.77536 11.5304 8.77169 11.6248 8.76754C12.4643 8.73063 14.1832 8.65506 14.2056 9.9263Z" fill="white"/>
</svg>
